<?xml version="1.0" encoding="UTF-8"?>
<svg version="1.1" xmlns="http://www.w3.org/2000/svg" width="400" height="400">
<path d="M0 0 C132 0 264 0 400 0 C400 132 400 264 400 400 C268 400 136 400 0 400 C0 268 0 136 0 0 Z " fill="#F6F6F6" transform="translate(0,0)"/>
<path d="M0 0 C4.28342007 0.47593556 6.15573389 2.94761685 9 6 C9.763125 6.721875 10.52625 7.44375 11.3125 8.1875 C24.84706869 22.35158352 33.54865432 39.34063506 40 57.6875 C41.61013545 61.81995065 43.54454987 63.65191747 47.28515625 65.9453125 C49.95301331 67.58613575 51.86649924 69.71410633 54 72 C54.64582031 72.64066406 55.29164063 73.28132813 55.95703125 73.94140625 C72.27146226 90.82727092 80.4359909 112.8709868 80.3125 136.1875 C80.30758545 137.28739258 80.3026709 138.38728516 80.29760742 139.52050781 C79.94034611 164.42986574 70.08368512 185.72042286 52.59375 203.4375 C26.13493632 228.22170522 -4.26765359 229.48600721 -38.42905641 229.37004495 C-42.61665933 229.35855682 -46.80425286 229.36285086 -50.99186707 229.36479187 C-58.0124415 229.36566896 -65.0329183 229.35471405 -72.0534668 229.33618164 C-80.12997905 229.3149817 -88.206349 229.31151651 -96.28288347 229.3177436 C-104.11252936 229.32346737 -111.94212598 229.31775893 -119.77176476 229.30657005 C-123.07797866 229.30196799 -126.38416199 229.30103083 -129.69037819 229.3031559 C-133.59025401 229.30506055 -137.48998805 229.2967707 -141.38983154 229.2810955 C-142.80743002 229.27690901 -144.22504304 229.27596324 -145.64264488 229.27878571 C-158.0405103 229.29969892 -170.84282946 228.80622872 -182.5625 224.375 C-183.25939941 224.12137695 -183.95629883 223.86775391 -184.67431641 223.60644531 C-193.01638279 220.4348307 -200.58709453 215.94193698 -208 211 C-208 210.01 -208 209.02 -208 208 C-207.34 208 -206.68 208 -206 208 C-206 207.34 -206 206.68 -206 206 C-205.34 206 -204.68 206 -204 206 C-203.7525 205.443125 -203.505 204.88625 -203.25 204.3125 C-200.79170685 199.76465767 -197.79347223 196.75999623 -193.6875 193.6875 C-188.27810097 189.60375961 -184.13505488 184.82378226 -180.0625 179.4375 C-177.52355497 176.4369286 -174.63936563 174.04444142 -171.609375 171.55078125 C-171.07828125 171.03902344 -170.5471875 170.52726563 -170 170 C-170 169.34 -170 168.68 -170 168 C-171.99284138 166.6559907 -173.99419671 165.32458708 -176 164 C-183.66450335 157.08325308 -187.54591724 150.64358007 -188.25390625 140.28515625 C-188.62780036 130.71437899 -188.03010002 122.40499305 -181.3125 115.0625 C-180.549375 114.381875 -179.78625 113.70125 -179 113 C-178.505 111.515 -178.505 111.515 -178 110 C-175.9375 109.3125 -175.9375 109.3125 -174 109 C-174 108.34 -174 107.68 -174 107 C-172.75264433 106.3490741 -171.50198168 105.70448331 -170.25 105.0625 C-169.55390625 104.70285156 -168.8578125 104.34320313 -168.140625 103.97265625 C-160.11999281 100.32824491 -148.77211195 100.58507403 -140.4296875 103.05859375 C-132.83926226 106.64026499 -125.87189164 111.63225285 -122.5 119.5 C-122.335 120.325 -122.17 121.15 -122 122 C-121.278125 121.2575 -120.55625 120.515 -119.8125 119.75 C-117 117 -117 117 -114.625 115.1875 C-112.4589703 113.38247525 -110.87617689 111.74879213 -109.08203125 109.61328125 C-104.03774173 103.78832788 -98.52965375 98.42245852 -93.0625 93 C-91.98609346 91.92862113 -90.90991986 90.85700818 -89.83398438 89.78515625 C-87.22533255 87.18740362 -84.61355529 84.59282038 -82 82 C-83.43182343 78.16084236 -84.61125767 76.09527102 -87.8125 73.5 C-88.52148438 72.90703125 -89.23046875 72.3140625 -89.9609375 71.703125 C-90.63382812 71.14109375 -91.30671875 70.5790625 -92 70 C-94.77067019 67.48612363 -96.78574258 65.64277226 -98 62 C-99.1446875 61.814375 -99.1446875 61.814375 -100.3125 61.625 C-103 61 -103 61 -106 59 C-106 58.34 -106 57.68 -106 57 C-108.97 56.01 -111.94 55.02 -115 54 C-115 53.01 -115 52.02 -115 51 C-115.70125 50.95101562 -116.4025 50.90203125 -117.125 50.8515625 C-122.96734159 50.39116058 -128.36093962 49.59596049 -134 48 C-133.52276025 43.78120058 -131.33068001 42.21315525 -128.125 39.625 C-116.04472001 30.15331518 -101.54589726 23.39925258 -86 23 C-85.10410156 22.938125 -84.20820313 22.87625 -83.28515625 22.8125 C-70.27031226 22.25347314 -56.86553183 26.15366086 -45.875 33.0625 C-42.6596873 35.08105893 -39.56151028 36.67552376 -36 38 C-35.34 36.68 -34.68 35.36 -34 34 C-33.01 34 -32.02 34 -31 34 C-30.62875 32.88625 -30.62875 32.88625 -30.25 31.75 C-28.87170655 28.71775441 -27.44540904 27.23580255 -25 25 C-21.59703377 21.68658551 -18.47115342 18.24893248 -15.40625 14.62890625 C-13.6968324 12.64883087 -11.87940565 10.81877966 -10 9 C-9.13375 8.13375 -8.2675 7.2675 -7.375 6.375 C-5.91666667 4.91666667 -4.45833333 3.45833333 -3 2 C-2.01 2 -1.02 2 0 2 C0 1.34 0 0.68 0 0 Z " fill="#4286F4" transform="translate(282,102)"/>
<path d="M0 0 C0.59683594 0.48726562 1.19367188 0.97453125 1.80859375 1.4765625 C3.21527464 2.63959197 4.60930133 3.81790613 6 5 C5.01 5.495 5.01 5.495 4 6 C4 6.66 4 7.32 4 8 C1.67184639 9.55210241 -0.58794429 10.83517772 -3.1875 11.875 C-5.70611078 13.43827566 -5.92129151 15.27150205 -7 18 C-9.63860678 20.94016184 -12.52294102 23.43279904 -15.5625 25.9375 C-17.92246602 27.91268895 -19.67078711 29.77153739 -21.3125 32.375 C-21.869375 33.24125 -22.42625 34.1075 -23 35 C-23.66 35 -24.32 35 -25 35 C-25.2475 35.78375 -25.495 36.5675 -25.75 37.375 C-27.1824048 40.38305008 -28.0309239 40.75490357 -31 42 C-31.33 42.66 -31.66 43.32 -32 44 C-36.46955915 43.45254029 -39.14073596 41.7280402 -42.8125 39.1875 C-50.07708289 34.40797302 -57.56828364 32.69785415 -66 31 C-67.05380859 30.70996094 -67.05380859 30.70996094 -68.12890625 30.4140625 C-82.31228259 27.27536126 -100.30759257 31.55152241 -112.703125 38.51953125 C-115.94126735 40.63719057 -118.9290651 42.94264837 -121.9375 45.375 C-124 47 -124 47 -126 47 C-126.495 48.485 -126.495 48.485 -127 50 C-127.99 50.495 -127.99 50.495 -129 51 C-129.495 52.485 -129.495 52.485 -130 54 C-129.15179688 53.9690625 -128.30359375 53.938125 -127.4296875 53.90625 C-123.79443851 54.00561899 -120.65295476 54.63601108 -117.125 55.5 C-115.97257812 55.7784375 -114.82015625 56.056875 -113.6328125 56.34375 C-112.76398438 56.5603125 -111.89515625 56.776875 -111 57 C-111 57.99 -111 58.98 -111 60 C-109.88625 60.185625 -109.88625 60.185625 -108.75 60.375 C-106.19858515 60.95486701 -104.2732427 61.73708739 -102 63 C-102 63.66 -102 64.32 -102 65 C-99.99574331 66.07370894 -98.3201714 66.94835945 -96.0625 67.3125 C-92.86894749 68.3770175 -91.18955955 70.51455402 -89 73 C-88.67 73.99 -88.34 74.98 -88 76 C-86.67124039 76.67573672 -85.33715906 77.34104032 -84 78 C-82.078125 79.9453125 -82.078125 79.9453125 -80.25 82.125 C-79.63640625 82.84945312 -79.0228125 83.57390625 -78.390625 84.3203125 C-77.93171875 84.87460938 -77.4728125 85.42890625 -77 86 C-78.64085571 90.21507138 -81.76403699 93.01715722 -84.92578125 96.12109375 C-85.5103862 96.7028688 -86.09499115 97.28464386 -86.6973114 97.88404846 C-88.56438702 99.73995842 -90.43828434 101.58880352 -92.3125 103.4375 C-93.5623092 104.67727058 -94.81166318 105.91750025 -96.06054688 107.15820312 C-98.3660834 109.44744394 -100.67425764 111.73395135 -102.9855957 114.01733398 C-108.58606482 119.43724626 -108.58606482 119.43724626 -113.6875 125.3125 C-114.450625 126.199375 -115.21375 127.08625 -116 128 C-116.66 128 -117.32 128 -118 128 C-119.04296875 126.4609375 -119.04296875 126.4609375 -120.1875 124.375 C-122.87274222 119.94903389 -125.77255344 116.9658963 -130 114 C-130.67289062 113.51144531 -131.34578125 113.02289063 -132.0390625 112.51953125 C-137.62287731 109.09440773 -142.72014477 108.54056605 -149.125 108.5 C-149.87692627 108.49371582 -150.62885254 108.48743164 -151.40356445 108.48095703 C-156.08462275 108.58656409 -159.86279973 109.42888777 -164.17138672 111.26367188 C-166.09006917 112.03626817 -167.98581318 112.53967798 -170 113 C-170 113.66 -170 114.32 -170 115 C-171.32 115.33 -172.64 115.66 -174 116 C-174.0825 116.5775 -174.165 117.155 -174.25 117.75 C-175 120 -175 120 -176.8125 121.625 C-183.20010728 128.56011647 -183.68785324 137.20382212 -183.3203125 146.21875 C-182.62402117 154.43838421 -179.89705837 159.51470648 -175 166 C-175 166.66 -175 167.32 -175 168 C-174.46375 168.2475 -173.9275 168.495 -173.375 168.75 C-170.43575748 170.29696975 -167.74245592 172.13014369 -165 174 C-166.55603771 177.81936528 -168.95604931 180.26044438 -172 183 C-172.66 183 -173.32 183 -174 183 C-174.26167969 183.58910156 -174.52335937 184.17820312 -174.79296875 184.78515625 C-176.0642275 187.11785434 -177.40230531 188.60354368 -179.3125 190.4375 C-179.93382812 191.04078125 -180.55515625 191.6440625 -181.1953125 192.265625 C-181.79085937 192.83796875 -182.38640625 193.4103125 -183 194 C-184.3303125 195.3303125 -184.3303125 195.3303125 -185.6875 196.6875 C-186.8321875 197.8321875 -186.8321875 197.8321875 -188 199 C-188.721875 199.763125 -189.44375 200.52625 -190.1875 201.3125 C-192 203 -192 203 -194 203 C-194.2475 203.556875 -194.495 204.11375 -194.75 204.6875 C-196.22924818 207.42410913 -197.93467439 209.67650869 -200 212 C-200.66 212 -201.32 212 -202 212 C-202 212.66 -202 213.32 -202 214 C-202.66 214 -203.32 214 -204 214 C-204.33 214.66 -204.66 215.32 -205 216 C-220.38623743 203.33884549 -235.84344262 184.52447709 -238 164 C-238 162.68 -238 161.36 -238 160 C-238.66 160 -239.32 160 -240 160 C-241.14498279 121.73291368 -241.14498279 121.73291368 -231.91381836 103.82788086 C-230.91223445 101.89210108 -230.91223445 101.89210108 -229.95703125 99.34765625 C-228.79904666 96.50704915 -227.3170633 94.0354069 -225.6875 91.4375 C-225.11386719 90.50808594 -224.54023438 89.57867187 -223.94921875 88.62109375 C-221.89056015 85.8528374 -219.75469143 84.05494666 -217 82 C-214.48184682 79.60468356 -212.1919593 77.24768942 -210.0625 74.5 C-208 72 -208 72 -205.109375 69.95703125 C-200.96728088 66.54959166 -199.82641006 62.14609363 -198.1875 57.1875 C-194.72148077 47.45196448 -190.50116241 38.73459228 -185 30 C-184.43410156 29.07703125 -183.86820313 28.1540625 -183.28515625 27.203125 C-173.41128716 12.42590595 -159.35249121 -0.18904073 -144 -9 C-143.38560059 -9.36270996 -142.77120117 -9.72541992 -142.13818359 -10.09912109 C-133.10365581 -15.39570998 -124.06394456 -19.09608648 -114 -22 C-112.49179687 -22.44472656 -112.49179687 -22.44472656 -110.953125 -22.8984375 C-72.86176037 -33.29635055 -30.62328396 -25.04883274 0 0 Z " fill="#F9BD07" transform="translate(278,96)"/>
<path d="M0 0 C18.8041126 -0.80769343 37.53849921 7.66110781 51.28515625 20.1875 C67.48482959 37.56588092 71.53481201 56.33012837 71.28515625 79.1875 C73.11433594 79.14302734 73.11433594 79.14302734 74.98046875 79.09765625 C84.17857583 79.11586632 90.59084812 83.61310543 97.0859375 89.8125 C100.04256796 93.00545084 102.37827204 96.27838737 104.28515625 100.1875 C104.64867187 100.93128906 105.0121875 101.67507812 105.38671875 102.44140625 C106.52903317 105.9329151 106.66875277 109.23781164 106.66015625 112.875 C106.65854492 113.58253418 106.65693359 114.29006836 106.65527344 115.01904297 C106.41161207 125.49409294 101.71940538 134.45161662 94.1875 141.734375 C86.67647576 147.47174875 78.16032126 149.30278118 68.89837646 149.32794189 C67.63404282 149.33365204 66.36970917 149.33936218 65.06706238 149.34524536 C63.67849741 149.34649049 62.28993234 149.34761563 60.90136719 149.34863281 C59.42904029 149.35326565 57.95671459 149.35829093 56.48439026 149.36367798 C52.49453238 149.37675891 48.50469129 149.38323846 44.51481533 149.38768864 C42.01847294 149.39062625 39.52213508 149.39473233 37.02579498 149.39919281 C29.20470094 149.41285621 21.38361731 149.4225286 13.56251216 149.4263947 C4.55380553 149.43087317 -4.4547492 149.44841608 -13.46340966 149.4773953 C-20.44027776 149.4990547 -27.41710324 149.50910125 -34.39400458 149.51043582 C-38.55484606 149.51148077 -42.71554452 149.51732233 -46.8763504 149.53525543 C-50.79327894 149.55181008 -54.70995807 149.55385606 -58.62690926 149.54511642 C-60.05789676 149.54435 -61.4888981 149.5486363 -62.9198513 149.55857468 C-75.77685873 149.64257566 -85.90562621 147.96157398 -95.71484375 139.1875 C-103.85510931 129.94882522 -105.3588224 121.06407429 -105.03125 109.11328125 C-104.3763681 100.98789476 -101.80685228 95.62091301 -95.71484375 90.1875 C-95.38484375 89.1975 -95.05484375 88.2075 -94.71484375 87.1875 C-92.65234375 86.5 -92.65234375 86.5 -90.71484375 86.1875 C-90.71484375 85.5275 -90.71484375 84.8675 -90.71484375 84.1875 C-89.46748808 83.5365741 -88.21682543 82.89198331 -86.96484375 82.25 C-85.92070313 81.71052734 -85.92070313 81.71052734 -84.85546875 81.16015625 C-76.83483656 77.51574491 -65.4869557 77.77257403 -57.14453125 80.24609375 C-49.55410601 83.82776499 -42.58673539 88.81975285 -39.21484375 96.6875 C-39.04984375 97.5125 -38.88484375 98.3375 -38.71484375 99.1875 C-37.99296875 98.445 -37.27109375 97.7025 -36.52734375 96.9375 C-33.71484375 94.1875 -33.71484375 94.1875 -31.33984375 92.375 C-29.17381405 90.56997525 -27.59102064 88.93629213 -25.796875 86.80078125 C-20.75258548 80.97582788 -15.2444975 75.60995852 -9.77734375 70.1875 C-8.70093721 69.11612113 -7.62476361 68.04450818 -6.54882812 66.97265625 C-3.9401763 64.37490362 -1.32839904 61.78032038 1.28515625 59.1875 C-0.14666718 55.34834236 -1.32610142 53.28277102 -4.52734375 50.6875 C-5.23632812 50.09453125 -5.9453125 49.5015625 -6.67578125 48.890625 C-7.34867187 48.32859375 -8.0215625 47.7665625 -8.71484375 47.1875 C-11.48551394 44.67362363 -13.50058633 42.83027226 -14.71484375 39.1875 C-15.85953125 39.001875 -15.85953125 39.001875 -17.02734375 38.8125 C-19.71484375 38.1875 -19.71484375 38.1875 -22.71484375 36.1875 C-22.71484375 35.5275 -22.71484375 34.8675 -22.71484375 34.1875 C-25.68484375 33.1975 -28.65484375 32.2075 -31.71484375 31.1875 C-31.71484375 30.1975 -31.71484375 29.2075 -31.71484375 28.1875 C-32.41609375 28.13851562 -33.11734375 28.08953125 -33.83984375 28.0390625 C-39.68218534 27.57866058 -45.07578337 26.78346049 -50.71484375 25.1875 C-50.237604 20.96870058 -48.04552376 19.40065525 -44.83984375 16.8125 C-31.31201665 6.20584893 -16.95995757 1.1713352 0 0 Z " fill="#F6F6F6" transform="translate(198.71484375,124.8125)"/>
<path d="M0 0 C0.59683594 0.48726562 1.19367188 0.97453125 1.80859375 1.4765625 C3.21527464 2.63959197 4.60930133 3.81790613 6 5 C5.01 5.495 5.01 5.495 4 6 C4 6.66 4 7.32 4 8 C1.67184639 9.55210241 -0.58794429 10.83517772 -3.1875 11.875 C-5.70611078 13.43827566 -5.92129151 15.27150205 -7 18 C-9.63860678 20.94016184 -12.52294102 23.43279904 -15.5625 25.9375 C-17.92246602 27.91268895 -19.67078711 29.77153739 -21.3125 32.375 C-21.869375 33.24125 -22.42625 34.1075 -23 35 C-23.66 35 -24.32 35 -25 35 C-25.2475 35.78375 -25.495 36.5675 -25.75 37.375 C-27.1824048 40.38305008 -28.0309239 40.75490357 -31 42 C-31.33 42.66 -31.66 43.32 -32 44 C-36.46955915 43.45254029 -39.14073596 41.7280402 -42.8125 39.1875 C-50.07708289 34.40797302 -57.56828364 32.69785415 -66 31 C-67.05380859 30.70996094 -67.05380859 30.70996094 -68.12890625 30.4140625 C-82.31228259 27.27536126 -100.30759257 31.55152241 -112.703125 38.51953125 C-115.94126735 40.63719057 -118.9290651 42.94264837 -121.9375 45.375 C-124 47 -124 47 -126 47 C-126.495 48.485 -126.495 48.485 -127 50 C-128.625 51.75 -128.625 51.75 -131 53 C-133.33650264 52.68965993 -135.66927539 52.35111015 -138 52 C-155.37817088 50.92065873 -171.74213795 52.64407153 -187.375 60.75 C-190 62 -190 62 -194 62 C-194 62.66 -194 63.32 -194 64 C-196.475 64.495 -196.475 64.495 -199 65 C-199.33 65.99 -199.66 66.98 -200 68 C-201.11589224 64.69837303 -200.90801698 62.94267337 -199.62890625 59.7265625 C-199.14454102 58.49957642 -199.14454102 58.49957642 -198.65039062 57.24780273 C-198.29138672 56.38227783 -197.93238281 55.51675293 -197.5625 54.625 C-197.19705078 53.73176025 -196.83160156 52.83852051 -196.45507812 51.91821289 C-193.22098062 44.19562629 -189.50367258 37.06053849 -185 30 C-184.45601562 29.11957031 -183.91203125 28.23914063 -183.3515625 27.33203125 C-173.43400758 12.50057468 -159.41744832 -0.15176115 -144 -9 C-143.38560059 -9.36270996 -142.77120117 -9.72541992 -142.13818359 -10.09912109 C-133.10365581 -15.39570998 -124.06394456 -19.09608648 -114 -22 C-112.99453125 -22.29648438 -111.9890625 -22.59296875 -110.953125 -22.8984375 C-72.86176037 -33.29635055 -30.62328396 -25.04883274 0 0 Z " fill="#E94336" transform="translate(278,96)"/>
<path d="M0 0 C1.32561342 0.25997155 2.64007781 0.57656235 3.94873047 0.91162109 C11.82332339 2.57013593 19.81053016 2.3583589 27.8203125 2.4140625 C29.53238834 2.43280307 31.24445522 2.45237857 32.95651245 2.4727478 C37.43126105 2.52377013 41.90603949 2.56355456 46.38092041 2.60089111 C51.76683165 2.64821056 57.15259827 2.70967858 62.53839111 2.76873779 C70.6922014 2.85658492 78.84598911 2.92661004 87 3 C87 21.48 87 39.96 87 59 C66.05874499 59.12032643 66.05874499 59.12032643 57.06445312 59.14648438 C50.95084729 59.16434937 44.83737751 59.18537892 38.72387695 59.22631836 C33.78958848 59.25915064 28.85544611 59.27690288 23.92105675 59.28463173 C22.0477945 59.29013271 20.17453936 59.30087353 18.3013401 59.31719017 C4.6127691 59.43157645 -7.61518289 58.51262157 -20.25 52.6875 C-21.25667725 52.23673096 -21.25667725 52.23673096 -22.28369141 51.77685547 C-27.56214613 49.34996508 -32.30168372 46.41487378 -37 43 C-37.66 42.67 -38.32 42.34 -39 42 C-39 41.01 -39 40.02 -39 39 C-38.34 39 -37.68 39 -37 39 C-37 38.34 -37 37.68 -37 37 C-36.34 37 -35.68 37 -35 37 C-34.7525 36.443125 -34.505 35.88625 -34.25 35.3125 C-31.79170685 30.76465767 -28.79347223 27.75999623 -24.6875 24.6875 C-19.27810097 20.60375961 -15.13505488 15.82378226 -11.0625 10.4375 C-8.05945237 6.88844372 -4.53279691 4.00732368 -1 1 C-0.67 0.67 -0.34 0.34 0 0 Z " fill="#36A853" transform="translate(113,271)"/>
<path d="M0 0 C-0.33 0.99 -0.66 1.98 -1 3 C-27.4 3 -53.8 3 -81 3 C-81 20.82 -81 38.64 -81 57 C-67.00775699 56.85121732 -67.00775699 56.85121732 -53.015625 56.69335938 C-47.31155008 56.62698967 -41.6074767 56.56169869 -35.90332031 56.50268555 C-31.3062024 56.45505929 -26.70916047 56.40271711 -22.11213303 56.34705925 C-20.35542052 56.32662781 -18.59868718 56.30791605 -16.84193802 56.29092598 C-14.38754975 56.26689942 -11.93330574 56.23684255 -9.47900391 56.20532227 C-8.74748611 56.1995668 -8.01596832 56.19381134 -7.26228333 56.18788147 C-3.50559771 56.18809637 -3.50559771 56.18809637 0 55 C1.62082334 54.79669115 3.24708467 54.63525706 4.875 54.5 C9.02905869 54.15279509 12.6043599 53.60835594 16.4375 51.9375 C19.14244935 50.94788438 21.14541159 50.83688066 24 51 C12.88182054 62.11817946 -12.57152334 59.3374446 -26.87875748 59.34842396 C-30.8935815 59.34437633 -34.90826466 59.32529623 -38.9230299 59.30418181 C-43.15767619 59.28517969 -47.39233181 59.28364634 -51.62701416 59.28010559 C-59.61270909 59.27085318 -67.59827795 59.24633359 -75.58391786 59.21605712 C-84.68939004 59.18229866 -93.79486886 59.1659737 -102.90038824 59.15097082 C-121.60032978 59.11977633 -140.30015469 59.06715122 -159 59 C-159 58.67 -159 58.34 -159 58 C-133.59 58 -108.18 58 -82 58 C-82 39.52 -82 21.04 -82 2 C-76.72773438 1.93941406 -71.45546875 1.87882812 -66.0234375 1.81640625 C-62.6783775 1.77589937 -59.33332526 1.73511972 -55.98828125 1.69335938 C-50.68183076 1.62713828 -45.37538141 1.56191353 -40.06884766 1.50268555 C-35.78941943 1.45485815 -31.51006797 1.40250954 -27.23073196 1.34705925 C-25.6001337 1.3267187 -23.96951445 1.30799233 -22.33887863 1.29092598 C-20.05054925 1.26669724 -17.76236254 1.23666935 -15.47412109 1.20532227 C-14.17284271 1.18977798 -12.87156433 1.1742337 -11.53085327 1.15821838 C-7.64867719 0.98425714 -3.86118843 0 0 0 Z " fill="#71AAD1" transform="translate(282,272)"/>
<path d="M0 0 C0 18.48 0 36.96 0 56 C-0.99 56 -1.98 56 -3 56 C-3.33 38.18 -3.66 20.36 -4 2 C-5.32 1.67 -6.64 1.34 -8 1 C-1.125 0 -1.125 0 0 0 Z " fill="#399D81" transform="translate(200,274)"/>
<path d="M0 0 C-0.33 0.99 -0.66 1.98 -1 3 C-1.66 3 -2.32 3 -3 3 C-3 3.99 -3 4.98 -3 6 C-4.32 6 -5.64 6 -7 6 C-7.144375 7.27875 -7.28875 8.5575 -7.4375 9.875 C-7.70642746 12.25692894 -7.92226346 13.84452691 -9 16 C-8.34 16.66 -7.68 17.32 -7 18 C-10.125 17.47916667 -13.25 16.95833333 -16.375 16.4375 C-17.674375 16.2209375 -17.674375 16.2209375 -19 16 C-18.68954049 12.9024608 -17.95547259 11.95689209 -15.671875 9.74609375 C-14.70765625 8.98425781 -13.7434375 8.22242188 -12.75 7.4375 C-11.79609375 6.67308594 -10.8421875 5.90867188 -9.859375 5.12109375 C-2.9558011 0 -2.9558011 0 0 0 Z " fill="#FCF1E1" transform="translate(167,134)"/>
<path d="M0 0 C0.87840996 3.09720845 0.99435406 4.90645403 0 8 C4.40914783 9.10228696 8.48382401 9.07654536 13 9 C8.86687528 12.24745514 6.36067372 14 1 14 C1 14.66 1 15.32 1 16 C-0.65 16.33 -2.3 16.66 -4 17 C-4.33 17.99 -4.66 18.98 -5 20 C-6.02826931 16.86332092 -5.99386675 15.16815258 -4.78515625 12.109375 C-4.37426758 11.04589844 -4.37426758 11.04589844 -3.95507812 9.9609375 C-3.66052734 9.23132813 -3.36597656 8.50171875 -3.0625 7.75 C-2.77181641 7.00492188 -2.48113281 6.25984375 -2.18164062 5.4921875 C-1.46426278 3.65758186 -0.73342561 1.82824935 0 0 Z " fill="#E34639" transform="translate(83,144)"/>
<path d="M0 0 C-0.33 0.99 -0.66 1.98 -1 3 C-27.73 3 -54.46 3 -82 3 C-82 2.67 -82 2.34 -82 2 C-81.08624603 1.98969254 -80.17249207 1.97938507 -79.23104858 1.96876526 C-70.60919523 1.87068539 -61.98740865 1.76815622 -53.36566734 1.66066074 C-48.93341861 1.60555577 -44.50116314 1.55215609 -40.06884766 1.50268555 C-35.78941943 1.45485815 -31.51006797 1.40250954 -27.23073196 1.34705925 C-25.6001337 1.3267187 -23.96951445 1.30799233 -22.33887863 1.29092598 C-20.05054925 1.26669724 -17.76236254 1.23666935 -15.47412109 1.20532227 C-14.17284271 1.18977798 -12.87156433 1.1742337 -11.53085327 1.15821838 C-7.64867719 0.98425714 -3.86118843 0 0 0 Z " fill="#6192DF" transform="translate(282,272)"/>
<path d="M0 0 C0.66 0 1.32 0 2 0 C2.19335938 0.63808594 2.38671875 1.27617187 2.5859375 1.93359375 C2.84632813 2.75988281 3.10671875 3.58617187 3.375 4.4375 C3.63023437 5.26121094 3.88546875 6.08492187 4.1484375 6.93359375 C4.80882227 9.17798016 4.80882227 9.17798016 7 10 C6.67 18.25 6.34 26.5 6 35 C8.97 35 11.94 35 15 35 C18.5625 36.5 18.5625 36.5 21 38 C19 39 19 39 16.375 38.125 C15.26125 37.75375 14.1475 37.3825 13 37 C11.60089912 36.77891644 10.19650236 36.58929408 8.7890625 36.4296875 C7.53867187 36.28789062 6.28828125 36.14609375 5 36 C4.95512451 35.33581055 4.91024902 34.67162109 4.86401367 33.98730469 C3.84609069 16.75649917 3.84609069 16.75649917 0 0 Z " fill="#588CDE" transform="translate(265,168)"/>
<path d="M0 0 C0 0.99 0 1.98 0 3 C-0.474375 3.433125 -0.94875 3.86625 -1.4375 4.3125 C-3.62100982 6.6706906 -3.65266951 8.87402561 -4 12 C-5.32 12 -6.64 12 -8 12 C-8.061875 12.5775 -8.12375 13.155 -8.1875 13.75 C-9 16 -9 16 -11.25 17.625 C-15.20358652 21.03946108 -16.8881679 25.29106375 -19 30 C-19.66 30 -20.32 30 -21 30 C-16.37958852 17.85491841 -8.96427809 9.12619445 0 0 Z " fill="#DD6058" transform="translate(108,108)"/>
<path d="M0 0 C0.8046875 1.65625 0.8046875 1.65625 1 4 C-0.56758082 6.02653034 -2.06437675 7.71850206 -3.875 9.5 C-8.18801794 13.58025891 -8.18801794 13.58025891 -10 19 C-10.66 19 -11.32 19 -12 19 C-12.144375 19.61875 -12.28875 20.2375 -12.4375 20.875 C-13 23 -13 23 -14 25 C-14.66 25 -15.32 25 -16 25 C-14.19800292 15.99001459 -9.20010108 8.57919741 -2 3 C-1.34 2.01 -0.68 1.02 0 0 Z " fill="#F2C130" transform="translate(63,175)"/>
<path d="M0 0 C0 3 0 3 -1.375 4.6875 C-3 6 -3 6 -5 6 C-5.33 7.65 -5.66 9.3 -6 11 C-6.66 11 -7.32 11 -8 11 C-8 11.66 -8 12.32 -8 13 C-8.99 13.33 -9.98 13.66 -11 14 C-12.46293963 16.31869204 -12.46293963 16.31869204 -13.6875 19.0625 C-14.12449219 19.98160156 -14.56148438 20.90070313 -15.01171875 21.84765625 C-15.50091797 22.91306641 -15.50091797 22.91306641 -16 24 C-17.98 24 -19.96 24 -22 24 C-19.87277903 19.96947606 -17.60269024 17.74490685 -14 15 C-11.42566769 12.60954857 -9.31654258 10.55050884 -7.5625 7.5 C-5.50450757 4.20721211 -3.05860308 2.37891351 0 0 Z " fill="#826BA9" transform="translate(279,104)"/>
<path d="M0 0 C5.72907129 0.03430582 11.01265721 0.81231772 16.5625 2.1875 C16.5625 2.8475 16.5625 3.5075 16.5625 4.1875 C19.2025 4.1875 21.8425 4.1875 24.5625 4.1875 C25.0575 5.6725 25.0575 5.6725 25.5625 7.1875 C24.40234375 6.89875 23.2421875 6.61 22.046875 6.3125 C13.09340748 4.15532737 4.82642784 2.51120775 -4.4375 3.1875 C-5.55898437 3.26613281 -6.68046875 3.34476562 -7.8359375 3.42578125 C-10.70697876 3.64997678 -13.57190328 3.90297267 -16.4375 4.1875 C-16.4375 3.5275 -16.4375 2.8675 -16.4375 2.1875 C-15.72722656 2.12691406 -15.01695312 2.06632812 -14.28515625 2.00390625 C-12.90650391 1.87822266 -12.90650391 1.87822266 -11.5 1.75 C-10.58347656 1.66878906 -9.66695312 1.58757812 -8.72265625 1.50390625 C-5.46501513 1.05284825 -3.65269652 0.02326558 0 0 Z " fill="#DD574D" transform="translate(200.4375,122.8125)"/>
<path d="M0 0 C0.33 0 0.66 0 1 0 C1.23509196 4.81938524 0.45184478 8.46298506 -1 13 C-1.33 13 -1.66 13 -2 13 C-2.09507063 19.43311296 -2.15316726 25.65758005 -1 32 C-0.34 32 0.32 32 1 32 C1 32.99 1 33.98 1 35 C1.66 35 2.32 35 3 35 C3.33 36.98 3.66 38.96 4 41 C-2.46868262 34.83934988 -4.0119215 29.04787438 -4.3371582 20.22753906 C-4.47103619 12.78910563 -3.57226789 6.6342118 0 0 Z " fill="#FDF6CA" transform="translate(98,220)"/>
<path d="M0 0 C0.66 0 1.32 0 2 0 C1.75107354 3.36050723 0.86673436 4.11509305 -1.75 6.375 C-2.29011719 6.79523438 -2.83023438 7.21546875 -3.38671875 7.6484375 C-5.94505392 9.79174009 -7.90086531 12.41644961 -10 15 C-14.57446809 19.78723404 -14.57446809 19.78723404 -17 21 C-16.57742724 19.5164999 -16.13643678 18.03823576 -15.6875 16.5625 C-15.44386719 15.73878906 -15.20023438 14.91507813 -14.94921875 14.06640625 C-14.63597656 13.38449219 -14.32273438 12.70257813 -14 12 C-13.01 11.67 -12.02 11.34 -11 11 C-11 10.34 -11 9.68 -11 9 C-9.68 9 -8.36 9 -7 9 C-7 8.34 -7 7.68 -7 7 C-6.01 7 -5.02 7 -4 7 C-3.67 5.68 -3.34 4.36 -3 3 C-2.34 3 -1.68 3 -1 3 C-0.67 2.01 -0.34 1.02 0 0 Z " fill="#F6EBD3" transform="translate(75,160)"/>
<path d="M0 0 C2.875 0.0625 2.875 0.0625 6 1 C8.25 3.5 8.25 3.5 10 6 C10.66 6.33 11.32 6.66 12 7 C12.66 5.68 13.32 4.36 14 3 C14 6.3 14 9.6 14 13 C8.59417188 9.42383678 3.25144863 5.79892028 -2 2 C-1.34 1.34 -0.68 0.68 0 0 Z " fill="#F4DDD3" transform="translate(266,85)"/>
<path d="M0 0 C0.33 0.99 0.66 1.98 1 3 C0.01 3.33 -0.98 3.66 -2 4 C-2.33 4.66 -2.66 5.32 -3 6 C-4.62466982 6.71079305 -6.25373457 7.413056 -7.90234375 8.06640625 C-10.25653223 9.11417356 -12.36440126 10.40733732 -14.5625 11.75 C-17.77394936 13.59218414 -18.73041843 14.0141885 -22.5625 13.8125 C-23.366875 13.544375 -24.17125 13.27625 -25 13 C-22.70199553 10.70199553 -21.1952141 10.29585843 -18.125 9.3125 C-11.57741236 7.0316847 -5.8704683 3.64727175 0 0 Z " fill="#DBE4F6" transform="translate(323,314)"/>
<path d="M0 0 C-6.52002965 6.52002965 -19.026783 7.11264417 -27.75 7.125 C-29.16693603 7.09380958 -30.5838432 7.05639562 -32 7 C-32 6.67 -32 6.34 -32 6 C-26.73924562 4.53867934 -21.74072372 3.67085265 -16.296875 3.24609375 C-13.12696741 2.90646079 -10.48378548 2.21088085 -7.5625 0.9375 C-4.85755065 -0.05211562 -2.85458841 -0.16311934 0 0 Z " fill="#5B90E3" transform="translate(306,323)"/>
<path d="M0 0 C0.33 0.66 0.66 1.32 1 2 C0.443125 3.03125 -0.11375 4.0625 -0.6875 5.125 C-4.13687536 11.59107646 -5.38195358 18.90813696 -7 26 C-7.33 26 -7.66 26 -8 26 C-8.15314463 18.80220223 -8.28657983 10.57315965 -5 4 C-4.01 3.67 -3.02 3.34 -2 3 C-1.34 2.01 -0.68 1.02 0 0 Z " fill="#FDEFC6" transform="translate(47,196)"/>
<path d="M0 0 C-5.77284968 4.96409296 -11.52224829 9.07755344 -19 11 C-19.66 10.67 -20.32 10.34 -21 10 C-19.66666667 9 -18.33333333 8 -17 7 C-16.319375 6.443125 -15.63875 5.88625 -14.9375 5.3125 C-13 4 -13 4 -10 4 C-10 3.34 -10 2.68 -10 2 C-8.71211992 1.46987262 -7.41953322 0.9511671 -6.125 0.4375 C-5.40570313 0.14746094 -4.68640625 -0.14257812 -3.9453125 -0.44140625 C-2 -1 -2 -1 0 0 Z " fill="#FBB321" transform="translate(94,156)"/>
<path d="M0 0 C-1.79036458 0.9765625 -3.58072917 1.953125 -5.37109375 2.9296875 C-7.16618315 3.91410024 -7.16618315 3.91410024 -8 6 C-8.969375 6.12375 -9.93875 6.2475 -10.9375 6.375 C-12.4534375 6.684375 -12.4534375 6.684375 -14 7 C-15.25827123 8.84982472 -15.25827123 8.84982472 -16 11 C-17.625 12.75 -17.625 12.75 -19 14 C-19.66 13.67 -20.32 13.34 -21 13 C-20.360625 12.401875 -19.72125 11.80375 -19.0625 11.1875 C-16.79689611 9.09189663 -16.79689611 9.09189663 -16 6 C-13.9375 5.3125 -13.9375 5.3125 -12 5 C-12 4.34 -12 3.68 -12 3 C-10.75823305 2.29773859 -9.50614401 1.61370891 -8.25 0.9375 C-7.55390625 0.55464844 -6.8578125 0.17179688 -6.140625 -0.22265625 C-3.63859372 -1.1312406 -2.4667645 -0.88336837 0 0 Z " fill="#F3E7B5" transform="translate(120,206)"/>
<path d="M0 0 C2.97 0.33 5.94 0.66 9 1 C9 1.99 9 2.98 9 4 C9.7425 4.12375 10.485 4.2475 11.25 4.375 C13.80141485 4.95486701 15.7267573 5.73708739 18 7 C18 7.66 18 8.32 18 9 C20.08770553 10.11841368 21.85408801 10.9708176 24.1875 11.4375 C24.785625 11.623125 25.38375 11.80875 26 12 C26.33 12.99 26.66 13.98 27 15 C26.34 15 25.68 15 25 15 C25 14.34 25 13.68 25 13 C24.236875 13.061875 23.47375 13.12375 22.6875 13.1875 C20 13 20 13 18.1875 11.625 C17 10 17 10 17 8 C14.03 7.505 14.03 7.505 11 7 C11 6.34 11 5.68 11 5 C9.35 5 7.7 5 6 5 C6.33 4.01 6.66 3.02 7 2 C4.69 1.67 2.38 1.34 0 1 C0 0.67 0 0.34 0 0 Z " fill="#F0CD52" transform="translate(158,152)"/>
<path d="M0 0 C0 0.66 0 1.32 0 2 C2.97 2.33 5.94 2.66 9 3 C9 3.66 9 4.32 9 5 C8.03964844 4.84660156 7.07929688 4.69320312 6.08984375 4.53515625 C1.59396353 3.89288765 -2.90451572 3.66031389 -7.4375 3.4375 C-8.26443359 3.39431641 -9.09136719 3.35113281 -9.94335938 3.30664062 C-11.96209549 3.20161967 -13.98102951 3.10041441 -16 3 C-11.23513188 -0.17657874 -5.6216797 -0.17567749 0 0 Z " fill="#E34B22" transform="translate(138,144)"/>
<path d="M0 0 C2.475 0.495 2.475 0.495 5 1 C5.33 3.31 5.66 5.62 6 8 C6.66 8 7.32 8 8 8 C8.67756882 9.55780332 9.34159457 11.12150096 10 12.6875 C10.37125 13.55761719 10.7425 14.42773438 11.125 15.32421875 C12.01870488 18.0572002 12.16449676 20.14700934 12 23 C9.82196162 20.82196162 9.29334731 19.42255292 8.25 16.5625 C6.00886963 10.74744583 3.0829997 5.40552614 0 0 Z " fill="#D5E6FA" transform="translate(306,127)"/>
<path d="M0 0 C6.6 0 13.2 0 20 0 C20 0.66 20 1.32 20 2 C20.804375 2.268125 21.60875 2.53625 22.4375 2.8125 C23.283125 3.204375 24.12875 3.59625 25 4 C25.33 4.99 25.66 5.98 26 7 C23.26101056 5.92100416 20.66625762 4.82247746 18.0625 3.4375 C12.4561845 0.95970877 6.02880776 1.24249019 0 1 C0 0.67 0 0.34 0 0 Z " fill="#F5C747" transform="translate(124,203)"/>
<path d="M0 0 C0 0.33 0 0.66 0 1 C-3.14408784 1.51139597 -6.29048573 2.00696036 -9.4375 2.5 C-10.31599609 2.64308594 -11.19449219 2.78617187 -12.09960938 2.93359375 C-17.80671625 3.81809002 -23.22494572 4.14099827 -29 4 C-21.1559133 -1.22939113 -9.1448543 -0.30147871 0 0 Z " fill="#F9C3BA" transform="translate(208,125)"/>
<path d="M0 0 C4.50033498 2.38253028 7.58933975 5.27206903 11 9 C11 9.66 11 10.32 11 11 C9.02 11 7.04 11 5 11 C5 10.01 5 9.02 5 8 C3.68 7.67 2.36 7.34 1 7 C1 6.34 1 5.68 1 5 C1.66 5 2.32 5 3 5 C2.2575 4.319375 2.2575 4.319375 1.5 3.625 C0 2 0 2 0 0 Z " fill="#F2EED3" transform="translate(147,209)"/>
<path d="M0 0 C-0.33 1.32 -0.66 2.64 -1 4 C-0.34 4.33 0.32 4.66 1 5 C1 4.34 1 3.68 1 3 C1.66 3 2.32 3 3 3 C3 2.34 3 1.68 3 1 C3.66 1.33 4.32 1.66 5 2 C4.67 2.66 4.34 3.32 4 4 C3.34 4 2.68 4 2 4 C2 4.66 2 5.32 2 6 C1.34 6 0.68 6 0 6 C-0.33 6.66 -0.66 7.32 -1 8 C-3.31 6.02 -5.62 4.04 -8 2 C-4.77208445 -0.1519437 -3.71599191 -0.20086443 0 0 Z " fill="#E8C128" transform="translate(74,304)"/>
<path d="M0 0 C1.65 0 3.3 0 5 0 C5.33 0.99 5.66 1.98 6 3 C7.40105576 4.42857119 7.40105576 4.42857119 9.0625 5.6875 C10.031875 6.450625 11.00125 7.21375 12 8 C11.67 9.32 11.34 10.64 11 12 C9.2740862 10.2740862 7.5483833 8.54797434 5.82421875 6.8203125 C4.41316013 5.41227542 2.99023409 4.01612552 1.5625 2.625 C0 1 0 1 0 0 Z " fill="#FAE2BE" transform="translate(188,168)"/>
<path d="M0 0 C2.64 0.33 5.28 0.66 8 1 C8 1.66 8 2.32 8 3 C8.99 3.33 9.98 3.66 11 4 C11.33 5.65 11.66 7.3 12 9 C10.68 8.34 9.36 7.68 8 7 C8 6.34 8 5.68 8 5 C6.8553125 4.814375 6.8553125 4.814375 5.6875 4.625 C3 4 3 4 0 2 C0 1.34 0 0.68 0 0 Z " fill="#F4ECC7" transform="translate(176,159)"/>
<path d="M0 0 C0.99 1.0209375 0.99 1.0209375 2 2.0625 C4.97190839 5.06010213 8.18536092 7.74787019 11.42578125 10.44921875 C11.94527344 10.96097656 12.46476562 11.47273438 13 12 C13 12.66 13 13.32 13 14 C13.66 14.33 14.32 14.66 15 15 C12.03 14.505 12.03 14.505 9 14 C9 13.34 9 12.68 9 12 C8.01 11.67 7.02 11.34 6 11 C5.67 10.01 5.34 9.02 5 8 C4.01 7.67 3.02 7.34 2 7 C0.8125 3.4375 0.8125 3.4375 0 0 Z " fill="#FDF9CA" transform="translate(58,297)"/>
<path d="M0 0 C1.32 0 2.64 0 4 0 C4 0.66 4 1.32 4 2 C5.32 2.33 6.64 2.66 8 3 C8.33 2.01 8.66 1.02 9 0 C9.66 0.66 10.32 1.32 11 2 C9.38405168 4.04119788 7.7143618 6.04072937 6 8 C5.34 8 4.68 8 4 8 C2.68 5.36 1.36 2.72 0 0 Z " fill="#F1C632" transform="translate(156,216)"/>
<path d="M0 0 C1 2 1 2 0.5 3.9375 C-0.23602403 6.17665424 -0.23602403 6.17665424 1 9 C-0.98 9.99 -0.98 9.99 -3 11 C-3.99 10.34 -4.98 9.68 -6 9 C-6 8.01 -6 7.02 -6 6 C-5.34 6 -4.68 6 -4 6 C-4 5.34 -4 4.68 -4 4 C-3.34 4 -2.68 4 -2 4 C-1.34 2.68 -0.68 1.36 0 0 Z " fill="#54A74A" transform="translate(80,304)"/>
<path d="M0 0 C0.87840996 3.09720845 0.99435406 4.90645403 0 8 C-0.66 8 -1.32 8 -2 8 C-2.33 9.32 -2.66 10.64 -3 12 C-2.34 12 -1.68 12 -1 12 C-1 12.66 -1 13.32 -1 14 C-3.66666667 14 -6.33333333 14 -9 14 C-7.88625 12.7625 -7.88625 12.7625 -6.75 11.5 C-3.77547127 7.95768374 -1.94706468 4.18258338 0 0 Z " fill="#568AE6" transform="translate(303,250)"/>
<path d="M0 0 C-2 3 -2 3 -4.13671875 3.44140625 C-4.97847656 3.48136719 -5.82023438 3.52132812 -6.6875 3.5625 C-11.07967963 3.86848639 -14.82210666 4.63764348 -19 6 C-19.33 5.34 -19.66 4.68 -20 4 C-17.42032203 3.13310822 -14.83723873 2.28126211 -12.25 1.4375 C-11.52039063 1.19064453 -10.79078125 0.94378906 -10.0390625 0.68945312 C-9.33007812 0.46064453 -8.62109375 0.23183594 -7.890625 -0.00390625 C-6.91657715 -0.32597046 -6.91657715 -0.32597046 -5.92285156 -0.65454102 C-3.66555462 -1.06008636 -2.16526518 -0.69296911 0 0 Z " fill="#DC5C59" transform="translate(174,73)"/>
<path d="M0 0 C0 4.49170405 -2.12135264 6.984064 -5 10.3125 C-7 12 -7 12 -10 12 C-8.52278578 8.54798361 -6.56205999 6.35038064 -3.875 3.75 C-3.15054688 3.04359375 -2.42609375 2.3371875 -1.6796875 1.609375 C-1.12539062 1.07828125 -0.57109375 0.5471875 0 0 Z " fill="#FCEDC4" transform="translate(181,203)"/>
<path d="M0 0 C0.33 0 0.66 0 1 0 C1 7.26 1 14.52 1 22 C0.67 22 0.34 22 0 22 C-2.24817532 14.18326735 -1.76273292 7.89161968 0 0 Z " fill="#F6EBBA" transform="translate(37,234)"/>
<path d="M0 0 C0.66 0 1.32 0 2 0 C2 1.32 2 2.64 2 4 C2.66 4 3.32 4 4 4 C4.33 4.66 4.66 5.32 5 6 C7.02463255 6.65213292 7.02463255 6.65213292 9 7 C9 7.66 9 8.32 9 9 C8.34 9 7.68 9 7 9 C7.33 10.32 7.66 11.64 8 13 C5.20001116 11.97059234 4.17404918 11.32285048 2.734375 8.65234375 C2.40953125 7.75644531 2.0846875 6.86054688 1.75 5.9375 C1.41484375 5.03902344 1.0796875 4.14054688 0.734375 3.21484375 C0 1 0 1 0 0 Z " fill="#E7F4FE" transform="translate(319,153)"/>
<path d="M0 0 C2.83439137 -0.10901505 5.66450203 -0.18777904 8.5 -0.25 C9.29148438 -0.28351563 10.08296875 -0.31703125 10.8984375 -0.3515625 C16.99672294 -0.45153439 20.7317737 0.93089569 26 4 C26 4.33 26 4.66 26 5 C24.35 5 22.7 5 21 5 C21 4.34 21 3.68 21 3 C18.26750659 2.24722485 15.71899317 1.83358297 12.890625 1.68359375 C12.13652344 1.64169922 11.38242188 1.59980469 10.60546875 1.55664062 C9.43951172 1.49766602 9.43951172 1.49766602 8.25 1.4375 C7.06083984 1.37272461 7.06083984 1.37272461 5.84765625 1.30664062 C3.89862185 1.20097009 1.94933252 1.10002034 0 1 C0 0.67 0 0.34 0 0 Z " fill="#FDF4CA" transform="translate(120,204)"/>
<path d="M0 0 C1.62283808 3.24567617 0.54725234 6.63839624 0.0625 10.125 C-0.03740234 10.87910156 -0.13730469 11.63320312 -0.24023438 12.41015625 C-0.48798404 14.27417753 -0.74328057 16.13719288 -1 18 C-1.66 18 -2.32 18 -3 18 C-3.37634203 11.19796625 -2.77471079 6.24309927 0 0 Z " fill="#FEFBD9" transform="translate(38,222)"/>
<path d="M0 0 C0.8125 1.6875 0.8125 1.6875 1 4 C-1.18922363 6.62706835 -3.09532745 8.56058762 -6.1875 10.0625 C-8.52860931 11.27341861 -9.04071126 12.60177814 -10 15 C-10.66 14.01 -11.32 13.02 -12 12 C-11.34 12 -10.68 12 -10 12 C-9.34 10.68 -8.68 9.36 -8 8 C-7.01 8 -6.02 8 -5 8 C-4.731875 7.236875 -4.46375 6.47375 -4.1875 5.6875 C-3.05575888 3.12619116 -2.08776599 1.80307062 0 0 Z " fill="#6576CC" transform="translate(256,128)"/>
<path d="M0 0 C-2.84502097 1.89668064 -5.57299885 3.23263478 -8.6875 4.625 C-9.68136719 5.07101563 -10.67523438 5.51703125 -11.69921875 5.9765625 C-12.45847656 6.31429687 -13.21773437 6.65203125 -14 7 C-13.42655063 4.13275314 -13.1385485 3.1385485 -11 1 C-7.29306779 0.17623729 -3.79046256 -0.11148419 0 0 Z " fill="#DA4C47" transform="translate(176,129)"/>
<path d="M0 0 C0 0.99 0 1.98 0 3 C-0.7115625 3.6496875 -0.7115625 3.6496875 -1.4375 4.3125 C-3.62100982 6.6706906 -3.65266951 8.87402561 -4 12 C-5.65 12 -7.3 12 -9 12 C-7.54718935 6.67302761 -3.91888622 3.63597198 0 0 Z " fill="#DD524B" transform="translate(108,108)"/>
<path d="M0 0 C0.33 0 0.66 0 1 0 C1.23509196 4.81938524 0.45184478 8.46298506 -1 13 C-1.33 13 -1.66 13 -2 13 C-2.33 14.65 -2.66 16.3 -3 18 C-3.33 18 -3.66 18 -4 18 C-4.51137226 11.09647445 -2.86964374 6.25172386 0 0 Z " fill="#F4E8B9" transform="translate(98,220)"/>
<path d="M0 0 C1.1796875 1.609375 1.1796875 1.609375 2 4 C0.8828125 7.015625 0.8828125 7.015625 -0.875 10.25 C-1.44992188 11.32765625 -2.02484375 12.4053125 -2.6171875 13.515625 C-3.07351562 14.33546875 -3.52984375 15.1553125 -4 16 C-5.16161779 13.13421241 -4.9946154 11.98369837 -4.00390625 8.984375 C-3.52824219 7.91703125 -3.05257812 6.8496875 -2.5625 5.75 C-2.08941406 4.67234375 -1.61632813 3.5946875 -1.12890625 2.484375 C-0.75636719 1.66453125 -0.38382813 0.8446875 0 0 Z " fill="#F0C12D" transform="translate(46,200)"/>
<path d="M0 0 C1.50433594 0.01353516 1.50433594 0.01353516 3.0390625 0.02734375 C3.80992188 0.03894531 4.58078125 0.05054688 5.375 0.0625 C5.375 0.3925 5.375 0.7225 5.375 1.0625 C2.79342632 1.59382389 0.21038244 2.11284379 -2.375 2.625 C-3.46941406 2.85219727 -3.46941406 2.85219727 -4.5859375 3.08398438 C-8.29057073 3.80807178 -11.01822322 4.16067231 -14.625 3.0625 C-14.625 2.4025 -14.625 1.7425 -14.625 1.0625 C-13.51125 1.083125 -12.3975 1.10375 -11.25 1.125 C-7.25449357 1.05611196 -4.10145076 -0.04769129 0 0 Z " fill="#E05219" transform="translate(114.625,146.9375)"/>
<path d="M0 0 C1.32 0 2.64 0 4 0 C4 0.66 4 1.32 4 2 C5.0725 2.144375 6.145 2.28875 7.25 2.4375 C9.91662949 2.83749442 12.41399729 3.27591924 15 4 C14.01 5.485 14.01 5.485 13 7 C7.92990529 6.52467862 4.02506742 3.95637706 0 1 C0 0.67 0 0.34 0 0 Z " fill="#D45754" transform="translate(233,133)"/>
<path d="M0 0 C5.98511371 0.34302035 10.75117306 0.82307843 16 4 C12.870251 5.00599075 11.12864728 4.87418086 8 4 C7.29359375 3.82339844 6.5871875 3.64679688 5.859375 3.46484375 C3.90625 2.9765625 1.953125 2.48828125 0 2 C0 1.34 0 0.68 0 0 Z " fill="#CEE2FC" transform="translate(272,204)"/>
<path d="M0 0 C-4.13312472 3.24745514 -6.63932628 5 -12 5 C-12 5.66 -12 6.32 -12 7 C-13.32 7.33 -14.64 7.66 -16 8 C-16 7.34 -16 6.68 -16 6 C-15.01 6 -14.02 6 -13 6 C-13 5.34 -13 4.68 -13 4 C-12.34 4 -11.68 4 -11 4 C-11 3.34 -11 2.68 -11 2 C-7.17679443 0.57741188 -4.08718695 -0.24042276 0 0 Z " fill="#E35B1F" transform="translate(96,153)"/>
<path d="M0 0 C3.42717768 1.38530129 4.7293493 2.67477227 6.3125 6 C6.65925781 6.70125 7.00601562 7.4025 7.36328125 8.125 C7.67845703 9.053125 7.67845703 9.053125 8 10 C7.67 10.66 7.34 11.32 7 12 C6.7525 11.21625 6.505 10.4325 6.25 9.625 C4.79075497 6.56058543 3.94985044 6.38274239 1 5 C-0.25 2.875 -0.25 2.875 -1 1 C-0.67 0.67 -0.34 0.34 0 0 Z " fill="#D4E3FA" transform="translate(290,104)"/>
<path d="M0 0 C3 1 3 1 4.6875 4.0625 C5.120625 5.031875 5.55375 6.00125 6 7 C2.37 6.01 -1.26 5.02 -5 4 C-2.6875 1.9375 -2.6875 1.9375 0 0 Z " fill="#F7E0DB" transform="translate(241,71)"/>
<path d="M0 0 C1.14816394 2.81822057 1.05652601 3.85369738 -0.0625 6.75 C-2 9 -2 9 -5.1875 9.3125 C-6.115625 9.209375 -7.04375 9.10625 -8 9 C-7.04270084 7.87411986 -6.08412105 6.7493285 -5.125 5.625 C-4.59132812 4.99851563 -4.05765625 4.37203125 -3.5078125 3.7265625 C-2.38567993 2.44163349 -1.20628025 1.20628025 0 0 Z " fill="#F7E9C3" transform="translate(168,216)"/>
<path d="M0 0 C0 3.11227195 -0.45627049 5.94152152 -1 9 C-2.65 9 -4.3 9 -6 9 C-6 6 -6 6 -4.6875 4.39453125 C-4.130625 3.87246094 -3.57375 3.35039062 -3 2.8125 C-2.443125 2.28269531 -1.88625 1.75289062 -1.3125 1.20703125 C-0.6628125 0.60955078 -0.6628125 0.60955078 0 0 Z " fill="#FCF0C6" transform="translate(193,191)"/>
<path d="M0 0 C0.66 0.99 1.32 1.98 2 3 C1.34 3.66 0.68 4.32 0 5 C-0.70710678 6.64991582 -1.37943989 8.31562256 -2 10 C-3.32 9.67 -4.64 9.34 -6 9 C-4.02 6.03 -2.04 3.06 0 0 Z " fill="#D5E7F9" transform="translate(349,286)"/>
<path d="M0 0 C0.33 0.66 0.66 1.32 1 2 C-0.89404734 5.34243648 -1.94091591 5.97997149 -5.6875 7.25 C-7.3271875 7.62125 -7.3271875 7.62125 -9 8 C-9.33 7.34 -9.66 6.68 -10 6 C-9.36191406 5.65066406 -8.72382813 5.30132812 -8.06640625 4.94140625 C-7.24011719 4.48636719 -6.41382813 4.03132813 -5.5625 3.5625 C-4.73878906 3.11003906 -3.91507812 2.65757812 -3.06640625 2.19140625 C-1.07691202 1.16337603 -1.07691202 1.16337603 0 0 Z " fill="#618EEB" transform="translate(293,265)"/>
<path d="M0 0 C0.33 0 0.66 0 1 0 C0.67 5.61 0.34 11.22 0 17 C-0.99 17 -1.98 17 -3 17 C-2.01 11.39 -1.02 5.78 0 0 Z " fill="#CCE3FB" transform="translate(361,251)"/>
<path d="M0 0 C0.66 0.33 1.32 0.66 2 1 C1.113125 1.721875 0.22625 2.44375 -0.6875 3.1875 C-3.63741207 5.63992096 -6.32793794 8.24934788 -9 11 C-8.690625 10.4225 -8.38125 9.845 -8.0625 9.25 C-6.90204471 7.09858497 -6.90204471 7.09858497 -6.75 4.9375 C-6 3 -6 3 -3.0625 1.1875 C-2.051875 0.795625 -1.04125 0.40375 0 0 Z " fill="#F1E698" transform="translate(67,170)"/>
<path d="M0 0 C0.66 0.33 1.32 0.66 2 1 C0.68 4.63 -0.64 8.26 -2 12 C-2.33 12 -2.66 12 -3 12 C-3 8.37 -3 4.74 -3 1 C-2.01 0.67 -1.02 0.34 0 0 Z " fill="#F5D1D1" transform="translate(83,141)"/>
<path d="M0 0 C-0.33 0.99 -0.66 1.98 -1 3 C-1.66 3 -2.32 3 -3 3 C-3 3.99 -3 4.98 -3 6 C-4.98 6 -6.96 6 -9 6 C-3.15384615 0 -3.15384615 0 0 0 Z " fill="#FCDCDD" transform="translate(167,134)"/>
<path d="M0 0 C0.66 0 1.32 0 2 0 C2 0.66 2 1.32 2 2 C2.66 2 3.32 2 4 2 C6.29612756 11.41002278 6.29612756 11.41002278 6 16 C4.21801523 12.69289314 3.03842935 9.31785001 1.875 5.75 C1.52179688 4.67234375 1.16859375 3.5946875 0.8046875 2.484375 C0.53914063 1.66453125 0.27359375 0.8446875 0 0 Z " fill="#CEE1F9" transform="translate(354,200)"/>
<path d="M0 0 C0.33 0.99 0.66 1.98 1 3 C0.01 3.66 -0.98 4.32 -2 5 C-2 5.66 -2 6.32 -2 7 C-3.875 7.625 -3.875 7.625 -6 8 C-6.66 7.34 -7.32 6.68 -8 6 C-5.36 4.02 -2.72 2.04 0 0 Z " fill="#E55B50" transform="translate(126,92)"/>
<path d="M0 0 C1.81612488 0.95144598 3.62781081 1.91136933 5.4375 2.875 C6.44683594 3.40867187 7.45617187 3.94234375 8.49609375 4.4921875 C11 6 11 6 12 8 C10.9275 7.690625 9.855 7.38125 8.75 7.0625 C6.17133778 6.33187904 3.60487898 5.62517096 1 5 C0.67 3.35 0.34 1.7 0 0 Z " fill="#D7584C" transform="translate(264,87)"/>
<path d="M0 0 C0 3.70411834 -0.75301769 5.078923 -3 8 C-6.1875 9.3125 -6.1875 9.3125 -9 10 C-8.06409496 8.8944811 -7.12620142 7.79064547 -6.1875 6.6875 C-5.66542969 6.07261719 -5.14335938 5.45773437 -4.60546875 4.82421875 C-3.12827531 3.14575321 -1.59960869 1.56117966 0 0 Z " fill="#6CAD33" transform="translate(103,281)"/>
<path d="M0 0 C2.91227269 3.28804981 4.49701212 5.59885603 5 10 C4.01 10.495 4.01 10.495 3 11 C0 4.5 0 4.5 0 0 Z " fill="#CFE6F8" transform="translate(260,160)"/>
<path d="M0 0 C3 3 6 6 9 9 C8.34 9.66 7.68 10.32 7 11 C6.54625 10.525625 6.0925 10.05125 5.625 9.5625 C4.06741796 7.90972192 4.06741796 7.90972192 2 7 C1.26924352 4.6859378 0.59861742 2.35171131 0 0 Z " fill="#5D96EB" transform="translate(287,104)"/>
<path d="M0 0 C-0.78375 0.2475 -1.5675 0.495 -2.375 0.75 C-5.32317108 2.15389099 -5.9024777 3.00675737 -7 6 C-8.32 5.34 -9.64 4.68 -11 4 C-3.77464789 -1.88732394 -3.77464789 -1.88732394 0 0 Z " fill="#DD5B55" transform="translate(154,79)"/>
<path d="M0 0 C0.66 0 1.32 0 2 0 C2 0.99 2 1.98 2 3 C2.66 3 3.32 3 4 3 C4.33 5.97 4.66 8.94 5 12 C1.66226291 8.35883227 1.02135098 4.71392758 0 0 Z " fill="#EBC33B" transform="translate(41,264)"/>
<path d="M0 0 C2.34914492 2.34914492 2.73140357 3.95679446 3.625 7.125 C3.88539063 8.03507813 4.14578125 8.94515625 4.4140625 9.8828125 C4.70410156 10.93082031 4.70410156 10.93082031 5 12 C4.01 12.495 4.01 12.495 3 13 C3 11.68 3 10.36 3 9 C2.34 9 1.68 9 1 9 C0.63877119 7.68942607 0.28619689 6.37646376 -0.0625 5.0625 C-0.35833984 3.96615234 -0.35833984 3.96615234 -0.66015625 2.84765625 C-0.77230469 2.23792969 -0.88445312 1.62820312 -1 1 C-0.67 0.67 -0.34 0.34 0 0 Z " fill="#5791E3" transform="translate(314,142)"/>
<path d="M0 0 C2.672336 3.56311466 3.77263971 5.84585747 5 10 C3.68 10 2.36 10 1 10 C0.67 6.7 0.34 3.4 0 0 Z " fill="#F6E9BE" transform="translate(42,270)"/>
<path d="M0 0 C2 4 4 8 6 12 C5.01 12 4.02 12 3 12 C2.67 10.68 2.34 9.36 2 8 C1.34 8 0.68 8 0 8 C0 5.36 0 2.72 0 0 Z " fill="#6392DF" transform="translate(319,154)"/>
<path d="M0 0 C4.61513112 1.31860889 8.09897612 3.21355437 12 6 C11.01 6.495 11.01 6.495 10 7 C7.96587579 6.07137808 5.96752828 5.06246527 4 4 C3.21625 3.608125 2.4325 3.21625 1.625 2.8125 C1.08875 2.544375 0.5525 2.27625 0 2 C0 1.34 0 0.68 0 0 Z " fill="#FCD1D4" transform="translate(229,132)"/>
<path d="M0 0 C0.33 0.99 0.66 1.98 1 3 C-5.15234375 2.4140625 -5.15234375 2.4140625 -7 2 C-7.33 1.34 -7.66 0.68 -8 0 C-5.13822943 -1.43088528 -3.06624227 -0.59991697 0 0 Z " fill="#EEE5E7" transform="translate(272,86)"/>
<path d="M0 0 C4.32409846 1.74627053 7.19409895 3.14557422 11 6 C7.7 5.34 4.4 4.68 1 4 C0.67 2.68 0.34 1.36 0 0 Z " fill="#D95349" transform="translate(251,80)"/>
<path d="M0 0 C0.33 0.99 0.66 1.98 1 3 C1.66 3 2.32 3 3 3 C3 3.66 3 4.32 3 5 C2.34 5 1.68 5 1 5 C0.34 6.65 -0.32 8.3 -1 10 C-2.46726798 6.18510326 -1.43336419 3.70988378 0 0 Z " fill="#E0634B" transform="translate(79,154)"/>
<path d="M0 0 C0.66 0 1.32 0 2 0 C2.1875 2.875 2.1875 2.875 2 6 C1.01 6.66 0.02 7.32 -1 8 C-1.125 2.25 -1.125 2.25 0 0 Z " fill="#FAFCFD" transform="translate(358,268)"/>
<path d="M0 0 C4.8 3.44615385 4.8 3.44615385 5.8125 6.25 C5.874375 6.8275 5.93625 7.405 6 8 C5.01 8.495 5.01 8.495 4 9 C3.67 8.01 3.34 7.02 3 6 C2.34 6 1.68 6 1 6 C0.67 4.02 0.34 2.04 0 0 Z " fill="#F1C22C" transform="translate(195,176)"/>
<path d="M0 0 C2.29633824 3.44450737 2.54016485 5.93812283 3 10 C2.67 9.34 2.34 8.68 2 8 C1.01 8 0.02 8 -1 8 C-0.67 5.36 -0.34 2.72 0 0 Z " fill="#D0E1F7" transform="translate(265,170)"/>
<path d="M0 0 C0.33 0.66 0.66 1.32 1 2 C0 5 0 5 -2.4375 6.75 C-3.7059375 7.36875 -3.7059375 7.36875 -5 8 C-5.66 7.67 -6.32 7.34 -7 7 C-2.25 1.125 -2.25 1.125 0 0 Z " fill="#F0BD2A" transform="translate(72,167)"/>
<path d="M0 0 C2.64 1.98 5.28 3.96 8 6 C7.01 6.495 7.01 6.495 6 7 C6 7.66 6 8.32 6 9 C5.34 8.67 4.68 8.34 4 8 C4 6.68 4 5.36 4 4 C3.01 4 2.02 4 1 4 C0.67 2.68 0.34 1.36 0 0 Z " fill="#C65F5B" transform="translate(276,95)"/>
<path d="M0 0 C0.33 0.99 0.66 1.98 1 3 C0.01 3.33 -0.98 3.66 -2 4 C-2.33 4.66 -2.66 5.32 -3 6 C-4.32 6 -5.64 6 -7 6 C-7 5.34 -7 4.68 -7 4 C-4.69 2.68 -2.38 1.36 0 0 Z " fill="#E0EEFD" transform="translate(323,314)"/>
<path d="M0 0 C0.98120464 3.05263664 0.98120464 4.94736336 0 8 C-0.66 8 -1.32 8 -2 8 C-2 8.66 -2 9.32 -2 10 C-2.66 10 -3.32 10 -4 10 C-2.66666667 6.66666667 -1.33333333 3.33333333 0 0 Z " fill="#6796E8" transform="translate(303,250)"/>
<path d="M0 0 C2.97 0 5.94 0 9 0 C9 1.32 9 2.64 9 4 C6.03 3.01 3.06 2.02 0 1 C0 0.67 0 0.34 0 0 Z " fill="#F5ECCD" transform="translate(167,155)"/>
<path d="M0 0 C-1.75 3.875 -1.75 3.875 -4 5 C-6.125 4.0625 -6.125 4.0625 -8 3 C-2.25 0 -2.25 0 0 0 Z " fill="#FCD8D2" transform="translate(175,130)"/>
<path d="M0 0 C0.66 0.99 1.32 1.98 2 3 C1.01 3.33 0.02 3.66 -1 4 C-1.73323796 6.01508358 -1.73323796 6.01508358 -2 8 C-2.66 7.01 -3.32 6.02 -4 5 C-2.68 3.35 -1.36 1.7 0 0 Z " fill="#D9E9F8" transform="translate(342,296)"/>
<path d="M0 0 C0.66 0 1.32 0 2 0 C2 0.66 2 1.32 2 2 C3.32 2.33 4.64 2.66 6 3 C6.33 4.65 6.66 6.3 7 8 C1.125 3.375 1.125 3.375 0 0 Z " fill="#EDC42E" transform="translate(59,297)"/>
<path d="M0 0 C0.99 0 1.98 0 3 0 C3 0.99 3 1.98 3 3 C2.0409375 3.433125 2.0409375 3.433125 1.0625 3.875 C-1.15206079 4.82823451 -1.15206079 4.82823451 -2 7 C-2.99 6.67 -3.98 6.34 -5 6 C-4.34 6 -3.68 6 -3 6 C-2.690625 5.38125 -2.38125 4.7625 -2.0625 4.125 C-1.375 2.75 -0.6875 1.375 0 0 Z " fill="#F4EEE7" transform="translate(106,213)"/>
<path d="M0 0 C0.33 0 0.66 0 1 0 C1.20086443 3.71599191 1.1519437 4.77208445 -1 8 C-1.66 8 -2.32 8 -3 8 C-1.125 1.125 -1.125 1.125 0 0 Z " fill="#EAC833" transform="translate(50,192)"/>
<path d="M0 0 C3.08089673 2.77280706 4.68775452 5.06326356 6 9 C3 8 3 8 1.3125 5.0625 C0 2 0 2 0 0 Z " fill="#CFE2FA" transform="translate(254,151)"/>
<path d="M0 0 C1.65 0 3.3 0 5 0 C4.67 1.98 4.34 3.96 4 6 C2.62437146 4.71034824 1.29233607 3.37310707 0 2 C0 1.34 0 0.68 0 0 Z " fill="#DEE7F7" transform="translate(302,120)"/>
<path d="M0 0 C1.32 0.66 2.64 1.32 4 2 C1.69 3.32 -0.62 4.64 -3 6 C-3.33 4.68 -3.66 3.36 -4 2 C-2.68 2.33 -1.36 2.66 0 3 C0 2.01 0 1.02 0 0 Z " fill="#FBE8E0" transform="translate(124,90)"/>
<path d="M0 0 C0.66 0.33 1.32 0.66 2 1 C1.34 2.32 0.68 3.64 0 5 C-1.65 5 -3.3 5 -5 5 C-3.35 3.35 -1.7 1.7 0 0 Z " fill="#CFE5F8" transform="translate(329,309)"/>
<path d="M0 0 C2.64752004 2.57784846 4.94432065 4.91648098 7 8 C5.35 7.67 3.7 7.34 2 7 C1.34 4.69 0.68 2.38 0 0 Z " fill="#FDF3BC" transform="translate(58,297)"/>
<path d="M0 0 C4 2 4 2 6 5 C5.67 6.32 5.34 7.64 5 9 C3.35 6.03 1.7 3.06 0 0 Z " fill="#D5EDFD" transform="translate(345,185)"/>
<path d="M0 0 C0.66 0 1.32 0 2 0 C2 1.32 2 2.64 2 4 C2.66 4 3.32 4 4 4 C4.33 5.65 4.66 7.3 5 9 C4.34 9 3.68 9 3 9 C2.01 6.03 1.02 3.06 0 0 Z " fill="#E0E9FC" transform="translate(319,153)"/>
<path d="M0 0 C2.97 0.99 5.94 1.98 9 3 C8.67 3.66 8.34 4.32 8 5 C4.35446828 3.7191375 2.83328987 2.83328987 0 0 Z " fill="#F4C3CD" transform="translate(220,128)"/>
<path d="M0 0 C0.33 1.32 0.66 2.64 1 4 C-0.98 4.66 -2.96 5.32 -5 6 C-4.34 4.68 -3.68 3.36 -3 2 C-2.01 2 -1.02 2 0 2 C0 1.34 0 0.68 0 0 Z " fill="#527DE4" transform="translate(271,115)"/>
<path d="M0 0 C2.9375 0.8125 2.9375 0.8125 6 2 C6.33 2.99 6.66 3.98 7 5 C1.25 3.25 1.25 3.25 -1 1 C-0.67 0.67 -0.34 0.34 0 0 Z " fill="#FDD6CF" transform="translate(257,81)"/>
<path d="M0 0 C0.86625 0.3403125 0.86625 0.3403125 1.75 0.6875 C0.76 2.1725 0.76 2.1725 -0.25 3.6875 C-3.22 3.1925 -3.22 3.1925 -6.25 2.6875 C-2.80384615 -0.38942308 -2.80384615 -0.38942308 0 0 Z " fill="#DD5647" transform="translate(172.25,72.3125)"/>
</svg>
