<?xml version="1.0" encoding="UTF-8"?>
<svg version="1.1" xmlns="http://www.w3.org/2000/svg" width="1200" height="1200">
<path d="M0 0 C6.64241116 5.60964645 12.84340868 11.69684566 18.98278904 17.84577465 C20.25726729 19.11627516 20.25726729 19.11627516 21.55749258 20.41244236 C23.89563511 22.74428689 26.23158285 25.0783033 28.56657483 27.41330183 C31.11496986 29.96061801 33.66622317 32.50506899 36.21708959 35.04990989 C41.26694662 40.08874638 46.31413657 45.13024648 51.36048505 50.17259647 C57.40868724 56.21576964 63.45973666 62.25608893 69.51078366 68.29641334 C84.82375617 83.58260596 100.13088683 98.87464355 115.43720761 114.16749617 C119.58401354 118.3106287 123.73098395 122.45359656 127.87799144 126.59652734 C153.63747202 152.33075173 179.3953443 178.06658478 205.14841557 203.80722332 C211.10844152 209.76432817 217.0684907 215.72140977 223.02856445 221.6784668 C223.76899042 222.41852185 224.50941639 223.15857691 225.2722795 223.92105788 C249.28839834 247.92501632 273.31389723 271.91955808 297.34476728 295.9087481 C322.0655572 320.58673962 346.77824658 345.27281233 371.48026317 369.96959621 C374.96971958 373.45831221 378.4592611 376.94694306 381.94885063 380.43552589 C382.63558776 381.12207241 383.32232489 381.80861892 384.02987223 382.51596988 C395.07293785 393.55552466 406.1243672 404.58666972 417.17888091 415.61475953 C428.29058297 426.70030098 439.39303045 437.79504395 450.4861756 448.89915552 C457.07289177 455.49184161 463.66643733 462.07751813 470.27009066 468.65323974 C474.68558586 473.05144085 479.09185946 477.45874117 483.49089145 481.87340821 C485.99414198 484.38504222 488.50105712 486.89266862 491.01933635 489.38924166 C510.3143442 508.54813118 524.6958049 527.09536623 525.375 555.5625 C524.6736127 584.80730111 508.98591385 602.63870723 489.37706293 622.14300865 C486.79345138 624.717299 484.22154389 627.30324212 481.6480605 629.88765025 C477.14470776 634.40692786 472.63403045 638.91878754 468.11835861 643.42575455 C461.4032233 650.12798006 454.69959881 656.8416325 447.9981116 663.55750111 C436.02649822 675.55401364 424.0434213 687.53902305 412.0553009 699.5190377 C401.56385232 710.00340735 391.07592821 720.49128613 380.59151268 730.9826889 C379.18391647 732.39119645 377.77631997 733.79970372 376.36872318 735.20821069 C374.24749195 737.33082509 372.12626468 739.45344345 370.00504781 741.57607219 C350.29073075 761.30336517 330.57249085 781.0267302 310.84586811 800.74171829 C310.10265374 801.48449469 309.35943937 802.22727109 308.59370336 802.99255586 C302.55864291 809.02400966 296.52346839 815.05534931 290.4882866 821.08668169 C266.94569644 844.6144234 243.41495131 868.15395212 219.89379883 891.703125 C193.45348579 918.1748759 167.00494952 944.63836924 140.54381531 971.0893085 C137.72171114 973.91037593 134.89963172 976.73146812 132.07756615 979.55257416 C131.38272073 980.24717069 130.68787531 980.94176722 129.97197397 981.65741213 C119.49062966 992.13531873 109.01566677 1002.6195764 98.54387856 1013.10703278 C86.63362989 1025.0350611 74.71458076 1036.95421512 62.78382573 1048.86173394 C56.11122676 1055.5218465 49.44555926 1062.18872081 42.78978874 1068.8656518 C38.33826899 1073.32992806 33.87765721 1077.78498206 29.40967448 1082.23278125 C26.86761763 1084.76385725 24.3295487 1087.2985884 21.80248729 1089.84464374 C-2.86334081 1114.68280569 -2.86334081 1114.68280569 -19.4375 1119.5 C-20.17419922 1119.7371875 -20.91089844 1119.974375 -21.66992188 1120.21875 C-39.93308566 1125.92295022 -60.03402902 1123.59983102 -77 1115 C-88.59197642 1108.61323613 -97.7094712 1099.44326045 -106.98837566 1090.1430521 C-107.83862703 1089.29485337 -108.68887839 1088.44665464 -109.56489494 1087.57275292 C-111.90471668 1085.23758058 -114.24232254 1082.90023116 -116.57897755 1080.56189272 C-119.12912994 1078.01100343 -121.68216939 1075.46300618 -124.234824 1072.91462129 C-129.28813504 1067.86885758 -134.3387818 1062.82043488 -139.38859928 1057.77117507 C-145.44081222 1051.71987896 -151.4959027 1045.67146523 -157.5510328 1039.62308838 C-172.17881453 1025.01133261 -186.80154927 1010.39453039 -201.42371495 995.77715497 C-208.34226108 988.86094724 -215.26143921 981.94537192 -222.18069307 975.02987223 C-245.87305619 951.35033882 -269.56436528 927.6697516 -293.25203991 903.98552799 C-294.73765424 902.50013529 -296.22326864 901.01474267 -297.70888313 899.52935013 C-299.19802955 898.04042434 -300.68717589 896.55149848 -302.17632216 895.06257254 C-305.16368868 892.07564857 -308.15105748 889.08872688 -311.13842773 886.10180664 C-311.87911522 885.36122855 -312.6198027 884.62065045 -313.38293526 883.8576306 C-337.41575426 859.82844463 -361.45471536 835.80541583 -385.49736173 811.78606301 C-410.92717668 786.38084051 -436.3515527 760.97018767 -461.76967221 735.5532636 C-464.5592965 732.76381077 -467.34894278 729.97437992 -470.13860512 727.18496513 C-470.82547709 726.49814893 -471.51234907 725.81133272 -472.22003534 725.1037039 C-483.27366431 714.05122557 -494.33222147 703.00369091 -505.39254497 691.95791233 C-516.50501281 680.85980576 -527.61191145 669.75614983 -538.71317836 658.64683897 C-545.30792455 652.04763559 -551.90679996 645.45262548 -558.51168574 638.86357009 C-562.92443024 634.46057453 -567.33168964 630.05213875 -571.73455507 625.63926453 C-574.24231218 623.12611505 -576.75234973 620.61536903 -579.26910271 618.11122561 C-581.98395646 615.40986056 -584.68704235 612.69690896 -587.38914776 609.98278904 C-588.16686422 609.21266777 -588.94458068 608.44254651 -589.7458643 607.64908823 C-604.96035575 592.28814415 -613.26134468 573.12072471 -613.2487793 551.45800781 C-612.83840713 525.37132848 -599.45630082 507.81454778 -581.82017517 490.3391571 C-580.38849842 488.90573284 -578.95770234 487.47142853 -577.5277043 486.03632957 C-573.62341662 482.12315377 -569.70686237 478.22246631 -565.78807795 474.32381546 C-561.55392655 470.1070139 -557.33141924 465.87857974 -553.10745239 461.65158081 C-545.79677097 454.33880678 -538.47889688 447.03329196 -531.15583611 439.73291588 C-523.48037078 432.08116572 -515.8090983 424.42525133 -508.14331245 416.76380348 C-507.66564147 416.28640746 -507.18797049 415.80901143 -506.69582463 415.31714886 C-504.26973097 412.89240865 -501.84371127 410.46759445 -499.41772003 408.04275177 C-482.26019189 390.89361233 -465.09342016 373.75375378 -447.92114258 356.61938477 C-431.2445546 339.9795685 -414.5721987 323.33553038 -397.90551758 306.68579102 C-397.39125202 306.17205157 -396.87698647 305.65831212 -396.34713711 305.12900481 C-391.18240282 299.96954486 -386.01775405 294.80999931 -380.85316792 289.65039106 C-370.33348002 279.14084643 -359.81322159 268.631873 -349.2926178 258.12324524 C-348.56713069 257.39858188 -348.56713069 257.39858188 -347.82698729 256.65927885 C-315.56088508 224.42994328 -283.28144695 192.21396522 -251 160 C-246.65981121 163.64405958 -242.49703618 167.37860657 -238.48866272 171.39108276 C-237.98040481 171.89848625 -237.47214689 172.40588974 -236.94848722 172.9286691 C-235.26804958 174.60747664 -233.59118053 176.28980138 -231.91430664 177.97216797 C-230.70168185 179.18507519 -229.48883611 180.39776154 -228.27578735 181.61024475 C-224.99927058 184.88647574 -221.7258366 188.16577105 -218.45296407 191.44564199 C-215.02614029 194.87873577 -211.59646639 198.30897989 -208.167099 201.73953247 C-201.68065952 208.22907454 -195.19677243 214.72116052 -188.71380752 221.21417344 C-181.33003605 228.6091394 -173.94340987 236.00125107 -166.55654728 243.39312911 C-151.36786194 258.59225455 -136.18274967 273.79494544 -121 289 C-121.20555008 289.67981934 -121.41110016 290.35963867 -121.62287903 291.06005859 C-121.89275131 291.95547363 -122.1626236 292.85088867 -122.44067383 293.7734375 C-122.70809891 294.65950684 -122.97552399 295.54557617 -123.25105286 296.45849609 C-130.30439345 320.39355324 -127.64137741 343.49561252 -116.1875 365.6875 C-106.16579583 383.28285847 -91.83590405 394.08204797 -74 403 C-74 506.62 -74 610.24 -74 717 C-78.95 719.64 -83.9 722.28 -89 725 C-100.12872989 732.76082479 -109.39276493 742.10350851 -116 754 C-116.46019531 754.82242188 -116.92039062 755.64484375 -117.39453125 756.4921875 C-128.13065018 776.7967508 -130.00270511 799.8638901 -123.68896484 821.81396484 C-120.25613726 832.70607617 -115.31275025 842.18369363 -108 851 C-107.30003906 851.86238281 -106.60007812 852.72476563 -105.87890625 853.61328125 C-92.93353901 868.82004954 -72.8645668 879.46709184 -53 882 C-26.11052273 883.60879598 -3.57167649 877.8012788 17 860 C17.67289063 859.42765625 18.34578125 858.8553125 19.0390625 858.265625 C33.95514448 844.50741239 43.42613216 822.47460826 44.23828125 802.41796875 C44.71823828 779.95468855 39.48751071 759.61006157 25 742 C24.40832031 741.23429688 23.81664062 740.46859375 23.20703125 739.6796875 C17.21955438 732.35173073 8.69538821 725.43264022 -0.06986427 721.68878555 C-3.43426207 718.60150734 -3.46360166 718.01921816 -3.73828697 713.6664238 C-3.76360333 711.36114247 -3.75525351 709.05535673 -3.7215271 706.75018311 C-3.72665365 705.48086417 -3.7317802 704.21154524 -3.7370621 702.9037621 C-3.75049615 699.37790166 -3.726457 695.85313209 -3.69639373 692.3274107 C-3.67051473 688.52649129 -3.6792489 684.72563481 -3.68380737 680.9246521 C-3.68695554 674.33840067 -3.66810968 667.7525055 -3.63438034 661.16634369 C-3.58564524 651.64388939 -3.56999449 642.12160759 -3.56245239 632.59904209 C-3.5493163 617.14991474 -3.50937502 601.70097733 -3.45263672 586.25195312 C-3.39757373 571.24349926 -3.35509774 556.23509696 -3.32958984 541.2265625 C-3.3280135 540.30164476 -3.32643716 539.37672703 -3.32481305 538.42378148 C-3.3169829 533.78380226 -3.30940064 529.14382267 -3.30194163 524.50384283 C-3.23972784 486.00242889 -3.1340372 447.50122697 -3 409 C1.15384992 412.50325032 5.19295752 416.06227334 9.06922913 419.87495422 C9.52989554 420.32700499 9.99056196 420.77905576 10.46518797 421.24480504 C11.98432159 422.73687238 13.50015566 424.23224224 15.01586914 425.7277832 C16.11360899 426.80776954 17.21147208 427.88763062 18.30944824 428.96737671 C28.26557662 438.76547186 38.18557591 448.60034404 48.09635258 458.4442873 C55.41641076 465.71397235 62.75386162 472.96515146 70.11446863 480.19378215 C75.29880516 485.28826558 80.46203439 490.40354915 85.61021131 495.53456753 C88.68275248 498.59563664 91.76403344 501.64653219 94.86866951 504.67507362 C97.78453032 507.52020298 100.67343984 510.39013545 103.5437088 513.28123093 C104.60084729 514.33693974 105.66745068 515.3832679 106.74394798 516.41922951 C114.87616573 524.26065551 114.87616573 524.26065551 115.18417168 528.58682823 C114.689472 530.91801589 114.00448882 532.84607653 113 535 C106.57898656 556.70773811 108.86720231 579.79069795 119 600 C122.77260213 606.78698521 127.14228697 612.60471479 132.49609375 618.22265625 C134 620 134 620 134 622 C134.57234375 622.25523437 135.1446875 622.51046875 135.734375 622.7734375 C138.24304003 624.13157685 140.10666849 625.7439643 142.25 627.625 C159.04637915 641.23031448 181.63529523 647.46917638 203.02734375 645.7578125 C226.73148773 643.09686621 246.70809345 632.2744282 262.3046875 614.3515625 C276.91854244 595.41610065 283.59391773 571.71144725 280.5390625 547.9296875 C277.02665511 525.16428972 265.05317913 505.29210014 247 491 C228.01025224 477.15238242 205.20269041 471.95269733 182 475 C178.80046784 475.71140436 175.68228089 476.51097987 172.55078125 477.4765625 C169.51694859 478.0991254 167.96293942 477.92096203 165 477 C162.42420959 474.95830059 162.42420959 474.95830059 159.63305664 472.2150116 C159.11622377 471.71217992 158.59939091 471.20934824 158.06689644 470.69127923 C156.33837942 469.00445989 154.62440276 467.30360604 152.91015625 465.60229492 C151.67378161 464.38934955 150.43664587 463.17717957 149.19880676 461.96572876 C145.83972438 458.6719221 142.49426551 455.36461851 139.15309906 452.05264831 C137.06554801 449.98348991 134.97604639 447.91631968 132.88604736 445.84963417 C126.3475857 439.38197373 119.81838526 432.90514581 113.30081177 426.41643637 C105.77711203 418.92655738 98.22309057 411.46910973 90.64160824 404.03773612 C84.78251303 398.29069713 78.9524742 392.51520485 73.14350224 386.717511 C69.67334561 383.25545767 66.19192768 379.80686361 62.67947388 376.38768578 C59.37602516 373.17051323 56.11009062 369.91951315 52.86939049 366.63917923 C51.6750236 365.44255398 50.4677556 364.25864585 49.24701881 363.08893394 C45.64851558 359.63250182 42.42788053 356.38617716 40 352 C39.9621069 347.48101305 41.20379858 344.09369731 43 340 C47.256668 316.86055477 41.9867709 293.3929825 29.22021484 273.74072266 C16.86187638 256.11067999 -2.77511339 243.02540953 -24 239 C-36.89343403 236.76386937 -50.53779017 236.9952974 -63.1875 240.34375 C-66.10163065 241.02371382 -68.02986229 241.38449018 -71 241 C-73.05428005 239.43669038 -74.7174836 237.95829323 -76.50534058 236.12957764 C-77.30297449 235.34364365 -77.30297449 235.34364365 -78.11672223 234.54183221 C-79.89833754 232.78018651 -81.66151674 231.00117276 -83.42529297 229.22167969 C-84.69753783 227.9562086 -85.97084423 226.69180397 -87.24513245 225.4283905 C-90.7047962 221.99155241 -94.14841949 218.53904716 -97.58875418 215.08287334 C-101.18655714 211.47243128 -104.79652065 207.87418219 -108.40457153 204.27398682 C-114.46103634 198.22662316 -120.50687127 192.16878208 -126.546875 186.10498047 C-133.53753039 179.08710089 -140.54603354 172.08743276 -147.56405723 165.09693027 C-153.58264689 159.10100257 -159.59147259 153.09542064 -165.59218895 147.0816052 C-169.17906557 143.48691969 -172.76926738 139.89573056 -176.36828232 136.31319427 C-179.74981821 132.94606174 -183.11896436 129.56701028 -186.47878838 126.17821693 C-187.71650941 124.93386357 -188.95854405 123.69378444 -190.20506859 122.45825005 C-191.90069436 120.77620549 -193.58028961 119.0796572 -195.25656128 117.37835693 C-195.75799585 116.88807597 -196.25943043 116.397795 -196.77605999 115.89265704 C-199.9850987 112.58944015 -199.9850987 112.58944015 -200.0519762 109.94401455 C-198.66214255 107.37565148 -196.9748858 105.59046765 -194.91181946 103.51741028 C-194.03036255 102.62460358 -193.14890564 101.73179687 -192.24073792 100.81193542 C-191.25610905 99.82995007 -190.27131651 98.8481288 -189.28637695 97.86645508 C-188.25416112 96.82689908 -187.22257028 95.78672218 -186.19155884 94.74597168 C-183.38601716 91.91817729 -180.57086788 89.10013667 -177.7532351 86.28439546 C-175.39555069 83.9268308 -173.04222552 81.56493779 -170.68877 79.20315284 C-165.12566095 73.62078881 -159.55439107 68.04666049 -153.97827148 62.47729492 C-148.25011375 56.75574941 -142.53678284 51.01970158 -136.83056861 45.27627832 C-131.91713681 40.3319878 -126.99391733 35.39758833 -122.06309479 30.47064131 C-119.12487744 27.53447826 -116.19044141 24.59478527 -113.26561928 21.64527321 C-110.50496807 18.86209504 -107.73213761 16.09161439 -104.95016861 13.32975006 C-103.94062538 12.32357378 -102.93517487 11.31326816 -101.93458748 10.29818535 C-92.45798098 0.69403175 -81.6904457 -7.68442995 -68.5625 -11.5 C-67.45745117 -11.85578125 -67.45745117 -11.85578125 -66.33007812 -12.21875 C-43.42712413 -19.37211274 -19.15095319 -13.83316902 0 0 Z " fill="#F05132" transform="translate(644,46)"/>
</svg>
