<?xml version="1.0" encoding="UTF-8"?>
<svg version="1.1" xmlns="http://www.w3.org/2000/svg" width="228" height="221">
<path d="M0 0 C75.24 0 150.48 0 228 0 C228 72.93 228 145.86 228 221 C152.76 221 77.52 221 0 221 C0 148.07 0 75.14 0 0 Z " fill="#326CE5" transform="translate(0,0)"/>
<path d="M0 0 C75.24 0 150.48 0 228 0 C228 72.93 228 145.86 228 221 C152.76 221 77.52 221 0 221 C0 148.07 0 75.14 0 0 Z M102.984375 6.04296875 C102.0165358 6.52283234 102.0165358 6.52283234 101.02914429 7.01239014 C99.64701669 7.69975035 98.26840645 8.39422182 96.89312744 9.09518433 C93.97334106 10.58334988 91.03687702 12.0371203 88.10098267 13.49317932 C86.59764069 14.23915993 85.09518122 14.9869216 83.59359741 15.73643494 C76.49881171 19.2729105 69.32646918 22.62497416 62.125 25.9375 C59.85543848 26.9869137 57.58590629 28.03639084 55.31640625 29.0859375 C52.22324795 30.51369325 49.12960915 31.94037083 46.03466797 33.36425781 C43.37424329 34.5905869 40.71792917 35.82540018 38.0625 37.0625 C37.30533691 37.40853271 36.54817383 37.75456543 35.76806641 38.11108398 C28.60954421 41.46151116 24.68716702 44.40457924 21.92041016 51.99755859 C20.32958662 57.18693467 19.19758757 62.45961244 18.1065979 67.77365112 C17.37988129 71.30901921 16.62232416 74.83779997 15.8671875 78.3671875 C15.71387466 79.08666061 15.56056183 79.80613373 15.40260315 80.54740906 C13.83175606 87.8754403 12.08949019 95.1568431 10.3125 102.4375 C10.02133301 103.63560303 9.73016602 104.83370605 9.43017578 106.06811523 C8.18955742 111.16176008 6.93765098 116.25239798 5.671875 121.33984375 C5.30194334 122.85152825 4.93213876 124.36324386 4.5625 125.875 C4.10037109 127.72738281 4.10037109 127.72738281 3.62890625 129.6171875 C2.43250431 136.05249232 2.51540271 140.36656771 6 146 C7.90852475 148.57940012 9.93864307 151.04182359 12 153.5 C13.17937876 154.92756535 14.35774812 156.35596516 15.53515625 157.78515625 C16.12184082 158.49559082 16.70852539 159.20602539 17.31298828 159.93798828 C19.73659295 162.90032764 22.08926336 165.91532998 24.4375 168.9375 C29.11517575 174.9378764 33.94012413 180.80842393 38.79516602 186.66577148 C42.56270353 191.22194772 46.24733599 195.83193243 49.875 200.5 C57.06774301 210.88717669 57.06774301 210.88717669 67 218 C69.96094025 218.19658444 72.82747845 218.28344411 75.78833008 218.2746582 C76.67499863 218.27976913 77.56166718 218.28488007 78.47520447 218.29014587 C81.40671539 218.30404679 84.33799128 218.3030844 87.26953125 218.30078125 C89.30970853 218.30466854 91.349885 218.30900328 93.39006042 218.31376648 C97.66802594 218.32123024 101.94590893 218.32093674 106.22387695 218.31567383 C111.6981822 218.30988586 117.17214838 218.32679329 122.64639759 218.3500185 C126.86124131 218.36477395 131.07600378 218.36562495 135.29086876 218.36250877 C137.30862791 218.3630213 139.32639169 218.36824611 141.34412575 218.37832069 C144.17080095 218.39069967 146.99682108 218.38388404 149.82348633 218.37231445 C150.65230316 218.37995819 151.48112 218.38760193 152.33505249 218.39547729 C158.58275029 218.3391451 163.42874529 217.25649767 168.265625 213.01171875 C169.24789062 211.86123047 169.24789062 211.86123047 170.25 210.6875 C171.3946875 209.35138672 171.3946875 209.35138672 172.5625 207.98828125 C176.11788782 203.62951253 179.59793553 199.21671408 183.046875 194.7734375 C186.13930803 190.80072239 189.31473795 186.89842249 192.5 183 C197.00203263 177.48415086 201.44330185 171.92761048 205.81616211 166.30883789 C208.33480734 163.0833337 210.89520399 159.89936881 213.50390625 156.74609375 C214.09558594 156.02873047 214.68726563 155.31136719 215.296875 154.57226562 C216.44643066 153.18237145 217.60113282 151.79671267 218.76171875 150.41601562 C223.57643138 144.58736721 225.30987752 140.73296599 225 133 C224.47955959 130.64532447 223.87599594 128.30791628 223.203125 125.9921875 C222.8299518 124.66710708 222.4595805 123.34123487 222.09179688 122.01464844 C221.90641357 121.34606812 221.72103027 120.67748779 221.5300293 119.98864746 C220.04652256 114.42259304 218.94273203 108.75869475 217.75 103.125 C215.38347527 92.10816798 212.90799288 81.12138956 210.27111816 70.16595459 C209.92745114 68.73755077 209.58553291 67.3087249 209.2454834 65.87945557 C206.5978179 51.71144134 206.5978179 51.71144134 198 41 C196.2371822 40.0595972 194.43944673 39.18258298 192.6171875 38.36328125 C191.54960205 37.87690186 190.4820166 37.39052246 189.38208008 36.8894043 C188.22474365 36.36902588 187.06740723 35.84864746 185.875 35.3125 C183.35303108 34.16414843 180.8343301 33.00875325 178.31640625 31.8515625 C177.65321884 31.5471373 176.99003143 31.2427121 176.30674744 30.92906189 C165.92754745 26.14586035 155.68207169 21.08059705 145.41644287 16.05979919 C143.34696485 15.05025375 141.2745559 14.04693947 139.20166016 13.04443359 C136.27070595 11.62607974 133.3581206 10.17537802 130.45068359 8.70947266 C128.95041101 7.96863854 127.44992885 7.22822868 125.94921875 6.48828125 C125.2703511 6.13831589 124.59148346 5.78835052 123.89204407 5.42778015 C116.34074409 1.75087547 110.59269421 2.19715007 102.984375 6.04296875 Z " fill="#FEFEFE" transform="translate(0,0)"/>
<path d="M0 0 C2.4375 0.875 2.4375 0.875 4.4375 3.875 C4.66455078 6.05151367 4.66455078 6.05151367 4.6328125 8.54296875 C4.62636719 9.43564453 4.61992188 10.32832031 4.61328125 11.24804688 C4.58814453 12.64120117 4.58814453 12.64120117 4.5625 14.0625 C4.55347656 15.00287109 4.54445313 15.94324219 4.53515625 16.91210938 C4.51159056 19.23332968 4.47869116 21.55403644 4.4375 23.875 C5.13786377 23.88966309 5.83822754 23.90432617 6.55981445 23.91943359 C19.25984881 24.32827286 29.44545023 30.30647899 39.109375 38.01953125 C41.28514649 39.8853755 41.28514649 39.8853755 43.4375 40.875 C48.73540814 39.29994623 52.26916152 36.16017233 55.9375 32.125 C58.4375 29.875 58.4375 29.875 61.125 29.4375 C63.4375 29.875 63.4375 29.875 65.4375 31.875 C65.43359375 34.74609375 65.43359375 34.74609375 64.4375 37.875 C61.78515625 40.03515625 61.78515625 40.03515625 58.5 41.9375 C54.09528694 44.46488487 54.09528694 44.46488487 50.890625 48.26953125 C50.2667631 51.85673715 51.31879682 53.37598424 53.125 56.5 C59.42789591 68.38463669 59.82896485 78.69568338 59.4375 91.875 C60.0975 91.875 60.7575 91.875 61.4375 91.875 C61.4375 92.535 61.4375 93.195 61.4375 93.875 C62.30632812 93.91238281 63.17515625 93.94976562 64.0703125 93.98828125 C75.51658612 94.64125659 75.51658612 94.64125659 80.4375 97.875 C80.5625 100.25 80.5625 100.25 80.4375 102.875 C78.4375 104.875 78.4375 104.875 75.25 105.1875 C71.4375 104.875 71.4375 104.875 68 103.3125 C64.31235768 101.82450398 62.08709548 101.30059926 58.21484375 101.984375 C55.13760345 103.52637673 54.54489965 106.23463241 53.41796875 109.33984375 C49.56651394 119.29838627 41.38487352 128.26096172 32.4375 133.875 C31.7775 133.875 31.1175 133.875 30.4375 133.875 C31.4807592 140.44753295 33.15853679 144.50581935 37.29296875 149.734375 C38.4375 151.875 38.4375 151.875 38.23828125 154.515625 C37.4375 156.875 37.4375 156.875 35.4375 158.875 C33.0625 159 33.0625 159 30.4375 157.875 C26.98932542 153.13228889 25.64714422 147.52000635 24.4375 141.875 C19.46079946 140.81612755 16.34315553 141.1247739 11.35546875 142.38671875 C1.41558237 144.05001968 -8.85599492 143.34275553 -18.5625 140.875 C-21.38600904 140.75245665 -21.38600904 140.75245665 -23.5625 141.875 C-26.54671454 145.57542603 -27.94841344 150.25011754 -29.59765625 154.66796875 C-30.5625 156.875 -30.5625 156.875 -32.5625 158.875 C-35.85964793 158.54528521 -37.1851839 158.2523161 -39.5625 155.875 C-39.47072789 151.92879921 -38.50392139 149.58893845 -36.125 146.5625 C-33.09385413 142.65530041 -32.29460439 138.69377666 -31.5625 133.875 C-32.14515625 133.60816406 -32.7278125 133.34132812 -33.328125 133.06640625 C-44.20182239 127.26836831 -51.75873698 116.78698481 -55.84765625 105.5 C-57.38450507 102.51872056 -57.38450507 102.51872056 -60.99609375 101.91015625 C-64.17063756 101.87886283 -65.78512106 101.96571064 -68.5625 103.3125 C-72.34937911 104.91860826 -75.41398877 105.28985112 -79.5625 104.875 C-81.5625 102.875 -81.5625 102.875 -81.875 100.375 C-81.771875 99.55 -81.66875 98.725 -81.5625 97.875 C-77.90521595 95.43681064 -74.62962105 95.2033308 -70.375 94.75 C-69.62541016 94.66363281 -68.87582031 94.57726562 -68.10351562 94.48828125 C-66.25732588 94.27661618 -64.41000656 94.07484536 -62.5625 93.875 C-62.5625 93.215 -62.5625 92.555 -62.5625 91.875 C-61.9025 91.875 -61.2425 91.875 -60.5625 91.875 C-60.60890625 90.73804687 -60.6553125 89.60109375 -60.703125 88.4296875 C-61.08617456 74.93929839 -59.38878818 63.79558536 -52.3203125 51.9609375 C-51.35062297 49.90239619 -51.35062297 49.90239619 -52.0859375 47.828125 C-54.05620891 45.22194588 -56.26401988 43.92172365 -59.0625 42.25 C-64.41018212 39.02731788 -64.41018212 39.02731788 -66.5625 36.875 C-66.8125 34.375 -66.8125 34.375 -66.5625 31.875 C-64.5625 29.875 -64.5625 29.875 -62.2109375 29.4765625 C-58.60245227 30.01943196 -57.56149266 31.53319252 -55.1875 34.25 C-51.53756374 38.17223012 -51.53756374 38.17223012 -47 40.875 C-42.38655897 40.875 -41.30531563 39.16874391 -38.1328125 36.02734375 C-34.83777529 33.26812566 -31.34088053 31.45592275 -27.5 29.5625 C-26.82718994 29.22557129 -26.15437988 28.88864258 -25.46118164 28.54150391 C-18.86747481 25.34665659 -12.98626354 23.57198924 -5.5625 23.875 C-5.57821045 23.25455811 -5.5939209 22.63411621 -5.61010742 21.99487305 C-5.67246214 19.18417472 -5.71149148 16.37362188 -5.75 13.5625 C-5.77513672 12.58603516 -5.80027344 11.60957031 -5.82617188 10.60351562 C-5.83583984 9.66572266 -5.84550781 8.72792969 -5.85546875 7.76171875 C-5.8711792 6.89764404 -5.88688965 6.03356934 -5.90307617 5.14331055 C-5.5625 2.875 -5.5625 2.875 -4.2043457 1.06176758 C-2.5625 -0.125 -2.5625 -0.125 0 0 Z " fill="#FBFCFE" transform="translate(114.5625,31.125)"/>
<path d="M0 0 C3 1 3 1 4.09765625 2.75 C7.89755885 11.61131133 9.36249941 19.35348784 9 29 C-11.56947275 25.39797251 -11.56947275 25.39797251 -16.97265625 21.62109375 C-18 20 -18 20 -17.91015625 18.05078125 C-16.79127601 15.52969917 -15.42608892 14.09825765 -13.4375 12.1875 C-12.72335938 11.49914062 -12.00921875 10.81078125 -11.2734375 10.1015625 C-8.41746488 7.46150534 -5.51645027 4.88203849 -2.56640625 2.34765625 C-1.68751602 1.59150381 -0.81982149 0.81982149 0 0 Z " fill="#356EE5" transform="translate(153,90)"/>
<path d="M0 0 C-0.1096972 4.10472658 -0.24036976 8.20852148 -0.375 12.3125 C-0.4059375 13.47974609 -0.436875 14.64699219 -0.46875 15.84960938 C-0.50742188 16.96787109 -0.54609375 18.08613281 -0.5859375 19.23828125 C-0.6173584 20.26993408 -0.6487793 21.30158691 -0.68115234 22.36450195 C-1 25 -1 25 -3 28 C-9.4247095 27.76089269 -13.45339858 24.1620612 -18.375 20.4375 C-19.20644531 19.82197266 -20.03789063 19.20644531 -20.89453125 18.57226562 C-22.93721946 17.05785885 -24.97179341 15.53371596 -27 14 C-25.10146092 8.30438276 -18.05885638 5.60143517 -12.92578125 2.9140625 C-8.75711814 1.02177048 -4.58210302 0 0 0 Z " fill="#336DE5" transform="translate(108,67)"/>
<path d="M0 0 C4.68461656 2.52593092 8.41133848 5.80730543 12.3125 9.375 C12.95767578 9.93960938 13.60285156 10.50421875 14.26757812 11.0859375 C18.86091415 15.28555901 18.86091415 15.28555901 19.54296875 18.7890625 C19 21 19 21 17 23 C14.78515625 23.77783203 14.78515625 23.77783203 12.0625 24.5078125 C11.08539063 24.77207031 10.10828125 25.03632812 9.1015625 25.30859375 C8.07804687 25.57800781 7.05453125 25.84742187 6 26.125 C4.46472656 26.54072266 4.46472656 26.54072266 2.8984375 26.96484375 C-4.70081589 29 -4.70081589 29 -7 29 C-7.51447471 17.91021182 -5.93819138 9.41920011 0 0 Z " fill="#336DE5" transform="translate(73,90)"/>
<path d="M0 0 C2.36791992 0.14868164 2.36791992 0.14868164 5 1 C6.66918945 3.00952148 6.66918945 3.00952148 8.11328125 5.62109375 C8.63857422 6.55630859 9.16386719 7.49152344 9.70507812 8.45507812 C10.23552734 9.43927734 10.76597656 10.42347656 11.3125 11.4375 C11.86228516 12.41783203 12.41207031 13.39816406 12.97851562 14.40820312 C17 21.66685753 17 21.66685753 17 24 C6.94153269 26.72771995 -2.99328802 27.13936062 -13 24 C-11.20469881 18.95263894 -8.55008635 14.40609448 -5.9375 9.75 C-5.47794922 8.92242187 -5.01839844 8.09484375 -4.54492188 7.2421875 C-1.13705937 1.13705937 -1.13705937 1.13705937 0 0 Z " fill="#336DE5" transform="translate(112,136)"/>
<path d="M0 0 C4.97234811 0.05517168 9.71530515 0.7641661 14.59765625 1.65625 C15.41556641 1.79933594 16.23347656 1.94242188 17.07617188 2.08984375 C19.06370129 2.43853312 21.04961521 2.79641085 23.03515625 3.15625 C20.17741682 12.47728795 14.50397469 19.91365548 7.03515625 26.15625 C6.04515625 26.48625 5.05515625 26.81625 4.03515625 27.15625 C1.23760455 21.77542715 -1.40375428 16.33580695 -3.83984375 10.78125 C-4.27039063 9.80414063 -4.7009375 8.82703125 -5.14453125 7.8203125 C-6.00501378 5.02579304 -6.05080688 3.82845142 -4.96484375 1.15625 C-3.96484375 0.15625 -3.96484375 0.15625 0 0 Z " fill="#316CE5" transform="translate(135.96484375,126.84375)"/>
<path d="M0 0 C5.78018521 1.00225296 11.02848752 2.09011821 16.3125 4.75 C17.27800781 5.21921875 18.24351562 5.6884375 19.23828125 6.171875 C22.61458385 8.40682495 24.54344996 10.79619339 27 14 C24.22962269 15.95897908 21.45861941 17.91707085 18.6875 19.875 C17.90181641 20.43058594 17.11613281 20.98617187 16.30664062 21.55859375 C15.1706543 22.36103516 15.1706543 22.36103516 14.01171875 23.1796875 C13.31522217 23.67194824 12.61872559 24.16420898 11.90112305 24.67138672 C7.11807147 28.01405613 7.11807147 28.01405613 4.375 27.6875 C2 27 2 27 1 26 C0.84193469 24.07521187 0.748865 22.1450079 0.68359375 20.21484375 C0.62075195 18.46010742 0.62075195 18.46010742 0.55664062 16.66992188 C0.51732422 15.43822266 0.47800781 14.20652344 0.4375 12.9375 C0.39431641 11.70193359 0.35113281 10.46636719 0.30664062 9.19335938 C0.20015802 6.12902665 0.09814576 3.06460927 0 0 Z " fill="#326DE5" transform="translate(120,67)"/>
<path d="M0 0 C1 1 1 1 1.00415039 2.74780273 C0.42443552 8.69941279 -1.15101912 13.61398578 -3.5625 19.0625 C-3.89185547 19.83271484 -4.22121094 20.60292969 -4.56054688 21.39648438 C-5.36302492 23.26893315 -6.17998609 25.13516418 -7 27 C-15.59970382 24.01916679 -20.46385203 16.80441799 -25.06640625 9.296875 C-26.13040485 6.67917134 -25.99430536 5.59591099 -25 3 C-22.3347536 2.49118023 -19.66821581 1.99279859 -17 1.5 C-15.88431641 1.28537109 -15.88431641 1.28537109 -14.74609375 1.06640625 C-9.74994107 0.15406533 -5.08109937 -0.22683479 0 0 Z " fill="#316CE5" transform="translate(96,127)"/>
<path d="M0 0 C1.91015625 0.48046875 1.91015625 0.48046875 4.47265625 2.54296875 C6.35626596 6.39208424 6.11780025 8.40467026 4.91015625 12.48046875 C2.63424795 15.09354865 1.35737265 15.43388371 -2.08984375 15.79296875 C-7.07214463 15.27397907 -7.07214463 15.27397907 -9.08984375 13.48046875 C-10.29295581 8.89360402 -10.70518519 6.76465959 -8.65234375 2.48046875 C-5.58148829 0.08370351 -3.8220161 -0.26432635 0 0 Z " fill="#306CE5" transform="translate(116.08984375,106.51953125)"/>
</svg>
