<?xml version="1.0" encoding="UTF-8"?>
<svg version="1.1" xmlns="http://www.w3.org/2000/svg" width="300" height="299">
<path d="M0 0 C1.36125 1.2375 1.36125 1.2375 2.75 2.5 C3.27722656 2.95503906 3.80445313 3.41007813 4.34765625 3.87890625 C8.83466323 8.28414545 11.3879793 13.4791061 14.015625 19.09765625 C14.40802872 19.93281769 14.80043243 20.76797913 15.20472717 21.62844849 C19.32748881 30.5412962 22.8051 39.6612509 26.1875 48.875 C26.84132288 50.63789215 27.49546229 52.40066694 28.14990234 54.16333008 C33.12518915 67.60930829 37.84554818 81.13471198 42.46044922 94.70849609 C53.05396227 125.86353502 63.81836778 157.26933085 78.40136719 186.83422852 C79.81677754 189.7967553 80.75475067 192.0629382 80.71875 195.375 C79.75 197.5 79.75 197.5 77.96484375 198.91015625 C75.11379765 199.66942955 73.96219389 199.18198361 71.3125 197.9375 C70.57128906 197.60621094 69.83007812 197.27492187 69.06640625 196.93359375 C66.16162065 195.13585966 64.12117586 192.96409567 61.75 190.5 C59.23066439 188.08032887 56.67705908 185.69757865 54.125 183.3125 C53.45726562 182.68408203 52.78953125 182.05566406 52.1015625 181.40820312 C51.13476562 180.50424805 51.13476562 180.50424805 50.1484375 179.58203125 C49.56755371 179.03780518 48.98666992 178.4935791 48.38818359 177.93286133 C46.59949555 176.30558257 46.59949555 176.30558257 43.75 174.5 C43.75 173.84 43.75 173.18 43.75 172.5 C40.78 171.51 40.78 171.51 37.75 170.5 C37.75 169.84 37.75 169.18 37.75 168.5 C28.8542119 165.75277132 21.98968318 163.83037433 13.1875 167.5625 C1.76748641 173.66281106 -6.90065366 184.53719062 -14.8125 194.546875 C-44.98579874 231.10298693 -44.98579874 231.10298693 -64.61328125 233.828125 C-70.02777778 233.61111111 -70.02777778 233.61111111 -72.25 232.5 C-72.25 231.84 -72.25 231.18 -72.25 230.5 C-72.91 230.17 -73.57 229.84 -74.25 229.5 C-75.07029119 227.4433279 -75.80536118 225.35244017 -76.5 223.25 C-78.94915555 216.09057883 -81.9780732 209.32473826 -85.25 202.5 C-86.3108609 200.26142533 -87.36844936 198.02133687 -88.42456055 195.78051758 C-89.12572205 194.29367318 -89.82891333 192.80778377 -90.53442383 191.32299805 C-92.22370444 187.75403023 -93.83726793 184.19040213 -95.25 180.5 C-95.91 180.5 -96.57 180.5 -97.25 180.5 C-98.83475342 178.25870587 -100.20899128 175.9220015 -101.6171875 173.56640625 C-103.44876539 171.24845241 -104.3718786 170.8426335 -107.25 170.5 C-107.25 169.84 -107.25 169.18 -107.25 168.5 C-107.89066406 168.69335938 -108.53132813 168.88671875 -109.19140625 169.0859375 C-114.20110985 170.5940748 -119.21539857 172.07717786 -124.25 173.5 C-125.24 172.51 -125.24 172.51 -126.25 171.5 C-126.83007812 171.2215625 -127.41015625 170.943125 -128.0078125 170.65625 C-131.01045189 169.1078506 -133.47193661 167.09069334 -136.125 165 C-140.97541592 161.21773884 -145.88015677 157.52717456 -150.875 153.9375 C-151.46651855 153.50824219 -152.05803711 153.07898438 -152.66748047 152.63671875 C-155.18962918 150.83487056 -157.28926723 149.48691092 -160.25 148.5 C-161.39468952 147.32164314 -162.53787653 146.141774 -163.671875 144.953125 C-165.53095039 143.24130311 -167.5029315 141.93390481 -169.625 140.5625 C-178.71478888 134.60922119 -178.71478888 134.60922119 -181.25 131.5 C-181.6875 128.125 -181.6875 128.125 -181.25 125.5 C-173.13841015 121.14946718 -164.69819717 117.74613107 -156.16323853 114.3392334 C-152.05616672 112.6982121 -147.95622747 111.03953184 -143.85546875 109.3828125 C-143.03930588 109.05337646 -142.22314301 108.72394043 -141.38224792 108.38452148 C-133.9277714 105.37413782 -126.48415019 102.34058111 -119.0625 99.25 C-117.98355469 98.80897949 -116.90460938 98.36795898 -115.79296875 97.91357422 C-114.81585938 97.50381348 -113.83875 97.09405273 -112.83203125 96.671875 C-111.98874268 96.3222168 -111.1454541 95.97255859 -110.27661133 95.61230469 C-107.93692916 94.53145595 -107.93692916 94.53145595 -106.25 91.5 C-105.59 91.5 -104.93 91.5 -104.25 91.5 C-104.02441406 90.96117188 -103.79882812 90.42234375 -103.56640625 89.8671875 C-97.48275556 78.92744768 -86.77086223 71.16770213 -75.4609375 66.4453125 C-73.18780956 65.47340974 -71.00878449 64.38382196 -68.8125 63.25 C-65.25 61.5 -65.25 61.5 -63.25 61.5 C-63.25 60.84 -63.25 60.18 -63.25 59.5 C-62.12474845 58.47350723 -60.94717355 57.50412304 -59.75 56.5625 C-54.61145397 52.17219839 -51.02322539 47.07065276 -47.25 41.5 C-46.83395508 40.88962891 -46.41791016 40.27925781 -45.98925781 39.65039062 C-38.01094858 27.94060323 -38.01094858 27.94060323 -31.25 15.5 C-30.59 15.5 -29.93 15.5 -29.25 15.5 C-28.98703125 14.77039063 -28.7240625 14.04078125 -28.453125 13.2890625 C-26.0708699 7.76656205 -22.30406538 3.04054903 -17.5 -0.5625 C-11.51510786 -2.28891119 -5.72200004 -2.6409231 0 0 Z M-13.27734375 10.71875 C-20.41943465 20.78839104 -24.40215229 33.0610662 -29.00390625 44.42578125 C-43.04112893 79.0567977 -58.38335731 116.42163958 -84.76000977 143.68359375 C-86.96596111 145.97691349 -88.22663744 147.42991232 -89.25 150.5 C-90.56454221 151.20299431 -91.90171818 151.86410822 -93.25 152.5 C-94.6993154 153.66897337 -96.11599231 154.87939308 -97.5 156.125 C-98.20640625 156.75664062 -98.9128125 157.38828125 -99.640625 158.0390625 C-100.43726562 158.76222656 -100.43726562 158.76222656 -101.25 159.5 C-100.569375 160.16 -99.88875 160.82 -99.1875 161.5 C-98.2061429 162.49785049 -97.22719134 163.49806964 -96.25 164.5 C-95.73050781 165.01175781 -95.21101563 165.52351562 -94.67578125 166.05078125 C-80.43409405 181.02281139 -72.81812791 203.61951247 -65.25 222.5 C-57.42291598 220.44699436 -51.34190634 216.86315493 -45.25 211.5 C-45.25 210.84 -45.25 210.18 -45.25 209.5 C-44.69828125 209.273125 -44.1465625 209.04625 -43.578125 208.8125 C-40.56307583 207.11274074 -38.43769631 204.95195184 -36 202.5 C-35.10796875 201.613125 -34.2159375 200.72625 -33.296875 199.8125 C-31.02906927 197.76510897 -31.02906927 197.76510897 -31.25 195.5 C-30.610625 195.2525 -29.97125 195.005 -29.3125 194.75 C-27.06258459 193.68437567 -27.06258459 193.68437567 -26.5 191.375 C-26.4175 190.75625 -26.335 190.1375 -26.25 189.5 C-25.59 189.5 -24.93 189.5 -24.25 189.5 C-24.25 188.84 -24.25 188.18 -24.25 187.5 C-23.26 187.17 -22.27 186.84 -21.25 186.5 C-19.66983233 184.97930027 -19.66983233 184.97930027 -18.125 183.0625 C-17.51011719 182.34191406 -16.89523438 181.62132812 -16.26171875 180.87890625 C-15.59785156 180.09386719 -14.93398437 179.30882812 -14.25 178.5 C-4.71173809 167.29829353 5.21277418 157.24995841 20.35546875 154.953125 C35.03553725 154.16207468 45.01513432 161.30086451 55.48461914 170.58691406 C56.91516127 171.88167523 58.33395215 173.18940252 59.75 174.5 C60.08 173.84 60.41 173.18 60.75 172.5 C59.85987008 170.71974016 58.96167962 168.94332975 58.0390625 167.1796875 C56.51892152 164.01963687 55.27520442 160.78635856 54.0625 157.5 C53.81701416 156.83516602 53.57152832 156.17033203 53.31860352 155.48535156 C52.77252636 154.0019627 52.22742009 152.5182162 51.68310547 151.03417969 C49.85045992 146.05697907 47.98563411 141.09178825 46.125 136.125 C45.75286377 135.12726563 45.38072754 134.12953125 44.99731445 133.1015625 C43.24242384 128.41041745 41.45381178 123.7411297 39.56640625 119.1015625 C38.25531417 115.84775263 37.13287632 112.6672917 36.3125 109.25 C34.56055948 102.50883757 32.15361532 96.03156337 29.75 89.5 C29.06203671 87.60433474 28.37450089 85.70851426 27.6875 83.8125 C26.70123026 81.1042351 25.71219803 78.39704691 24.71875 75.69140625 C23.20672832 71.56198341 21.71618555 67.43826365 20.375 63.25 C18.56694309 57.73641985 16.33717764 52.38681237 14.16015625 47.01171875 C13.12540565 44.43487446 12.12959828 41.8609581 11.1875 39.25 C8.03242507 30.72576248 3.8727584 22.58762392 -0.25 14.5 C-0.91 14.5 -1.57 14.5 -2.25 14.5 C-2.37375 13.88125 -2.4975 13.2625 -2.625 12.625 C-3.12197356 10.30879168 -3.12197356 10.30879168 -5.25 8.5 C-9.10832707 7.91286327 -10.58102635 7.76786698 -13.27734375 10.71875 Z M-46.25 57.5 C-47.03503906 58.31984375 -47.82007813 59.1396875 -48.62890625 59.984375 C-49.68968956 61.0733207 -50.75091104 62.16183969 -51.8125 63.25 C-52.32619141 63.78882812 -52.83988281 64.32765625 -53.36914062 64.8828125 C-59.42679509 71.05334252 -66.27601468 74.04099914 -74.28515625 77.15625 C-80.10529419 79.79409908 -84.49514581 83.45131234 -89 87.9375 C-89.48082031 88.40220703 -89.96164063 88.86691406 -90.45703125 89.34570312 C-93.34482969 92.22947956 -94.86206829 94.70151295 -96.25 98.5 C-93.33778729 100.79737247 -90.41948376 103.08687699 -87.5 105.375 C-86.2625 106.35146484 -86.2625 106.35146484 -85 107.34765625 C-84.20078125 107.97285156 -83.4015625 108.59804687 -82.578125 109.2421875 C-81.8449707 109.8182373 -81.11181641 110.39428711 -80.35644531 110.98779297 C-78.38300931 112.40451325 -76.45240573 113.48584875 -74.25 114.5 C-73.41151196 113.04462432 -72.57936066 111.58559627 -71.75 110.125 C-71.05390625 108.90683594 -71.05390625 108.90683594 -70.34375 107.6640625 C-69.09964141 105.60663126 -69.09964141 105.60663126 -69.25 103.5 C-68.59 103.5 -67.93 103.5 -67.25 103.5 C-61.71927267 93.26227068 -56.35464417 82.95726589 -51.25 72.5 C-50.93691895 71.86126953 -50.62383789 71.22253906 -50.30126953 70.56445312 C-49.41998159 68.75615664 -48.55337083 66.94072914 -47.6875 65.125 C-47.19121094 64.08601563 -46.69492188 63.04703125 -46.18359375 61.9765625 C-45.87550781 61.15929688 -45.56742188 60.34203125 -45.25 59.5 C-45.745 58.51 -45.745 58.51 -46.25 57.5 Z M-113.1875 107.75 C-114.16589844 108.18828125 -115.14429688 108.6265625 -116.15234375 109.078125 C-117.17457031 109.54734375 -118.19679687 110.0165625 -119.25 110.5 C-126.72282187 113.7805218 -134.32729977 116.73526362 -141.9140625 119.74023438 C-147.45537341 121.94538165 -152.95315641 124.19989627 -158.37719727 126.6809082 C-160.94468646 127.80382911 -163.5734933 128.67645948 -166.25 129.5 C-162.12131445 133.99273799 -157.5093035 137.20186914 -152.4375 140.5625 C-144.56276849 145.8568671 -136.92277164 151.38815397 -129.375 157.13671875 C-125.55222449 160.44084165 -125.55222449 160.44084165 -120.91015625 161.3671875 C-105.69357541 156.40671621 -87.53484606 135.94385228 -80.25 122.5 C-80.70850342 122.15743164 -81.16700684 121.81486328 -81.6394043 121.46191406 C-83.739416 119.89213876 -85.83846416 118.32107991 -87.9375 116.75 C-88.65873047 116.21117188 -89.37996094 115.67234375 -90.12304688 115.1171875 C-90.82880859 114.58867188 -91.53457031 114.06015625 -92.26171875 113.515625 C-92.95442871 112.99935547 -93.64713867 112.48308594 -94.36083984 111.95117188 C-95.92109054 110.75265415 -97.41780581 109.4719169 -98.89453125 108.171875 C-103.93031218 104.59755619 -107.80755669 105.28978939 -113.1875 107.75 Z " fill="#7445FE" transform="translate(181.25,1.5)"/>
<path d="M0 0 C1.87815857 0.16940308 1.87815857 0.16940308 4 1 C5.09657288 3.22537231 5.09657288 3.22537231 5.94946289 6.28955078 C6.28052032 7.47566956 6.61157776 8.66178833 6.95266724 9.8838501 C9.05078182 18.01070467 10.93961765 26.18521508 12.80859375 34.3671875 C13.26134777 36.33383702 13.71448564 38.30039821 14.16798401 40.26687622 C15.11463699 44.37615246 16.0582141 48.48611757 16.99926758 52.59667969 C18.18945099 57.7953434 19.38489248 62.99277813 20.58241177 68.18975639 C21.7430143 73.22763595 22.90088747 78.26614174 24.05859375 83.3046875 C24.27174162 84.2313409 24.48488949 85.15799431 24.70449638 86.11272812 C25.93577032 91.47016443 27.1561145 96.82991868 28.36439133 102.19258881 C28.81138371 104.1669033 29.26233584 106.14032341 29.71617508 108.11307526 C30.44307165 111.27550096 31.15819796 114.44040439 31.87133789 117.60595703 C32.09913405 118.58564894 32.32693022 119.56534084 32.5616293 120.57472038 C32.76490872 121.48754343 32.96818815 122.40036648 33.17762756 123.34085083 C33.36088624 124.14539263 33.54414492 124.94993443 33.73295689 125.77885628 C34.01739713 128.14470142 33.72674175 129.74780108 33 132 C32.00097656 132.12117187 31.00195312 132.24234375 29.97265625 132.3671875 C28.03712891 132.61855469 28.03712891 132.61855469 26.0625 132.875 C24.77472656 133.03742188 23.48695313 133.19984375 22.16015625 133.3671875 C21.11730469 133.57601562 20.07445312 133.78484375 19 134 C18.67 134.66 18.34 135.32 18 136 C16.6010099 136.66362351 15.17957304 137.28011315 13.75 137.875 C0.12169058 144.50446293 -10.99570476 158.64103809 -20.25 170.3125 C-37.67343431 191.8724331 -37.67343431 191.8724331 -49 197 C-49.99 197 -50.98 197 -52 197 C-54 191.25 -54 191.25 -54 189 C-54.66 188.67 -55.32 188.34 -56 188 C-56.62899703 186.00817608 -57.25522738 184.0154542 -57.87109375 182.01953125 C-59.62739058 177.32189301 -61.97343283 172.93162173 -64.30712891 168.49780273 C-67 163.30584191 -67 163.30584191 -67 160 C-66.19175781 159.67386719 -65.38351563 159.34773437 -64.55078125 159.01171875 C-63.48214844 158.57472656 -62.41351563 158.13773438 -61.3125 157.6875 C-59.72888672 157.04361328 -59.72888672 157.04361328 -58.11328125 156.38671875 C-52.23751034 153.76953096 -49.01626864 151.04608111 -45 146 C-44.34 145.4225 -43.68 144.845 -43 144.25 C-37.15070114 137.66953879 -34.52438385 128.38793843 -31.75 120.1875 C-31.399375 119.17751953 -31.04875 118.16753906 -30.6875 117.12695312 C-29.18692952 112.75509874 -27.88558094 108.53837123 -27 104 C-25.97783736 100.88516655 -24.91491203 97.79149552 -23.81640625 94.703125 C-22.35651843 90.47031416 -21.57934439 86.42935122 -21 82 C-20.3515625 79.76953125 -20.3515625 79.76953125 -19.625 77.8125 C-18.06182189 73.34196164 -16.92876572 68.82742102 -15.81640625 64.2265625 C-14.96233151 60.85112836 -13.9907642 57.52520754 -13 54.1875 C-10.88137949 46.86936427 -9.40110993 39.48377281 -8 32 C-6.16502809 22.40168539 -6.16502809 22.40168539 -4.875 18.0625 C-3.86263944 15.05007937 -3.86263944 15.05007937 -4 12 C-3.34 12 -2.68 12 -2 12 C-1.93941406 11.38511719 -1.87882812 10.77023438 -1.81640625 10.13671875 C-1.73261719 9.32847656 -1.64882812 8.52023438 -1.5625 7.6875 C-1.44068359 6.48673828 -1.44068359 6.48673828 -1.31640625 5.26171875 C-1 3 -1 3 0 0 Z " fill="#A8B8FE" transform="translate(171,17)"/>
<path d="M0 0 C2.00309329 0.31421071 4.00371336 0.6451046 6 1 C5.40068559 6.29598244 1.03297669 9.03404904 -2.65234375 12.46484375 C-5.39595543 15.12385187 -5.39595543 15.12385187 -7 20 C-0.4 24.95 6.2 29.9 13 35 C13.495 34.01 13.495 34.01 14 33 C14.66 33 15.32 33 16 33 C16.309375 32.05125 16.61875 31.1025 16.9375 30.125 C18 27 18 27 19 25 C19.66 25 20.32 25 21 25 C21.0825 24.4225 21.165 23.845 21.25 23.25 C22.21795468 20.34613597 23.83124936 19.16875064 26 17 C27.76568057 14.39160825 29.39518109 11.70977619 31 9 C32.65 9.33 34.3 9.66 36 10 C36 10.66 36 11.32 36 12 C36.66 12 37.32 12 38 12 C37.41837873 17.01771573 35.13111563 20.86604575 32.6875 25.1875 C32.24672119 25.9719751 31.80594238 26.7564502 31.35180664 27.56469727 C23.98089338 40.48084289 15.75885777 52.76596605 6 64 C5.39671875 64.72445312 4.7934375 65.44890625 4.171875 66.1953125 C0.67241964 70.34106367 -3.05290561 73.96254652 -7.203125 77.45703125 C-8.88683736 78.90282773 -10.45305067 80.41007985 -12 82 C-11.25556641 82.58394531 -11.25556641 82.58394531 -10.49609375 83.1796875 C6.4526576 97.13748273 15.80710666 121.83445754 23 142 C23 142.66 23 143.32 23 144 C25.23310552 142.92424145 27.46124501 141.83977517 29.6875 140.75 C30.62625977 140.29947266 30.62625977 140.29947266 31.58398438 139.83984375 C36.40035411 137.46948377 40.35194078 134.74794159 44.0625 130.8125 C46.09754283 128.90875025 47.28148409 128.38835942 50 128 C50 128.66 50 129.32 50 130 C54.5318934 130.30899273 56.55585992 129.95212007 60 127 C60.66 127 61.32 127 62 127 C56.50350908 139.23238665 40.35762752 148.48050432 28.703125 154.01171875 C24.83530291 155.42582133 22.07052694 155.5276609 18 155 C17.34 154.67 16.68 154.34 16 154 C16 153.34 16 152.68 16 152 C15.34 151.67 14.68 151.34 14 151 C13.17970881 148.9433279 12.44463882 146.85244017 11.75 144.75 C9.30084445 137.59057883 6.2719268 130.82473826 3 124 C1.9391391 121.76142533 0.88155064 119.52133687 -0.17456055 117.28051758 C-0.87572205 115.79367318 -1.57891333 114.30778377 -2.28442383 112.82299805 C-3.97370444 109.25403023 -5.58726793 105.69040213 -7 102 C-7.66 102 -8.32 102 -9 102 C-10.58475342 99.75870587 -11.95899128 97.4220015 -13.3671875 95.06640625 C-15.19876539 92.74845241 -16.1218786 92.3426335 -19 92 C-19 91.34 -19 90.68 -19 90 C-19.64066406 90.19335938 -20.28132813 90.38671875 -20.94140625 90.5859375 C-25.95110985 92.0940748 -30.96539857 93.57717786 -36 95 C-36.99 94.01 -36.99 94.01 -38 93 C-38.58007812 92.7215625 -39.16015625 92.443125 -39.7578125 92.15625 C-42.76045189 90.6078506 -45.22193661 88.59069334 -47.875 86.5 C-52.72541592 82.71773884 -57.63015677 79.02717456 -62.625 75.4375 C-63.21651855 75.00824219 -63.80803711 74.57898438 -64.41748047 74.13671875 C-66.93962918 72.33487056 -69.03926723 70.98691092 -72 70 C-73.14468952 68.82164314 -74.28787653 67.641774 -75.421875 66.453125 C-77.28095039 64.74130311 -79.2529315 63.43390481 -81.375 62.0625 C-90.46478888 56.10922119 -90.46478888 56.10922119 -93 53 C-93.4375 49.625 -93.4375 49.625 -93 47 C-84.88841015 42.64946718 -76.44819717 39.24613107 -67.91323853 35.8392334 C-63.80616672 34.1982121 -59.70622747 32.53953184 -55.60546875 30.8828125 C-54.78930588 30.55337646 -53.97314301 30.22394043 -53.13224792 29.88452148 C-45.6777714 26.87413782 -38.23415019 23.84058111 -30.8125 20.75 C-29.73355469 20.30897949 -28.65460938 19.86795898 -27.54296875 19.41357422 C-26.56585938 19.00381348 -25.58875 18.59405273 -24.58203125 18.171875 C-23.73874268 17.8222168 -22.8954541 17.47255859 -22.02661133 17.11230469 C-19.68692916 16.03145595 -19.68692916 16.03145595 -18 13 C-16.85917969 12.32517578 -16.85917969 12.32517578 -15.6953125 11.63671875 C-11.56223362 9.12692157 -8.60071775 5.58343725 -5.3046875 2.08203125 C-3 0 -3 0 0 0 Z M-24.9375 29.25 C-25.91589844 29.68828125 -26.89429688 30.1265625 -27.90234375 30.578125 C-28.92457031 31.04734375 -29.94679687 31.5165625 -31 32 C-38.47282187 35.2805218 -46.07729977 38.23526362 -53.6640625 41.24023438 C-59.20537341 43.44538165 -64.70315641 45.69989627 -70.12719727 48.1809082 C-72.69468646 49.30382911 -75.3234933 50.17645948 -78 51 C-73.87131445 55.49273799 -69.2593035 58.70186914 -64.1875 62.0625 C-56.31276849 67.3568671 -48.67277164 72.88815397 -41.125 78.63671875 C-37.30222449 81.94084165 -37.30222449 81.94084165 -32.66015625 82.8671875 C-17.44357541 77.90671621 0.71515394 57.44385228 8 44 C7.54149658 43.65743164 7.08299316 43.31486328 6.6105957 42.96191406 C4.510584 41.39213876 2.41153584 39.82107991 0.3125 38.25 C-0.40873047 37.71117187 -1.12996094 37.17234375 -1.87304688 36.6171875 C-2.57880859 36.08867188 -3.28457031 35.56015625 -4.01171875 35.015625 C-4.70442871 34.49935547 -5.39713867 33.98308594 -6.11083984 33.45117188 C-7.67109054 32.25265415 -9.16780581 30.9719169 -10.64453125 29.671875 C-15.68031218 26.09755619 -19.55755669 26.78978939 -24.9375 29.25 Z " fill="#7F40FE" transform="translate(93,80)"/>
<path d="M0 0 C1.36125 1.2375 1.36125 1.2375 2.75 2.5 C3.27722656 2.95503906 3.80445313 3.41007813 4.34765625 3.87890625 C15.34171873 14.67262135 19.98802237 32.29702126 25.375 46.375 C25.65097015 47.0860791 25.92694031 47.7971582 26.21127319 48.52978516 C27.00113948 50.57479074 27.77274353 52.62575924 28.5390625 54.6796875 C28.98975098 55.87319824 29.44043945 57.06670898 29.90478516 58.29638672 C30.77641873 61.60013478 30.86049009 63.30068019 29.75 66.5 C29.09 67.16 28.43 67.82 27.75 68.5 C27.75 67.84 27.75 67.18 27.75 66.5 C25.77 67.49 25.77 67.49 23.75 68.5 C24.08 70.15 24.41 71.8 24.75 73.5 C23.76 72.84 22.77 72.18 21.75 71.5 C21.38239269 69.17182036 21.04758419 66.8381615 20.75 64.5 C20.09 64.17 19.43 63.84 18.75 63.5 C18.05046277 61.52483604 17.44015089 59.51772879 16.875 57.5 C15.49835588 52.82852013 13.95850774 48.49696868 11.89453125 44.09765625 C10.30634323 40.4930657 8.93775554 36.81520061 7.5625 33.125 C7.30033691 32.42205811 7.03817383 31.71911621 6.76806641 30.99487305 C5.72216667 28.1747644 4.70121625 25.35364875 3.75 22.5 C3.09 22.17 2.43 21.84 1.75 21.5 C1.08333333 19.5 0.41666667 17.5 -0.25 15.5 C-0.91 15.17 -1.57 14.84 -2.25 14.5 C-2.6625 13.654375 -3.075 12.80875 -3.5 11.9375 C-5.05489194 9.22397345 -5.05489194 9.22397345 -8.125 8.75 C-11.96559561 9.67174295 -12.8819576 11.29624044 -15.03173828 14.47949219 C-16.96587279 17.68728722 -18.36759419 21.02553289 -19.75 24.5 C-20.44248012 26.18498964 -21.13520685 27.86987794 -21.828125 29.5546875 C-22.20904297 30.49022461 -22.58996094 31.42576172 -22.98242188 32.38964844 C-25.46376097 38.47829637 -27.97344045 44.55500077 -30.5 50.625 C-30.77355316 51.28283478 -31.04710632 51.94066956 -31.32894897 52.61843872 C-36.83139712 65.81393952 -42.89103684 78.69363433 -49.25 91.5 C-50.24 91.17 -51.23 90.84 -52.25 90.5 C-52.58 89.84 -52.91 89.18 -53.25 88.5 C-55.66869379 88.65231582 -55.66869379 88.65231582 -58.25 89.5 C-59.85235258 91.51584926 -59.85235258 91.51584926 -60.9375 94 C-63.08281087 98.41640543 -63.08281087 98.41640543 -65.25 99.5 C-63.45233096 94.77875342 -61.29282783 90.2464965 -59.125 85.6875 C-58.53537476 84.44456177 -58.53537476 84.44456177 -57.93383789 83.17651367 C-54.14854139 75.22913469 -50.22554772 67.35360245 -46.25 59.5 C-49.2631988 61.84474173 -52.02352213 64.20817009 -54.625 67 C-60.91303812 73.32843237 -68.98194345 76.43868619 -77.25 79.5 C-77.91 79.5 -78.57 79.5 -79.25 79.5 C-79.58 80.16 -79.91 80.82 -80.25 81.5 C-80.86875 81.314375 -81.4875 81.12875 -82.125 80.9375 C-84.29160178 80.26313824 -84.29160178 80.26313824 -86.25 81.5 C-86.745 80.51 -86.745 80.51 -87.25 79.5 C-90.71551464 79.5 -91.04933951 79.89192151 -93.5 82.125 C-94.10457031 82.66640625 -94.70914063 83.2078125 -95.33203125 83.765625 C-96.28142578 84.62414062 -96.28142578 84.62414062 -97.25 85.5 C-98.55926442 86.62876389 -99.87161459 87.75396172 -101.1875 88.875 C-101.77402344 89.37773438 -102.36054687 89.88046875 -102.96484375 90.3984375 C-103.38894531 90.76195313 -103.81304687 91.12546875 -104.25 91.5 C-99.30922137 79.69859732 -86.78705221 71.17446215 -75.4609375 66.4453125 C-73.18780956 65.47340974 -71.00878449 64.38382196 -68.8125 63.25 C-65.25 61.5 -65.25 61.5 -63.25 61.5 C-63.25 60.84 -63.25 60.18 -63.25 59.5 C-62.12474845 58.47350723 -60.94717355 57.50412304 -59.75 56.5625 C-54.61145397 52.17219839 -51.02322539 47.07065276 -47.25 41.5 C-46.83395508 40.88962891 -46.41791016 40.27925781 -45.98925781 39.65039062 C-38.01094858 27.94060323 -38.01094858 27.94060323 -31.25 15.5 C-30.59 15.5 -29.93 15.5 -29.25 15.5 C-28.98703125 14.77039063 -28.7240625 14.04078125 -28.453125 13.2890625 C-26.0708699 7.76656205 -22.30406538 3.04054903 -17.5 -0.5625 C-11.51510786 -2.28891119 -5.72200004 -2.6409231 0 0 Z " fill="#4659FE" transform="translate(181.25,1.5)"/>
<path d="M0 0 C4.95 0 9.9 0 15 0 C17.55262624 5.17418061 20.09756064 10.35204591 22.63549805 15.53344727 C23.49961302 17.2948937 24.36580626 19.0553222 25.23413086 20.81469727 C26.48320956 23.34645896 27.72472306 25.88180956 28.96484375 28.41796875 C29.35341049 29.20149216 29.74197723 29.98501556 30.14231873 30.7922821 C31.95226411 34.51160818 33.47569375 37.84532498 34 42 C34.66 42 35.32 42 36 42 C36.16218018 41.46560303 36.32436035 40.93120605 36.49145508 40.38061523 C38.40536587 34.33720193 40.89313928 28.74481246 43.6875 23.0625 C44.50738154 21.3884163 45.32396501 19.71271201 46.13671875 18.03515625 C46.49467529 17.3069165 46.85263184 16.57867676 47.22143555 15.82836914 C48.13059437 14.02451969 48.13059437 14.02451969 48 12 C48.66 12 49.32 12 50 12 C50.268125 11.13375 50.53625 10.2675 50.8125 9.375 C52 6 52 6 55 0 C59.95 0 64.9 0 70 0 C69.67 0.99 69.34 1.98 69 3 C65.9375 4.1875 65.9375 4.1875 63 5 C62.82809465 28.01998619 62.82809465 28.01998619 64 51 C66.37884025 52.49778831 67.65557012 53.02642202 70.49511719 52.80859375 C73.06884258 52.23260744 73.06884258 52.23260744 74.34472656 50.3125 C74.68987305 49.549375 75.03501953 48.78625 75.390625 48 C75.80248047 47.09507812 76.21433594 46.19015625 76.63867188 45.2578125 C79.44426213 38.54371703 82.12294086 31.78571285 84.75 25 C85.63226801 22.73344241 86.51585989 20.46740709 87.40020752 18.20166016 C87.94593663 16.80217865 88.49022557 15.40213448 89.03289795 14.00146484 C90.89147777 9.21704445 90.89147777 9.21704445 92 7 C92.99 7 93.98 7 95 7 C95.45270264 8.19991577 95.45270264 8.19991577 95.91455078 9.42407227 C98.57305151 16.4656025 101.24255047 23.50273445 103.92599487 30.53479004 C105.27215854 34.06792964 106.59570784 37.60794303 107.890625 41.16015625 C108.38510158 42.48188876 108.87985454 43.80351793 109.375 45.125 C109.97441406 46.76855469 109.97441406 46.76855469 110.5859375 48.4453125 C112.27107777 51.48973719 113.98585362 52.3769981 117 54 C117 54.66 117 55.32 117 56 C110.73 56 104.46 56 98 56 C98.99 55.01 99.98 54.02 101 53 C101.66 53 102.32 53 103 53 C102.71125 52.16855469 102.4225 51.33710938 102.125 50.48046875 C101.568125 48.85044922 101.568125 48.85044922 101 47.1875 C100.62875 46.10855469 100.2575 45.02960938 99.875 43.91796875 C99 41 99 41 99 38 C94.05 38 89.1 38 84 38 C83.01 42.62 82.02 47.24 81 52 C82.65 52.66 84.3 53.32 86 54 C86 54.66 86 55.32 86 56 C73.13 56 60.26 56 47 56 C46.67 55.34 46.34 54.68 46 54 C48.31 53.34 50.62 52.68 53 52 C53 39.79 53 27.58 53 15 C43.15581246 35.34375285 43.15581246 35.34375285 34 56 C30.75161274 54.96520997 29.98640791 53.97623483 28.26074219 50.95898438 C27.67600919 49.67661836 27.10551519 48.38769606 26.546875 47.09375 C26.24179016 46.41324585 25.93670532 45.7327417 25.62237549 45.03161621 C24.9811642 43.59520081 24.34610066 42.15602737 23.71679688 40.71435547 C22.75122631 38.50280873 21.76806033 36.29979623 20.78125 34.09765625 C20.16042111 32.70098142 19.5405946 31.30386051 18.921875 29.90625 C18.62819031 29.24475952 18.33450562 28.58326904 18.03192139 27.9017334 C16 23.23543167 16 23.23543167 16 21 C15.34 20.67 14.68 20.34 14 20 C13.375 17.9375 13.375 17.9375 13 16 C12.09586584 22.96544958 11.8170091 29.79182732 11.8125 36.8125 C11.80025391 37.83537109 11.78800781 38.85824219 11.77539062 39.91210938 C11.77345703 40.89630859 11.77152344 41.88050781 11.76953125 42.89453125 C11.76336792 44.22254761 11.76336792 44.22254761 11.75708008 45.57739258 C12.02184649 48.2178721 12.52311255 49.80008806 14 52 C17.04199472 53.29231642 17.04199472 53.29231642 20 54 C20 54.66 20 55.32 20 56 C12.74 56 5.48 56 -2 56 C-2.33 55.34 -2.66 54.68 -3 54 C-1.2421875 53.47916667 0.515625 52.95833333 2.2734375 52.4375 C5.56326575 49.69845748 5.75594513 45.02891921 6.24462891 40.96630859 C6.4204499 38.87317739 6.53488746 36.78603706 6.625 34.6875 C6.66222168 33.92566406 6.69944336 33.16382813 6.73779297 32.37890625 C7.0010051 26.42085103 7.10105717 20.46347561 7.125 14.5 C7.12967285 13.68104248 7.1343457 12.86208496 7.13916016 12.01831055 C7.23133099 7.87652699 7.23133099 7.87652699 6 4 C4.02111039 3.27306096 2.02045442 2.60183749 0 2 C0 1.34 0 0.68 0 0 Z M91 19 C90.15787744 20.91282125 89.32661136 22.83042473 88.5 24.75 C88.0359375 25.81734375 87.571875 26.8846875 87.09375 27.984375 C85.77269283 31.09207716 85.77269283 31.09207716 86 35 C89.63 35 93.26 35 97 35 C95.40615011 29.63886855 93.8106711 24.29273092 92 19 C91.67 19 91.34 19 91 19 Z " fill="#000001" transform="translate(15,243)"/>
<path d="M0 0 C1.36125 1.2375 1.36125 1.2375 2.75 2.5 C3.27722656 2.95503906 3.80445313 3.41007813 4.34765625 3.87890625 C15.34171873 14.67262135 19.98802237 32.29702126 25.375 46.375 C25.65097015 47.0860791 25.92694031 47.7971582 26.21127319 48.52978516 C27.00113948 50.57479074 27.77274353 52.62575924 28.5390625 54.6796875 C28.98975098 55.87319824 29.44043945 57.06670898 29.90478516 58.29638672 C30.77641873 61.60013478 30.86049009 63.30068019 29.75 66.5 C29.09 67.16 28.43 67.82 27.75 68.5 C27.75 67.84 27.75 67.18 27.75 66.5 C25.77 67.49 25.77 67.49 23.75 68.5 C24.08 70.15 24.41 71.8 24.75 73.5 C23.76 72.84 22.77 72.18 21.75 71.5 C21.38239269 69.17182036 21.04758419 66.8381615 20.75 64.5 C19.76 64.005 19.76 64.005 18.75 63.5 C18.05046277 61.52483604 17.44015089 59.51772879 16.875 57.5 C15.49835588 52.82852013 13.95850774 48.49696868 11.89453125 44.09765625 C10.30634323 40.4930657 8.93775554 36.81520061 7.5625 33.125 C7.30033691 32.42205811 7.03817383 31.71911621 6.76806641 30.99487305 C5.72216667 28.1747644 4.70121625 25.35364875 3.75 22.5 C3.09 22.17 2.43 21.84 1.75 21.5 C1.08333333 19.5 0.41666667 17.5 -0.25 15.5 C-0.91 15.17 -1.57 14.84 -2.25 14.5 C-2.6625 13.654375 -3.075 12.80875 -3.5 11.9375 C-5.05489194 9.22397345 -5.05489194 9.22397345 -8.125 8.75 C-11.76482911 9.62355899 -12.96504057 10.89003126 -14.94921875 14.01171875 C-17.73859151 19.34754592 -19.99849832 24.92153707 -22.25 30.5 C-22.91 30.5 -23.57 30.5 -24.25 30.5 C-24.91 29.84 -25.57 29.18 -26.25 28.5 C-29.83054655 27.42924765 -29.83054655 27.42924765 -33.25 28.5 C-34.71845421 23.02667068 -33.69038726 20.38077452 -31.25 15.5 C-30.59 15.5 -29.93 15.5 -29.25 15.5 C-28.98703125 14.77039063 -28.7240625 14.04078125 -28.453125 13.2890625 C-26.0708699 7.76656205 -22.30406538 3.04054903 -17.5 -0.5625 C-11.51510786 -2.28891119 -5.72200004 -2.6409231 0 0 Z " fill="#2767FD" transform="translate(181.25,1.5)"/>
<path d="M0 0 C2.48945525 4.03463437 2.74246826 7.31279299 1.8125 11.9375 C0.01856332 14.80779869 -1.17013276 16.42881638 -4.1875 17.9375 C-3.259375 18.515 -2.33125 19.0925 -1.375 19.6875 C2.13656428 22.16625126 4.39050955 23.98456744 5.31640625 28.26953125 C5.45409113 34.09819128 4.60788807 37.26855572 0.61328125 41.5625 C-3.54185022 44.73518173 -7.45764725 45.18138486 -12.58203125 45.1328125 C-13.78408203 45.12636719 -14.98613281 45.11992187 -16.22460938 45.11328125 C-17.47048828 45.09652344 -18.71636719 45.07976562 -20 45.0625 C-21.89782227 45.04896484 -21.89782227 45.04896484 -23.83398438 45.03515625 C-26.95201564 45.01162394 -30.06966097 44.97874545 -33.1875 44.9375 C-33.1875 44.2775 -33.1875 43.6175 -33.1875 42.9375 C-31.5375 42.2775 -29.8875 41.6175 -28.1875 40.9375 C-28.1875 27.7375 -28.1875 14.5375 -28.1875 0.9375 C-30.6625 -0.0525 -30.6625 -0.0525 -33.1875 -1.0625 C-33.1875 -1.7225 -33.1875 -2.3825 -33.1875 -3.0625 C-22.56895142 -4.66529979 -9.39209275 -6.07723649 0 0 Z M-19.1875 -0.0625 C-19.1875 5.8775 -19.1875 11.8175 -19.1875 17.9375 C-13.07154809 17.69596148 -13.07154809 17.69596148 -7.625 15.3125 C-5.60406808 11.97356901 -5.7157657 9.77876505 -6.1875 5.9375 C-7.93478778 2.20946535 -7.93478778 2.20946535 -11.1875 -0.0625 C-13.8275 -0.0625 -16.4675 -0.0625 -19.1875 -0.0625 Z M-19.1875 20.9375 C-19.21638146 24.24998187 -19.23425799 27.56243167 -19.25 30.875 C-19.25837891 31.82052734 -19.26675781 32.76605469 -19.27539062 33.74023438 C-19.27861328 34.63935547 -19.28183594 35.53847656 -19.28515625 36.46484375 C-19.29039307 37.29749756 -19.29562988 38.13015137 -19.30102539 38.98803711 C-19.40393292 40.94266798 -19.40393292 40.94266798 -18.1875 41.9375 C-13.76110907 42.49537158 -10.20788412 42.44769206 -6.1875 40.4375 C-3.46991192 37.0405149 -3.04184733 34.22996976 -3.1875 29.9375 C-3.9404065 26.62471142 -4.98959825 25.15938984 -7.25 22.625 C-10.35004974 20.84412036 -11.42409604 20.74780597 -14.87109375 20.83203125 C-15.6798999 20.8472583 -16.48870605 20.86248535 -17.32202148 20.87817383 C-17.93762939 20.89775146 -18.5532373 20.9173291 -19.1875 20.9375 Z " fill="#000000" transform="translate(283.1875,254.0625)"/>
<path d="M0 0 C0.99 0 1.98 0 3 0 C9.14141895 11.16237249 14.8040861 22.41310593 19.6875 34.1875 C20.3379126 35.75467773 20.3379126 35.75467773 21.00146484 37.35351562 C24 44.71233407 24 44.71233407 24 47 C26.23310552 45.92424145 28.46124501 44.83977517 30.6875 43.75 C31.31333984 43.44964844 31.93917969 43.14929688 32.58398438 42.83984375 C37.40035411 40.46948377 41.35194078 37.74794159 45.0625 33.8125 C47.09754283 31.90875025 48.28148409 31.38835942 51 31 C51 31.66 51 32.32 51 33 C55.5318934 33.30899273 57.55585992 32.95212007 61 30 C61.66 30 62.32 30 63 30 C57.50350908 42.23238665 41.35762752 51.48050432 29.703125 57.01171875 C25.83530291 58.42582133 23.07052694 58.5276609 19 58 C18.34 57.67 17.68 57.34 17 57 C17 56.34 17 55.68 17 55 C16.34 54.67 15.68 54.34 15 54 C14.17970881 51.9433279 13.44463882 49.85244017 12.75 47.75 C10.30084445 40.59057883 7.2719268 33.82473826 4 27 C2.9391391 24.76142533 1.88155064 22.52133687 0.82543945 20.28051758 C0.12427795 18.79367318 -0.57891333 17.30778377 -1.28442383 15.82299805 C-2.97370444 12.25403023 -4.58726793 8.69040213 -6 5 C-3 6 -3 6 -1.1328125 9.34375 C-0.10883534 11.42784469 0.88555052 13.52272741 1.86328125 15.62890625 C3.85281525 19.80860956 3.85281525 19.80860956 7.7578125 21.96875 C8.49773437 21.9790625 9.23765625 21.989375 10 22 C8.44077473 15.44851836 6.28236668 10.36214935 2.3046875 4.91015625 C1 3 1 3 0 0 Z " fill="#AB2EFE" transform="translate(92,177)"/>
<path d="M0 0 C13.53 0 27.06 0 41 0 C41 4.62 41 9.24 41 14 C40.34 14 39.68 14 39 14 C38.0234375 12.20963542 37.046875 10.41927083 36.0703125 8.62890625 C35.08589976 6.83381685 35.08589976 6.83381685 33 6 C30.03 5.67 27.06 5.34 24 5 C24.33 18.86 24.66 32.72 25 47 C28.465 47.495 28.465 47.495 32 48 C32 48.66 32 49.32 32 50 C24.41 50 16.82 50 9 50 C9 49.34 9 48.68 9 48 C10.98 47.34 12.96 46.68 15 46 C15.33 32.8 15.66 19.6 16 6 C8.58172346 5.20906795 8.58172346 5.20906795 5.625 7.75 C4.15631885 9.78355851 2.98685279 11.69734349 2 14 C1.01 14 0.02 14 -1 14 C-0.67 9.38 -0.34 4.76 0 0 Z " fill="#000000" transform="translate(124,249)"/>
<path d="M0 0 C0.99 0 1.98 0 3 0 C3.19156677 0.51729675 3.38313354 1.03459351 3.58050537 1.56756592 C5.57924234 6.95822446 7.59326981 12.34298841 9.61621094 17.72460938 C10.36883652 19.73290745 11.11757122 21.7426682 11.86230469 23.75390625 C12.93441733 26.64718089 14.02048401 29.53487988 15.109375 32.421875 C15.43871033 33.31992859 15.76804565 34.21798218 16.10736084 35.14324951 C18.08309245 40.33257591 19.79195854 44.39597927 25 47 C25 47.66 25 48.32 25 49 C18.73 49 12.46 49 6 49 C6 48.34 6 47.68 6 47 C8.475 46.505 8.475 46.505 11 46 C9.35 41.38 7.7 36.76 6 32 C1.38 32 -3.24 32 -8 32 C-8.495 33.588125 -8.99 35.17625 -9.5 36.8125 C-9.7784375 37.70582031 -10.056875 38.59914063 -10.34375 39.51953125 C-11.12788351 42.05573395 -11.12788351 42.05573395 -11 45 C-8.53673288 46.6446674 -8.53673288 46.6446674 -6 48 C-6 48.33 -6 48.66 -6 49 C-11.61 49 -17.22 49 -23 49 C-23 48.34 -23 47.68 -23 47 C-21.89156738 46.49460693 -21.89156738 46.49460693 -20.76074219 45.97900391 C-16.58489947 42.98560268 -15.58153858 39.05017401 -13.828125 34.3359375 C-13.46023865 33.38812408 -13.09235229 32.44031067 -12.71331787 31.46377563 C-11.54317157 28.43995843 -10.39603468 25.40802763 -9.25 22.375 C-8.08491349 19.33685347 -6.91525401 16.30051111 -5.74383545 13.26480103 C-5.01679879 11.37581297 -4.2943926 9.48503524 -3.57696533 7.59237671 C-3.25282654 6.74124298 -2.92868774 5.89010925 -2.59472656 5.01318359 C-2.31002502 4.26056244 -2.02532349 3.50794128 -1.73199463 2.73251343 C-1 1 -1 1 0 0 Z M-2 13 C-3.65 17.95 -5.3 22.9 -7 28 C-3.04 28 0.92 28 5 28 C3.35 23.05 1.7 18.1 0 13 C-0.66 13 -1.32 13 -2 13 Z " fill="#000001" transform="translate(224,250)"/>
<path d="M0 0 C2.93756119 -0.0269501 5.87487555 -0.04681474 8.8125 -0.0625 C9.64587891 -0.07087891 10.47925781 -0.07925781 11.33789062 -0.08789062 C12.14033203 -0.09111328 12.94277344 -0.09433594 13.76953125 -0.09765625 C14.87711792 -0.10551147 14.87711792 -0.10551147 16.00708008 -0.11352539 C18 0 18 0 21 1 C21 1.66 21 2.32 21 3 C19.02 3.33 17.04 3.66 15 4 C15 17.86 15 31.72 15 46 C21.435 45.505 21.435 45.505 28 45 C30.08231683 42.39710397 32.15099935 39.77350098 34 37 C34.66 37 35.32 37 36 37 C36.19157797 41.88523811 35.87404046 44.31489886 34 49 C22.78 49 11.56 49 0 49 C0 48.34 0 47.68 0 47 C1.65 46.34 3.3 45.68 5 45 C6.21923837 38.34257144 6.14771012 31.75247495 6.125 25 C6.12886719 23.85015625 6.13273438 22.7003125 6.13671875 21.515625 C6.13025686 15.90670414 6.01133121 10.52218947 5 5 C2.525 4.01 2.525 4.01 0 3 C0 2.01 0 1.02 0 0 Z " fill="#000001" transform="translate(166,250)"/>
<path d="M0 0 C0.33 0.66 0.66 1.32 1 2 C4.43407381 2.83582968 4.43407381 2.83582968 8 3 C8.66 2.34 9.32 1.68 10 1 C11.5415101 4.88796648 13.05450291 8.78642581 14.5625 12.6875 C15.21895508 14.34168945 15.21895508 14.34168945 15.88867188 16.02929688 C16.29794922 17.09599609 16.70722656 18.16269531 17.12890625 19.26171875 C17.51119385 20.24100342 17.89348145 21.22028809 18.28735352 22.22924805 C19.07615464 25.29608736 18.97923234 27.00881414 18 30 C17.34 30.66 16.68 31.32 16 32 C16 31.34 16 30.68 16 30 C14.02 30.99 14.02 30.99 12 32 C12.33 33.65 12.66 35.3 13 37 C12.01 36.34 11.02 35.68 10 35 C9.63239269 32.67182036 9.29758419 30.3381615 9 28 C8.34 27.67 7.68 27.34 7 27 C6.30046277 25.02483604 5.69015089 23.01772879 5.125 21 C3.9077778 16.8109183 2.60092004 12.91953172 0.6875 9 C-0.66819383 6.13563522 -1.01619636 5.19840542 -0.75 1.9375 C-0.5025 1.298125 -0.255 0.65875 0 0 Z " fill="#395FFD" transform="translate(193,38)"/>
<path d="M0 0 C1.86328125 0.109375 1.86328125 0.109375 4 1 C5.23046875 3.765625 5.23046875 3.765625 6.1875 7.25 C6.67283203 8.95929687 6.67283203 8.95929687 7.16796875 10.703125 C7.86399403 13.46108431 8.4797714 16.20442813 9 19 C3.92913386 21.71653543 3.92913386 21.71653543 1 22 C-0.75 20.5625 -0.75 20.5625 -2 19 C-2 19.99 -2 20.98 -2 22 C-2.66 22 -3.32 22 -4 22 C-3.67 23.32 -3.34 24.64 -3 26 C-3.99 25.67 -4.98 25.34 -6 25 C-5.719172 23.01926635 -5.42503386 21.04041552 -5.125 19.0625 C-4.96257812 17.96035156 -4.80015625 16.85820313 -4.6328125 15.72265625 C-4.42398438 14.82417969 -4.21515625 13.92570312 -4 13 C-3.34 12.67 -2.68 12.34 -2 12 C-1.56978387 9.97479485 -1.56978387 9.97479485 -1.4375 7.625 C-1.21246912 4.80522535 -0.90445432 2.71336297 0 0 Z " fill="#80BCFD" transform="translate(171,17)"/>
<path d="M0 0 C2 2 2 2 2.265625 3.875 C2.26046875 4.57625 2.2553125 5.2775 2.25 6 C2.25515625 6.70125 2.2603125 7.4025 2.265625 8.125 C2 10 2 10 0 12 C-6.05240175 12.55021834 -6.05240175 12.55021834 -8.9375 10.875 C-10.50422245 8.11019567 -10.38976435 6.11811483 -10 3 C-7.71933282 -1.02470679 -4.21240995 -0.38294636 0 0 Z M-7 4 C-6 8 -6 8 -6 8 Z M-1 4 C0 8 0 8 0 8 Z " fill="#010103" transform="translate(298,252)"/>
<path d="M0 0 C1.65791796 3.01999926 2.54696274 5.84414715 3.2890625 9.203125 C3.50820312 10.1828125 3.72734375 11.1625 3.953125 12.171875 C4.17484375 13.18765625 4.3965625 14.2034375 4.625 15.25 C4.85445312 16.28125 5.08390625 17.3125 5.3203125 18.375 C5.88490502 20.91566634 6.44461898 23.45730703 7 26 C6.01 26 5.02 26 4 26 C3.8046875 24.01432292 3.609375 22.02864583 3.4140625 20.04296875 C3.07334609 17.70011858 3.07334609 17.70011858 1 15 C0.33203125 12.6953125 0.33203125 12.6953125 -0.1875 10.125 C-0.45626953 8.86042969 -0.45626953 8.86042969 -0.73046875 7.5703125 C-1.0200913 4.80840467 -0.67706227 2.6794379 0 0 Z " fill="#90BAFE" transform="translate(186,66)"/>
<path d="M0 0 C0.99 0 1.98 0 3 0 C6.63 6.93 10.26 13.86 14 21 C13.34 21.33 12.68 21.66 12 22 C11.67 20.68 11.34 19.36 11 18 C10.34 18 9.68 18 9 18 C8.62875 17.071875 8.2575 16.14375 7.875 15.1875 C5.63495532 9.92826466 2.78532643 4.98474277 0 0 Z " fill="#9838FE" transform="translate(92,177)"/>
<path d="M0 0 C0.99 0.33 1.98 0.66 3 1 C0.54976242 3.50804718 -1.91147598 6.0050076 -4.375 8.5 C-5.42300781 9.57314453 -5.42300781 9.57314453 -6.4921875 10.66796875 C-7.1625 11.34472656 -7.8328125 12.02148438 -8.5234375 12.71875 C-9.14138184 13.34716797 -9.75932617 13.97558594 -10.39599609 14.62304688 C-12 16 -12 16 -14 16 C-13.1875 14.0625 -13.1875 14.0625 -12 12 C-11.01 11.67 -10.02 11.34 -9 11 C-8.30640354 9.68047502 -7.64334704 8.34474043 -7 7 C-5.2734375 5.078125 -5.2734375 5.078125 -3.375 3.25 C-2.74335938 2.63640625 -2.11171875 2.0228125 -1.4609375 1.390625 C-0.73777344 0.70226562 -0.73777344 0.70226562 0 0 Z " fill="#8942FE" transform="translate(185,172)"/>
<path d="M0 0 C-1.61010527 4.07376031 -4.53822271 6.76507069 -7.625 9.75 C-8.140625 10.25660156 -8.65625 10.76320312 -9.1875 11.28515625 C-10.45383339 12.52803902 -11.7263144 13.76465276 -13 15 C-13.99 14.67 -14.98 14.34 -16 14 C-13.71643754 11.65861457 -11.42186626 9.32833018 -9.125 7 C-8.47402344 6.33226562 -7.82304687 5.66453125 -7.15234375 4.9765625 C-6.52714844 4.34492188 -5.90195313 3.71328125 -5.2578125 3.0625 C-4.6817627 2.47597656 -4.10571289 1.88945312 -3.51220703 1.28515625 C-2 0 -2 0 0 0 Z " fill="#C6B6FE" transform="translate(146,191)"/>
<path d="M0 0 C4.00641016 1.33547005 4.92462273 3.78565422 6.8125 7.3125 C7.45832031 8.46363281 8.10414062 9.61476562 8.76953125 10.80078125 C10 14 10 14 9.19921875 16.41796875 C8.80347656 16.94003906 8.40773438 17.46210938 8 18 C6.66180502 15.3773768 5.3292849 12.75213401 4 10.125 C3.6184375 9.37863281 3.236875 8.63226563 2.84375 7.86328125 C2.4828125 7.14785156 2.121875 6.43242187 1.75 5.6953125 C1.41484375 5.03547363 1.0796875 4.37563477 0.734375 3.69580078 C0 2 0 2 0 0 Z " fill="#9D35FC" transform="translate(86,182)"/>
<path d="M0 0 C1 2 1 2 0.46875 3.9609375 C-6.96356275 22.48178138 -6.96356275 22.48178138 -12 25 C-10.09244364 19.95487826 -7.74795706 15.11911488 -5.4375 10.25 C-5.02564453 9.37472656 -4.61378906 8.49945313 -4.18945312 7.59765625 C-3.79564453 6.76621094 -3.40183594 5.93476562 -2.99609375 5.078125 C-2.63700928 4.31918945 -2.2779248 3.56025391 -1.90795898 2.77832031 C-1 1 -1 1 0 0 Z " fill="#6253F7" transform="translate(128,76)"/>
<path d="M0 0 C-1.58561638 3.85593074 -4.06509954 6.33216291 -7 9.25 C-7.886875 10.14203125 -8.77375 11.0340625 -9.6875 11.953125 C-12 14 -12 14 -14 14 C-12.41438362 10.14406926 -9.93490046 7.66783709 -7 4.75 C-6.113125 3.85796875 -5.22625 2.9659375 -4.3125 2.046875 C-2 0 -2 0 0 0 Z " fill="#B8B9FE" transform="translate(175,159)"/>
<path d="M0 0 C0 4.10560643 -1.6620274 5.42771384 -4.25 8.5625 C-5.03890625 9.53316406 -5.8278125 10.50382813 -6.640625 11.50390625 C-8.75135735 13.73694925 -10.17747448 14.90594768 -13 16 C-11.3383196 11.87582937 -8.37661982 8.93445961 -5.375 5.75 C-4.859375 5.19570312 -4.34375 4.64140625 -3.8125 4.0703125 C-2.54574965 2.7097288 -1.27342185 1.35434163 0 0 Z " fill="#893EFD" transform="translate(174,171)"/>
<path d="M0 0 C0.66 0 1.32 0 2 0 C0.36986054 3.63646495 -1.30456062 6.12268845 -4.90234375 7.984375 C-5.57394531 8.23703125 -6.24554688 8.4896875 -6.9375 8.75 C-7.60652344 9.01296875 -8.27554688 9.2759375 -8.96484375 9.546875 C-11.31647491 10.07046274 -12.73617523 9.74954377 -15 9 C-14.00097656 8.51789063 -13.00195312 8.03578125 -11.97265625 7.5390625 C-10.66911549 6.90135911 -9.36573849 6.26332089 -8.0625 5.625 C-7.40314453 5.30789062 -6.74378906 4.99078125 -6.06445312 4.6640625 C-2.38695193 3.04522631 -2.38695193 3.04522631 0 0 Z " fill="#6B4AF8" transform="translate(75,93)"/>
<path d="M0 0 C2.71743027 2.71743027 3.50932886 5.86942046 4.6875 9.4375 C4.92533203 10.11876953 5.16316406 10.80003906 5.40820312 11.50195312 C7.12211809 16.63364573 7.12211809 16.63364573 6 20 C3.72249876 17.72249876 3.6130056 16.83283135 3.0625 13.75 C2.4380479 10.61766769 1.76980937 8.53961874 0.3125 5.625 C-0.120625 4.75875 -0.55375 3.8925 -1 3 C-0.67 2.01 -0.34 1.02 0 0 Z " fill="#5157FE" transform="translate(220,89)"/>
<path d="M0 0 C0.66 0.33 1.32 0.66 2 1 C-2.46351289 6.22325977 -7.0744893 11.20922972 -12 16 C-12 12.53867696 -11.64823482 12.25491372 -9.375 9.86328125 C-8.83359375 9.28642578 -8.2921875 8.70957031 -7.734375 8.11523438 C-7.16203125 7.52033203 -6.5896875 6.92542969 -6 6.3125 C-5.42765625 5.70599609 -4.8553125 5.09949219 -4.265625 4.47460938 C-2.8503661 2.97679371 -1.42602723 1.4875671 0 0 Z " fill="#6051FD" transform="translate(90,77)"/>
<path d="M0 0 C1.051875 0.61875 2.10375 1.2375 3.1875 1.875 C6.05015677 3.51579108 8.89207246 4.86984453 12 6 C11.01 6.66 10.02 7.32 9 8 C7 7 7 7 5 6 C4.278125 5.71125 3.55625 5.4225 2.8125 5.125 C1 4 1 4 0.25 1.875 C0.1675 1.25625 0.085 0.6375 0 0 Z " fill="#923AF8" transform="translate(50,167)"/>
<path d="M0 0 C0.66 0 1.32 0 2 0 C0.54875366 3.82601307 -1.35774704 5.22329124 -5 7 C-5.99 7 -6.98 7 -8 7 C-8 5.68 -8 4.36 -8 3 C-6.576875 2.814375 -6.576875 2.814375 -5.125 2.625 C-1.91332809 2.28312823 -1.91332809 2.28312823 0 0 Z " fill="#C0ACFD" transform="translate(127,207)"/>
<path d="M0 0 C0.66 0 1.32 0 2 0 C2 0.66 2 1.32 2 2 C1.34 2 0.68 2 0 2 C-0.226875 2.5775 -0.45375 3.155 -0.6875 3.75 C-2.33038023 6.5663661 -4.39533227 8.08077114 -7 10 C-6.52727227 5.74545047 -4.03562624 3.80795427 -1 1 C-0.67 0.67 -0.34 0.34 0 0 Z " fill="#9936FD" transform="translate(154,194)"/>
<path d="M0 0 C1.5625 1.1875 1.5625 1.1875 3 3 C2.875 5.5625 2.875 5.5625 2 8 C1.01 8.66 0.02 9.32 -1 10 C-1.66 9.01 -2.32 8.02 -3 7 C-2.01 7 -1.02 7 0 7 C0 4.69 0 2.38 0 0 Z " fill="#863EFC" transform="translate(259,191)"/>
<path d="M0 0 C2.97069541 2.54631035 4.4775751 5.42230149 6 9 C5.67 9.66 5.34 10.32 5 11 C2.65808437 8.8709858 1.16445046 6.95591271 0 4 C0 2.68 0 1.36 0 0 Z " fill="#C6B6FE" transform="translate(109,186)"/>
<path d="M0 0 C-1.24176695 0.70226141 -2.49385599 1.38629109 -3.75 2.0625 C-4.79414063 2.63677734 -4.79414063 2.63677734 -5.859375 3.22265625 C-8.36140628 4.1312406 -9.5332355 3.88336837 -12 3 C-3.75 -1.125 -3.75 -1.125 0 0 Z " fill="#8540FE" transform="translate(201,166)"/>
<path d="M0 0 C0.66 0 1.32 0 2 0 C1.25749403 4.08378283 0.17076699 8.01939223 -1 12 C-1.66 11.67 -2.32 11.34 -3 11 C-2.69217504 9.35328588 -2.37860766 7.70764424 -2.0625 6.0625 C-1.88847656 5.14597656 -1.71445313 4.22945313 -1.53515625 3.28515625 C-1 1 -1 1 0 0 Z " fill="#90AFFA" transform="translate(157,76)"/>
<path d="M0 0 C0.66 0 1.32 0 2 0 C0.55922954 3.36179774 -1.24750021 5.59156268 -4 8 C-4.66 8 -5.32 8 -6 8 C-5.1875 6.0625 -5.1875 6.0625 -4 4 C-3.01 3.67 -2.02 3.34 -1 3 C-0.67 2.01 -0.34 1.02 0 0 Z " fill="#9139FE" transform="translate(177,180)"/>
<path d="M0 0 C2.31 1.65 4.62 3.3 7 5 C6.67 5.99 6.34 6.98 6 8 C1.3125 4.38671875 1.3125 4.38671875 0 3 C0 2.01 0 1.02 0 0 Z " fill="#8D3BFA" transform="translate(27,150)"/>
<path d="M0 0 C0.66 0 1.32 0 2 0 C1.67 2.31 1.34 4.62 1 7 C0.01 7 -0.98 7 -2 7 C-1.34 4.69 -0.68 2.38 0 0 Z " fill="#8CB6FC" transform="translate(160,66)"/>
<path d="M0 0 C-1.39332574 3.36720387 -2.9789286 4.9859524 -6 7 C-5.37162381 3.35541809 -4.14650034 0 0 0 Z " fill="#9738FF" transform="translate(155,207)"/>
<path d="M0 0 C0.33 0.99 0.66 1.98 1 3 C-0.65 4.32 -2.3 5.64 -4 7 C-4.66 6.67 -5.32 6.34 -6 6 C-4.02 4.02 -2.04 2.04 0 0 Z " fill="#8E48FF" transform="translate(146,202)"/>
<path d="M0 0 C3.36720387 1.39332574 4.9859524 2.9789286 7 6 C6.01 6 5.02 6 4 6 C0 1.54285714 0 1.54285714 0 0 Z " fill="#8240FE" transform="translate(226,174)"/>
<path d="M0 0 C1.98 1.65 3.96 3.3 6 5 C5.67 5.66 5.34 6.32 5 7 C3.02 5.35 1.04 3.7 -1 2 C-0.67 1.34 -0.34 0.68 0 0 Z " fill="#9338FF" transform="translate(83,164)"/>
<path d="M0 0 C0.66 0 1.32 0 2 0 C2.33 2.31 2.66 4.62 3 7 C2.01 7.495 2.01 7.495 1 8 C0.67 5.36 0.34 2.72 0 0 Z " fill="#8CBEFE" transform="translate(183,59)"/>
<path d="M0 0 C0.66 0 1.32 0 2 0 C1.67 2.64 1.34 5.28 1 8 C0.01 7.67 -0.98 7.34 -2 7 C-1.34 4.69 -0.68 2.38 0 0 Z " fill="#89BDFC" transform="translate(163,53)"/>
<path d="" fill="#614ED1" transform="translate(0,0)"/>
<path d="" fill="#614ED1" transform="translate(0,0)"/>
<path d="" fill="#614ED1" transform="translate(0,0)"/>
<path d="" fill="#614ED1" transform="translate(0,0)"/>
<path d="" fill="#614ED1" transform="translate(0,0)"/>
<path d="" fill="#614ED1" transform="translate(0,0)"/>
</svg>
