<?xml version="1.0" encoding="UTF-8"?>
<svg version="1.1" xmlns="http://www.w3.org/2000/svg" width="2560" height="1229">
<path d="M0 0 C1.13784439 0.00040031 1.13784439 0.00040031 2.29867554 0.00080872 C26.74822856 0.01158171 51.1111633 0.32198375 75.5 2.1875 C76.3717688 2.25302063 77.2435376 2.31854126 78.14172363 2.38604736 C159.52166639 8.53851389 241.09558183 22.31400074 358.5 71.1875 C359.36061035 71.61385742 360.2212207 72.04021484 361.10791016 72.47949219 C404.88164192 94.26700975 452.13866849 129.70672075 468.40771484 177.875 C471.920589 189.03559303 474.64262948 199.62322081 474.65821838 211.40367126 C474.66315707 212.21153678 474.66809575 213.0194023 474.6731841 213.85174859 C474.6885661 216.57425954 474.6969468 219.29674621 474.70532227 222.01928711 C474.71493211 224.00839897 474.72493283 225.99750897 474.73528671 227.98661709 C474.76272602 233.53589648 474.78364241 239.08518435 474.80327249 244.63449621 C474.82122087 249.52733857 474.84246666 254.42016491 474.86352271 259.31299472 C474.9320893 275.34242858 474.98790001 291.37189395 475.04035332 307.40138726 C475.05742297 312.61224212 475.07504299 317.82309491 475.09294128 323.03394699 C475.39277424 410.54622161 475.53347332 498.05887192 475.72300434 707.94866657 C475.72368579 709.41545689 475.72436742 710.88224721 475.72504922 712.34903752 C475.72573002 713.81601709 475.72641073 715.28299665 475.72709137 716.74997622 C475.72759732 717.83928001 475.72759732 717.83928001 475.72811348 718.95058993 C475.7298151 722.61690709 475.73150378 726.28322426 475.73316901 729.94954144 C475.74292713 751.25792839 475.76001368 772.56630012 475.78150656 793.87467824 C475.80787605 820.02644189 475.82366289 846.17818336 475.82383865 872.32996106 C475.82412701 885.53106173 475.82929407 898.73212611 475.84760094 911.93321609 C475.86295913 923.01767221 475.86816351 934.10207331 475.8599609 945.18653812 C475.85610909 950.79929577 475.85695258 956.4119421 475.87108433 962.02468574 C475.88389716 967.15872879 475.88256054 972.29257658 475.87048618 977.42661963 C475.86854381 979.26684811 475.87152967 981.1070909 475.88032772 982.94729938 C476.07590585 1026.64045269 459.40666881 1059.6586609 429.125 1090.75 C424.19579524 1095.59480057 418.9593161 1099.956954 413.5 1104.1875 C412.53006104 1104.94740234 412.53006104 1104.94740234 411.54052734 1105.72265625 C394.51718268 1118.97478377 376.03237985 1129.95473358 356.55078125 1139.20263672 C354.3122648 1140.27765759 352.09408439 1141.38935381 349.875 1142.50390625 C309.56725994 1162.52695848 265.01212222 1174.99902271 221.1875 1184.5 C220.42521088 1184.66535248 219.66292175 1184.83070496 218.87753296 1185.00106812 C209.65081782 1186.99068828 209.65081782 1186.99068828 206.106884 1187.66873169 C204.2156792 1188.04508028 202.33362942 1188.46840219 200.45894241 1188.91989136 C185.84140556 1192.05819101 171.01681921 1191.65178937 156.14431894 1191.65296924 C152.03262483 1191.65650728 147.92100752 1191.67716527 143.80935669 1191.69529724 C134.83882559 1191.73152294 125.86834384 1191.74565221 116.89775014 1191.75513434 C111.27318412 1191.76118803 105.64863325 1191.77196202 100.02407646 1191.78363991 C84.38770355 1191.81538424 68.75134401 1191.8420881 53.11493778 1191.84839153 C51.61759579 1191.84900224 51.61759579 1191.84900224 50.09000447 1191.84962528 C48.06711924 1191.85043287 46.04423401 1191.8512386 44.02134878 1191.85204246 C43.01745554 1191.85244804 42.0135623 1191.85285362 40.97924805 1191.85327148 C39.97409774 1191.85367346 38.96894744 1191.85407544 37.93333804 1191.8544896 C21.70902648 1191.86195172 5.48504976 1191.90630721 -10.73914116 1191.9671289 C-27.47990178 1192.02937142 -44.22049693 1192.06076083 -60.9613753 1192.06221896 C-70.32667412 1192.06370545 -79.69155708 1192.07755875 -89.05674553 1192.12503624 C-163.17193792 1192.48505553 -163.17193792 1192.48505553 -196.42985845 1183.71845269 C-200.17871603 1182.75694065 -203.9540635 1181.90958529 -207.72764587 1181.05131531 C-215.68962944 1179.23900218 -223.59740085 1177.24282956 -231.5 1175.1875 C-232.70269531 1174.87876953 -233.90539062 1174.57003906 -235.14453125 1174.25195312 C-301.57083654 1157.08274963 -368.31318613 1130.74767405 -420.5 1085.1875 C-421.25724365 1084.52717773 -421.25724365 1084.52717773 -422.02978516 1083.85351562 C-427.9760408 1078.63811736 -433.5194953 1073.3325486 -438.5 1067.1875 C-438.90718262 1066.69266113 -439.31436523 1066.19782227 -439.73388672 1065.68798828 C-446.37763189 1057.58965288 -452.35749406 1049.34263891 -457.5 1040.1875 C-457.83628418 1039.59275879 -458.17256836 1038.99801758 -458.51904297 1038.38525391 C-462.8817386 1030.55535254 -466.25491821 1022.63872649 -468.875 1014.0625 C-469.1136377 1013.2883374 -469.35227539 1012.5141748 -469.59814453 1011.71655273 C-472.93229757 1000.11693063 -473.79824086 988.35959973 -473.75168228 976.34359169 C-473.75377458 975.0035867 -473.75674152 973.66358284 -473.76049101 972.32358146 C-473.76821861 968.66813563 -473.76365138 965.01279664 -473.75693511 961.35735272 C-473.75183379 957.37024677 -473.75839255 953.38315642 -473.76342177 949.39605272 C-473.77062757 942.41686177 -473.77043685 935.4377018 -473.76532745 928.45850945 C-473.75775014 918.07994748 -473.76163641 907.70141154 -473.76774407 897.32284974 C-473.77826798 878.78420856 -473.77736572 860.24558118 -473.77158624 841.7069387 C-473.76655301 825.4821082 -473.76524271 809.25728275 -473.76763153 793.03245163 C-473.7677843 791.95577184 -473.76793707 790.87909205 -473.76809447 789.7697856 C-473.76871716 785.39905189 -473.76935396 781.02831819 -473.770014 776.65758449 C-473.77613084 735.66343735 -473.77058706 694.669299 -473.7598202 653.67515322 C-473.75033048 617.26682922 -473.75117725 580.8585192 -473.76074219 544.45019531 C-473.77145562 503.53352912 -473.77569567 462.6168707 -473.76951766 421.7002033 C-473.76887624 417.33686217 -473.76825056 412.97352104 -473.76763153 408.6101799 C-473.76747338 407.53583545 -473.76731522 406.461491 -473.76715227 405.35459066 C-473.76487892 389.14268869 -473.76753495 372.93079233 -473.77259064 356.71889114 C-473.778312 338.28061143 -473.77687347 319.84234765 -473.76602915 301.40406992 C-473.76016248 291.08938134 -473.75976469 280.77472729 -473.7673215 270.46003962 C-473.77181537 263.56462949 -473.76899869 256.66924697 -473.76031196 249.77384092 C-473.75556806 245.84884925 -473.75389914 241.92392605 -473.76112393 237.99893661 C-473.83883795 192.30118356 -462.59367422 156.42228264 -430.5 123.1875 C-429.70207031 122.33800781 -428.90414062 121.48851562 -428.08203125 120.61328125 C-421.9364919 114.22713351 -415.23627404 108.81292056 -408.18896484 103.47509766 C-406.67076919 102.31768744 -405.17194344 101.13497385 -403.67578125 99.94921875 C-330.63613739 42.95537397 -229.45349093 21.11665959 -76.75 2.4375 C-75.9453833 2.37815277 -75.1407666 2.31880554 -74.31176758 2.25765991 C-49.55029256 0.46702304 -24.81708343 -0.01962448 0 0 Z M-86.5 81.1875 C-87.41048096 81.27471313 -88.32096191 81.36192627 -89.2590332 81.45178223 C-128.77138927 85.26467836 -167.80805644 91.29847172 -206.5 100.1875 C-207.17681824 100.34285217 -207.85363647 100.49820435 -208.55096436 100.65826416 C-263.53163393 113.36227866 -321.47464478 132.79274667 -365.5 169.1875 C-366.07218262 169.6604248 -366.64436523 170.13334961 -367.23388672 170.62060547 C-380.78348879 182.00421091 -393.73130324 197.24159331 -395.75 215.44140625 C-396.59477041 231.88803011 -386.97277792 245.16144155 -376.58203125 256.91796875 C-318.76749407 319.82003557 -209.42529187 339.68764777 -41.89403152 358.09796906 C-28.74693891 358.58963828 -15.57916732 358.53403402 -2.42498398 358.50555801 C0.23550731 358.49989787 2.89599217 358.49708958 5.55648804 358.49447632 C33.29303949 358.4549291 60.87527886 357.87327229 88.5 355.1875 C89.41048096 355.10028687 90.32096191 355.01307373 91.2590332 354.92321777 C130.7704147 351.11041568 169.80974473 345.08079108 208.5 336.1875 C209.18624451 336.02979126 209.87248901 335.87208252 210.57952881 335.70959473 C232.68835581 330.59360212 254.11193736 323.70760476 275.5 316.1875 C276.55960938 315.81625 277.61921875 315.445 278.7109375 315.0625 C307.15363372 304.97755508 335.55949406 291.74530395 359.5 273.1875 C360.43457031 272.47464844 361.36914062 271.76179687 362.33203125 271.02734375 C377.71829811 258.89882724 393.59159125 243.6652982 397.27734375 223.5546875 C398.52516968 210.28832757 393.55195828 198.52694643 385.5 188.1875 C382.61368126 184.74056935 379.59177467 181.45048044 376.5 178.1875 C375.74976563 177.3728125 374.99953125 176.558125 374.2265625 175.71875 C316.11509639 114.71136366 207.09509069 95.58644335 63.63717651 79.32824707 C62.23748155 79.23606799 60.83799032 79.14072816 59.43875122 79.04187012 C40.55885365 77.73544802 21.60220846 77.94175097 2.6875 77.9375 C1.78699039 77.93705814 0.88648079 77.93661629 -0.04131699 77.93616104 C-28.96204172 77.92872879 -57.69223973 78.3867085 -86.5 81.1875 Z M-395.5 342.1875 C-395.59368118 359.19087472 -395.66409519 376.19416823 -395.70724869 393.19774246 C-395.72782335 401.09383044 -395.75584565 408.98975752 -395.80175781 416.88574219 C-395.84178257 423.77252529 -395.8674698 430.65919179 -395.87635398 437.54608798 C-395.88154247 441.18849811 -395.89362894 444.83057484 -395.92292023 448.4728775 C-395.95544975 452.55140101 -395.95594947 456.62935479 -395.95410156 460.70800781 C-395.96848267 461.89916199 -395.98286377 463.09031616 -395.99768066 464.31756592 C-395.90316464 483.69231172 -385.50701219 497.96710089 -372.5625 511.5 C-307.27596376 575.174523 -197.16887861 596.40969931 -93.5 609.1875 C-92.80128784 609.26528687 -92.10257568 609.34307373 -91.38269043 609.42321777 C-58.81974441 613.0237707 -26.23599337 614.59011272 6.5 615.1875 C7.45052246 615.20554687 8.40104492 615.22359375 9.38037109 615.2421875 C14.75666859 615.33037774 20.12409029 615.28311711 25.5 615.1875 C26.70769043 615.16961426 27.91538086 615.15172852 29.15966797 615.13330078 C117.54998961 613.75830915 208.85787891 603.39841113 370.5 526.1875 C371.263125 525.56875 372.02625 524.95 372.8125 524.3125 C384.07184149 514.92971542 394.83523621 500.8988531 397.5 486.1875 C397.7863503 481.51737767 397.75313377 476.85087189 397.72705078 472.17407227 C397.72648602 470.75433866 397.72680449 469.33460448 397.72793579 467.91487122 C397.72850778 464.07651349 397.71677853 460.23828169 397.70278788 456.39995313 C397.69025474 452.38276645 397.68910798 448.36557663 397.68673706 444.34837341 C397.68052987 436.74831222 397.66412938 429.14830882 397.64403808 421.54827303 C397.62165536 412.89290262 397.61067969 404.23752939 397.60064721 395.58213723 C397.57976246 377.7838921 397.54460131 359.9857007 397.5 342.1875 C395.73087534 343.14657307 393.96245532 344.106946 392.19433594 345.06787109 C391.20947205 345.60253998 390.22460815 346.13720886 389.2098999 346.68807983 C386.31380743 348.29052259 383.52743118 350.01292181 380.75 351.8125 C370.99700275 357.8704781 360.74181319 363.01436636 350.5 368.1875 C349.69288574 368.59645508 348.88577148 369.00541016 348.05419922 369.42675781 C270.78019488 408.23776321 180.26897981 424.47827397 58.5 434.1875 C57.17813187 434.2600853 57.17813187 434.2600853 55.82955933 434.33413696 C37.91271712 435.28015511 19.99904992 435.38967141 2.0625 435.375 C1.32854759 435.37473312 0.59459518 435.37446625 -0.16159821 435.37419128 C-24.65370506 435.36304501 -49.06600591 435.01273015 -73.5 433.1875 C-74.38335022 433.12197937 -75.26670044 433.05645874 -76.17681885 432.98895264 C-159.18238886 426.76120701 -243.13522886 412.78478947 -354.56445312 365.20019531 C-356.70525112 364.08011079 -358.85969468 362.98909527 -361.015625 361.8984375 C-372.07384831 356.25207084 -382.56125116 349.93637914 -392.94384766 343.13037109 C-394.33929155 342.10113323 -394.33929155 342.10113323 -395.5 342.1875 Z M-395.5 593.1875 C-395.59366637 610.84279523 -395.66408801 628.49801232 -395.70724869 646.1534996 C-395.72782645 654.35225508 -395.75585481 662.55085568 -395.80175781 670.74951172 C-395.84177293 677.89998333 -395.86746756 685.05034272 -395.87635398 692.2009232 C-395.88154406 695.98305621 -395.89364108 699.76486829 -395.92292023 703.54689789 C-395.95032221 707.11578664 -395.95839581 710.6842261 -395.95243073 714.25321007 C-395.95403453 716.16895189 -395.97542648 718.08464617 -395.99768066 720.0002594 C-395.90570456 739.55806794 -385.64749239 753.82023523 -372.5625 767.5 C-307.27596376 831.174523 -197.16887861 852.40969931 -93.5 865.1875 C-92.80128784 865.26528687 -92.10257568 865.34307373 -91.38269043 865.42321777 C-58.81974441 869.0237707 -26.23599337 870.59011272 6.5 871.1875 C7.45052246 871.20554687 8.40104492 871.22359375 9.38037109 871.2421875 C14.75666859 871.33037774 20.12409029 871.28311711 25.5 871.1875 C26.70769043 871.16961426 27.91538086 871.15172852 29.15966797 871.13330078 C117.54998961 869.75830915 208.85787891 859.39841113 370.5 782.1875 C371.263125 781.56875 372.02625 780.95 372.8125 780.3125 C384.09362826 770.91155978 394.79356839 756.91230511 397.5 742.1875 C397.78448386 737.6993431 397.75260108 733.22063341 397.72705078 728.72485352 C397.72648597 727.36423247 397.72680459 726.00361081 397.72793579 724.64299011 C397.72850757 720.96578197 397.71678165 717.28870537 397.70278788 713.61152768 C397.69025133 709.7625046 397.68910772 705.91347821 397.68673706 702.06443787 C397.68053087 694.78311915 397.66413174 687.50186079 397.64403808 680.2205686 C397.62165225 671.9279486 397.61067891 663.63532567 397.60064721 655.34268296 C397.57976472 638.29092045 397.54460553 621.23921661 397.5 604.1875 C393.31729236 605.79729063 389.6149933 607.83625115 385.8125 610.1875 C383.04583417 611.86111604 380.27359635 613.52539813 377.5 615.1875 C376.85466309 615.57470215 376.20932617 615.9619043 375.54443359 616.36083984 C301.58061847 660.26230352 210.69068661 677.33351005 81.76547241 690.04675293 C80.28496649 690.13873236 78.8046631 690.23404893 77.32461548 690.33312988 C57.52201973 691.63508872 37.64809382 691.43324904 17.8125 691.4375 C16.86814465 691.43794186 15.92378929 691.43838371 14.95081711 691.43883896 C-15.62789644 691.44633189 -46.02659646 690.96663904 -76.5 688.1875 C-77.44725952 688.10264343 -78.39451904 688.01778687 -79.3704834 687.93035889 C-165.41646963 680.16715007 -252.70299259 663.38940097 -341.5 623.1875 C-342.53060547 622.70313477 -343.56121094 622.21876953 -344.62304688 621.71972656 C-358.95877635 614.9154821 -372.56273736 607.21154608 -385.97485352 598.73632812 C-388.01878677 597.48265776 -390.07474538 596.27690277 -392.15782166 595.09069824 C-393.26074051 594.46264282 -394.36365936 593.8345874 -395.5 593.1875 Z M-395.5 849.1875 C-395.59366637 866.84279523 -395.66408801 884.49801232 -395.70724869 902.1534996 C-395.72782645 910.35225508 -395.75585481 918.55085568 -395.80175781 926.74951172 C-395.84177293 933.89998333 -395.86746756 941.05034272 -395.87635398 948.2009232 C-395.88154406 951.98305621 -395.89364108 955.76486829 -395.92292023 959.54689789 C-395.95032221 963.11578664 -395.95839581 966.6842261 -395.95243073 970.25321007 C-395.95403453 972.16895189 -395.97542648 974.08464617 -395.99768066 976.0002594 C-395.90570456 995.55806794 -385.64749239 1009.82023523 -372.5625 1023.5 C-307.27596376 1087.174523 -197.16887861 1108.40969931 -93.5 1121.1875 C-92.80128784 1121.26528687 -92.10257568 1121.34307373 -91.38269043 1121.42321777 C-58.81974441 1125.0237707 -26.23599337 1126.59011272 6.5 1127.1875 C7.45052246 1127.20554687 8.40104492 1127.22359375 9.38037109 1127.2421875 C14.75666859 1127.33037774 20.12409029 1127.28311711 25.5 1127.1875 C26.70769043 1127.16961426 27.91538086 1127.15172852 29.15966797 1127.13330078 C117.54998961 1125.75830915 208.85787891 1115.39841113 370.5 1038.1875 C371.263125 1037.56875 372.02625 1036.95 372.8125 1036.3125 C384.09362826 1026.91155978 394.79356839 1012.91230511 397.5 998.1875 C397.78448386 993.6993431 397.75260108 989.22063341 397.72705078 984.72485352 C397.72648597 983.36423247 397.72680459 982.00361081 397.72793579 980.64299011 C397.72850757 976.96578197 397.71678165 973.28870537 397.70278788 969.61152768 C397.69025133 965.7625046 397.68910772 961.91347821 397.68673706 958.06443787 C397.68053087 950.78311915 397.66413174 943.50186079 397.64403808 936.2205686 C397.62165225 927.9279486 397.61067891 919.63532567 397.60064721 911.34268296 C397.57976472 894.29092045 397.54460553 877.23921661 397.5 860.1875 C393.31729236 861.79729063 389.6149933 863.83625115 385.8125 866.1875 C383.04583417 867.86111604 380.27359635 869.52539813 377.5 871.1875 C376.85466309 871.57470215 376.20932617 871.9619043 375.54443359 872.36083984 C301.58061847 916.26230352 210.69068661 933.33351005 81.76547241 946.04675293 C80.28496649 946.13873236 78.8046631 946.23404893 77.32461548 946.33312988 C57.52201973 947.63508872 37.64809382 947.43324904 17.8125 947.4375 C16.86814465 947.43794186 15.92378929 947.43838371 14.95081711 947.43883896 C-15.62789644 947.44633189 -46.02659646 946.96663904 -76.5 944.1875 C-77.44725952 944.10264343 -78.39451904 944.01778687 -79.3704834 943.93035889 C-165.41646963 936.16715007 -252.70299259 919.38940097 -341.5 879.1875 C-342.53060547 878.70313477 -343.56121094 878.21876953 -344.62304688 877.71972656 C-358.95877635 870.9154821 -372.56273736 863.21154608 -385.97485352 854.73632812 C-388.01878677 853.48265776 -390.07474538 852.27690277 -392.15782166 851.09069824 C-393.26074051 850.46264282 -394.36365936 849.8345874 -395.5 849.1875 Z " fill="#DF6B1F" transform="translate(613.5,37.8125)"/>
<path d="M0 0 C1.11184368 0.9246421 2.2238298 1.84911296 3.3359375 2.7734375 C14.36904639 12.01295659 24.80053902 21.91153266 34 33 C34.42651855 33.49677246 34.85303711 33.99354492 35.29248047 34.50537109 C50.06041821 51.7139623 62.6800477 70.81276306 73 91 C73.40911621 91.79374023 73.81823242 92.58748047 74.23974609 93.40527344 C81.42907273 107.4969056 86.97936425 122.01169369 92 137 C92.25620117 137.74604492 92.51240234 138.49208984 92.77636719 139.26074219 C96.12107575 149.09447165 98.17506315 159.19935034 100.1875 169.375 C100.43781982 170.62812988 100.68813965 171.88125977 100.94604492 173.17236328 C104.30527881 190.80124101 105.38163787 208.19934884 105.3125 226.125 C105.30976578 227.60351944 105.30976578 227.60351944 105.30697632 229.11190796 C105.25988496 244.27026358 104.71124127 259.04981887 102 274 C101.82839355 274.97517578 101.65678711 275.95035156 101.47998047 276.95507812 C89.72879032 342.10644872 56.80467018 404.7505008 6 448 C4.90213024 448.9489718 3.80448787 449.8982067 2.70703125 450.84765625 C1.55544117 451.83681561 0.40310437 452.82510633 -0.75 453.8125 C-1.54676147 454.49747559 -1.54676147 454.49747559 -2.35961914 455.19628906 C-5.76611982 458.08162015 -9.252128 460.59305825 -13 463 C-11.69951624 466.61642461 -10.15511099 469.38670534 -7.796875 472.4140625 C-6.83201172 473.66413086 -6.83201172 473.66413086 -5.84765625 474.93945312 C-5.15542969 475.82568359 -4.46320312 476.71191406 -3.75 477.625 C-2.28516892 479.52244277 -0.82165155 481.42090037 0.640625 483.3203125 C1.74374023 484.75165527 1.74374023 484.75165527 2.86914062 486.21191406 C5.96864629 490.26740841 8.98875391 494.37877223 12 498.5 C17.83140582 506.47415961 23.80210391 514.33537731 29.84765625 522.1484375 C30.49089844 522.98503906 31.13414062 523.82164062 31.796875 524.68359375 C32.36760742 525.42150146 32.93833984 526.15940918 33.52636719 526.91967773 C34.91782413 528.88399261 35.9916246 530.8185725 37 533 C29.79855125 539.11718568 22.32224646 544.76591878 14.69628906 550.33666992 C7.51364573 555.59303337 0.43239129 560.97510284 -6.61865234 566.40649414 C-12.30353484 570.76841255 -18.09788152 574.93695311 -24 579 C-27.22417499 577.62803826 -28.8673217 576.23080266 -30.890625 573.38671875 C-31.426875 572.64421875 -31.963125 571.90171875 -32.515625 571.13671875 C-33.08796875 570.32847656 -33.6603125 569.52023437 -34.25 568.6875 C-35.50353328 566.95061278 -36.7588066 565.21498032 -38.015625 563.48046875 C-38.66853516 562.57731934 -39.32144531 561.67416992 -39.99414062 560.74365234 C-43.26027763 556.27616845 -46.63066483 551.88986281 -50 547.5 C-55.6546137 540.11442362 -61.21471899 532.66803206 -66.7109375 525.1640625 C-71.07277032 519.22328567 -75.52054548 513.3524674 -80 507.5 C-85.65353395 500.11358208 -91.21470194 492.66805534 -96.7109375 485.1640625 C-101.07277032 479.22328567 -105.52054548 473.3524674 -110 467.5 C-115.65353395 460.11358208 -121.21470194 452.66805534 -126.7109375 445.1640625 C-131.07277032 439.22328567 -135.52054548 433.3524674 -140 427.5 C-145.64466275 420.12517242 -151.20407614 412.69619065 -156.68237305 405.19702148 C-159.86709364 400.85081992 -163.10133911 396.54992235 -166.39453125 392.28515625 C-167.12994141 391.33125 -167.86535156 390.37734375 -168.62304688 389.39453125 C-170.05487629 387.54247715 -171.49216606 385.69462834 -172.93554688 383.8515625 C-173.58201172 383.01496094 -174.22847656 382.17835938 -174.89453125 381.31640625 C-175.47050049 380.57849854 -176.04646973 379.84059082 -176.63989258 379.08032227 C-177.99198554 377.01225834 -178.57288482 375.41577435 -179 373 C-168.1143282 364.65557121 -157.2125454 356.33902846 -146.13134766 348.25512695 C-141.87723427 345.14600841 -137.67143016 341.9874255 -133.5078125 338.7578125 C-132.14378296 337.70799194 -132.14378296 337.70799194 -130.75219727 336.63696289 C-128.99199373 335.27938374 -127.23950452 333.91172844 -125.49584961 332.53295898 C-124.7044458 331.92524658 -123.91304199 331.31753418 -123.09765625 330.69140625 C-122.40164307 330.14685791 -121.70562988 329.60230957 -120.98852539 329.04125977 C-119 328 -119 328 -116.92456055 328.11206055 C-114.52940271 329.21712068 -113.62752768 330.36446912 -112.109375 332.515625 C-111.305 333.63420898 -111.305 333.63420898 -110.484375 334.77539062 C-109.91203125 335.59201172 -109.3396875 336.40863281 -108.75 337.25 C-107.49655531 338.99605908 -106.24127874 340.74080426 -104.984375 342.484375 C-104.33146484 343.39380859 -103.67855469 344.30324219 -103.00585938 345.24023438 C-99.74944863 349.7205736 -96.37388191 354.10785047 -93 358.5 C-86.61975212 366.83355803 -80.35984944 375.24821296 -74.15234375 383.7109375 C-70.14490009 389.17331294 -66.08034449 394.59192436 -62 400 C-57.10204227 398.4751641 -53.89035397 395.65033146 -50.125 392.3125 C-49.47370117 391.73943115 -48.82240234 391.1663623 -48.15136719 390.57592773 C-36.27549541 380.00708601 -25.28924095 368.92853232 -16 356 C-15.52498047 355.34225586 -15.04996094 354.68451172 -14.56054688 354.00683594 C-1.39087376 335.55367736 8.82209184 315.49697751 16 294 C16.28069336 293.1632373 16.56138672 292.32647461 16.85058594 291.46435547 C34.39448963 237.91308759 28.5593176 178.6037578 3.69580078 128.36474609 C-6.3249966 109.05006827 -18.96488976 91.67819022 -34 76 C-34.75603516 75.20311768 -34.75603516 75.20311768 -35.52734375 74.39013672 C-74.49209879 33.49414849 -130.39098188 11.11326103 -186.49902344 9.71435547 C-242.58136643 9.12682616 -297.39554119 30.34313878 -338 69 C-338.56332031 69.53608887 -339.12664062 70.07217773 -339.70703125 70.62451172 C-381.32040292 110.49669231 -403.94956495 164.80689612 -406.1875 222.16796875 C-406.81056923 260.36990106 -396.74989066 297.38795969 -379 331 C-378.68836914 331.5966748 -378.37673828 332.19334961 -378.05566406 332.80810547 C-372.69093433 342.98406108 -366.13531276 352.01135925 -359 361 C-358.32130859 361.85658203 -358.32130859 361.85658203 -357.62890625 362.73046875 C-346.37533352 376.78908632 -333.6346477 389.48490321 -319 400 C-318.34225586 400.47501953 -317.68451172 400.95003906 -317.00683594 401.43945312 C-298.55367736 414.60912624 -278.49697751 424.82209184 -257 432 C-256.1632373 432.28069336 -255.32647461 432.56138672 -254.46435547 432.85058594 C-224.39345455 442.70209853 -193.82467705 444.1217655 -162.54589844 441.20361328 C-159.68955093 440.97517122 -156.86427387 440.91575665 -154 441 C-152.61281259 445.61876798 -151.54047826 450.1314369 -150.74731445 454.89746094 C-150.63812683 455.54715347 -150.52893921 456.19684601 -150.41644287 456.8662262 C-150.0611017 458.98825414 -149.71184222 461.11122359 -149.36328125 463.234375 C-149.11727148 464.71936488 -148.87110916 466.2043295 -148.62480164 467.68927002 C-148.11181616 470.7886364 -147.6021169 473.88852245 -147.09448242 476.98876953 C-146.44316506 480.96356191 -145.78138975 484.93653511 -145.11690998 488.90914536 C-144.6066363 491.96918724 -144.10299226 495.03029262 -143.60124779 498.09174347 C-143.35993969 499.55776317 -143.11630102 501.02340122 -142.87029457 502.48863983 C-142.52811397 504.53140182 -142.19515071 506.57546155 -141.86450195 508.62011719 C-141.67289993 509.78258972 -141.48129791 510.94506226 -141.28388977 512.14276123 C-141 515 -141 515 -142 518 C-172.93412204 522.99837984 -206.09731464 523.35145337 -237 518 C-237.99370605 517.82839355 -238.98741211 517.65678711 -240.01123047 517.47998047 C-294.71810579 507.67113678 -345.72155572 483.27207575 -387 446 C-387.61327148 445.44844238 -388.22654297 444.89688477 -388.85839844 444.32861328 C-403.21396615 431.35296628 -415.51619355 417.56932033 -427 402 C-427.46180664 401.37947754 -427.92361328 400.75895508 -428.39941406 400.11962891 C-449.31326212 371.94979898 -464.49154064 339.72811998 -474 306 C-474.32991943 304.84467773 -474.32991943 304.84467773 -474.66650391 303.66601562 C-480.47993852 282.97138265 -484.09755096 261.14201099 -484.203125 239.62109375 C-484.21018463 238.65952362 -484.21724426 237.69795349 -484.22451782 236.70724487 C-484.45297647 196.44049468 -484.45297647 196.44049468 -481 178 C-480.79600586 176.88753906 -480.59201172 175.77507812 -480.38183594 174.62890625 C-470.86315495 124.0288728 -449.49156578 76.29902584 -416 37 C-415.10076639 35.91602452 -414.20237351 34.83135121 -413.3046875 33.74609375 C-402.64459026 20.96119813 -391.11139311 9.27917375 -378 -1 C-376.29090396 -2.43659311 -374.58259372 -3.8741215 -372.875 -5.3125 C-294.18287102 -69.3332151 -180.83398433 -86.41530083 0 0 Z " fill="#DF6B1F" transform="translate(2068,417)"/>
<path d="M0 0 C33.05516798 28.61375374 51.83730212 68.12805371 56.67578125 111.23046875 C57.00112451 116.22715856 56.9375 121.24272956 56.9375 126.25 C31.1975 126.25 5.4575 126.25 -21.0625 126.25 C-22.0525 119.32 -23.0425 112.39 -24.0625 105.25 C-28.83810002 87.692647 -36.91178842 73.74274312 -50.0625 61.25 C-50.93648437 60.41726563 -51.81046875 59.58453125 -52.7109375 58.7265625 C-71.37839457 42.30144262 -95.80051674 36.96780476 -120.0625 38.25 C-143.99372437 40.50324696 -164.27724372 53.72092349 -179.8125 71.4375 C-196.79760486 93.09966272 -200.43930423 120.50128127 -197.76220703 147.25048828 C-194.50940439 170.35160261 -184.72306442 193.6705507 -166.18359375 208.5625 C-154.06445121 217.1580848 -142.60729675 219.49915826 -128.0625 218.25 C-125.43137491 217.62348726 -125.43137491 217.62348726 -123.125 216.75 C-102.62909551 209.49175389 -74.46523541 218.25363559 -55.72631836 227.12011719 C-27.6395661 240.96337815 -6.10023252 263.097014 8.9375 290.25 C9.28554687 290.87745117 9.63359375 291.50490234 9.9921875 292.15136719 C19.6234718 309.79363515 25.10515933 328.59341797 28.9375 348.25 C29.185 349.48363281 29.4325 350.71726562 29.6875 351.98828125 C36.33333379 392.00173887 25.15762341 433.35818339 1.9375 466.25 C-25.02442434 502.97445778 -63.81502855 528.07675469 -109 535.5 C-111.01837645 535.76911686 -113.03927588 536.02014891 -115.0625 536.25 C-116.00738281 536.36085938 -116.95226563 536.47171875 -117.92578125 536.5859375 C-161.73879508 540.97316757 -205.41433157 528.31180475 -240.0625 501.25 C-244.26512905 497.7890814 -248.17014869 494.05621352 -252.0625 490.25 C-253.05493754 489.31788902 -254.04844328 488.38691418 -255.04296875 487.45703125 C-267.60932951 475.52894892 -277.18937016 461.62925902 -285.0625 446.25 C-285.38057617 445.63302246 -285.69865234 445.01604492 -286.02636719 444.38037109 C-298.00383127 420.83220111 -303.26611369 395.68438114 -303.1875 369.375 C-303.19330078 367.39886719 -303.19330078 367.39886719 -303.19921875 365.3828125 C-303.19728516 363.495625 -303.19728516 363.495625 -303.1953125 361.5703125 C-303.19362061 359.85739014 -303.19362061 359.85739014 -303.19189453 358.10986328 C-303.0625 355.25 -303.0625 355.25 -302.0625 352.25 C-285.99671492 353.47442707 -269.95587011 354.87240544 -253.92407227 356.48217773 C-250.54683939 356.82032589 -247.1689604 357.15146887 -243.79101562 357.48242188 C-241.63277102 357.69750083 -239.47456618 357.91297927 -237.31640625 358.12890625 C-236.31146622 358.22683975 -235.30652618 358.32477325 -234.27113342 358.42567444 C-233.35093918 358.51924728 -232.43074493 358.61282013 -231.48266602 358.70922852 C-230.67426773 358.78979996 -229.86586945 358.8703714 -229.03297424 358.9533844 C-227.0625 359.25 -227.0625 359.25 -225.0625 360.25 C-225.03671875 361.56871094 -225.0109375 362.88742187 -224.984375 364.24609375 C-224.22054088 391.52697856 -216.62046094 415.23853094 -196.61035156 434.82275391 C-178.17948553 451.81752407 -154.10167633 459.23617375 -129.31005859 458.38183594 C-106.81466875 457.06231492 -84.92875206 446.18288684 -69.64697266 429.72558594 C-54.63746403 412.48942188 -46.24153278 391.71691606 -47.81884766 368.77294922 C-50.13312568 344.80927274 -60.30092462 320.64668186 -78.9375 304.875 C-86.40853415 299.20491498 -96.63011916 293.57070919 -106.25 294.5 C-108.74494674 294.86773466 -111.2220863 295.28010059 -113.70043945 295.74755859 C-146.53071699 301.80463935 -180.00827951 294.39038627 -207.47924805 275.68212891 C-214.90559067 270.46228957 -221.53450279 264.53870112 -228.0625 258.25 C-228.75601562 257.61964844 -229.44953125 256.98929688 -230.1640625 256.33984375 C-241.56342028 245.6676055 -249.98452176 232.04316213 -257.0625 218.25 C-257.53163818 217.34846191 -257.53163818 217.34846191 -258.01025391 216.42871094 C-276.08041985 181.29067093 -282.26074923 137.13483515 -275.0625 98.25 C-274.9171582 97.43756836 -274.77181641 96.62513672 -274.62207031 95.78808594 C-268.38365223 62.13051291 -252.70094348 34.44010106 -230.0625 9.25 C-229.15951172 8.23679687 -229.15951172 8.23679687 -228.23828125 7.203125 C-222.52743617 1.16142492 -215.71451265 -3.79962463 -209.0625 -8.75 C-208.49031738 -9.17716309 -207.91813477 -9.60432617 -207.32861328 -10.04443359 C-144.96848075 -55.85163236 -58.03650945 -48.92154339 0 0 Z " fill="#DF6B1F" transform="translate(1518.0625,385.75)"/>
<path d="M0 0 C25.74 0 51.48 0 78 0 C78.0093457 12.69460693 78.01869141 25.38921387 78.02832031 38.46850586 C78.06104899 79.11663465 78.11334934 119.76471727 78.17792095 160.41280746 C78.18793805 166.72987597 78.19778224 173.04694473 78.20751953 179.36401367 C78.2094609 180.62159383 78.21140228 181.87917398 78.21340248 183.17486263 C78.24439799 203.52000067 78.2613963 223.86512744 78.27319422 244.21028464 C78.28561846 265.09641803 78.31314863 285.98249239 78.35461307 306.86858851 C78.37971195 319.74964875 78.39311991 332.63061107 78.39142957 345.51169611 C78.39139975 354.35255301 78.40608301 363.19331038 78.43216428 372.03412848 C78.446768 377.12984229 78.45504947 382.225352 78.44580269 387.32108307 C78.43746189 391.99691403 78.44781705 396.6723365 78.47233662 401.34810717 C78.47797914 403.02941239 78.47706943 404.71075687 78.46851245 406.39204978 C78.40205217 420.68820694 80.15813982 434.86788822 86.6875 447.8125 C87.02998779 448.51133301 87.37247559 449.21016602 87.7253418 449.93017578 C97.80675727 469.81024365 115.10405249 485.263932 136 493 C146.95158598 496.55805932 156.72348568 498.14146475 168.16772461 498.20532227 C169.27090027 498.21522186 170.37407593 498.22512146 171.51068115 498.23532104 C175.14121385 498.26679842 178.7717596 498.29163893 182.40234375 498.31640625 C184.9258304 498.33698766 187.44931369 498.35798444 189.97279358 498.37937927 C195.92596123 498.42885182 201.87915129 498.47414869 207.83236653 498.51740164 C216.47065642 498.58046175 225.10887673 498.65201632 233.74710846 498.72252655 C245.83137164 498.8203816 257.91567101 498.90934342 270 499 C270 524.74 270 550.48 270 577 C242.23133434 577.08021762 242.23133434 577.08021762 230.30664062 577.09765625 C222.20057501 577.10956712 214.09455461 577.12328284 205.98852539 577.15087891 C199.44623942 577.17314054 192.90398397 577.1846013 186.36166191 577.18975449 C183.87768217 577.19342239 181.39370481 577.20058403 178.90974617 577.21146011 C161.58227055 577.28424501 144.88379119 576.73840874 127.9375 572.75 C127.01050293 572.53384033 126.08350586 572.31768066 125.12841797 572.0949707 C84.00144122 562.13458651 47.17486402 534.54695681 24.67041016 498.89355469 C2.90677213 463.07338691 -0.47781863 426.62919155 -0.34819686 385.71639431 C-0.33511586 380.52857659 -0.3396344 375.34076844 -0.34190369 370.15293884 C-0.34346887 361.18746419 -0.33413913 352.22205557 -0.31719017 343.25659752 C-0.2927016 330.29441571 -0.28498487 317.33226548 -0.2812262 304.37006304 C-0.2746771 283.33449989 -0.25475797 262.29897185 -0.22631836 241.26342773 C-0.19873775 220.84188003 -0.1775238 200.42034189 -0.16479492 179.9987793 C-0.16400675 178.73781037 -0.16321858 177.47684143 -0.16240653 176.17766132 C-0.15849112 169.85109849 -0.15470007 163.5245356 -0.15097082 157.19797266 C-0.11992295 104.79861725 -0.06464592 52.39932684 0 0 Z " fill="#DF6C1F" transform="translate(2214,358)"/>
</svg>
